<svg width="390" height="597" viewBox="0 0 390 597" fill="none" xmlns="http://www.w3.org/2000/svg">
<g clip-path="url(#clip0_431_117)">
<path d="M68.2471 405.446C67.2759 405.194 66.3678 405.327 65.5229 405.846C64.678 406.365 64.1276 407.117 63.8719 408.102C63.6161 409.086 63.731 410.011 64.2165 410.875C64.7054 411.727 65.4355 412.278 66.4067 412.531C67.3779 412.783 68.2842 412.656 69.1257 412.151C69.9706 411.632 70.521 410.88 70.7767 409.895C71.0325 408.911 70.9176 407.986 70.4321 407.122C69.9466 406.257 69.2183 405.699 68.2471 405.446ZM66.0127 414.047C64.5492 413.667 63.4497 412.87 62.714 411.657C61.9818 410.43 61.8024 409.098 62.1756 407.661C62.5489 406.224 63.3522 405.155 64.5855 404.453C65.8223 403.737 67.1725 403.569 68.6359 403.95C70.0994 404.33 71.1972 405.133 71.9294 406.36C72.6651 407.574 72.8463 408.899 72.473 410.336C72.0997 411.773 71.2898 412.841 70.0431 413.539C68.793 414.251 67.4495 414.421 66.0127 414.047ZM81.6262 413.992C81.3359 415.11 80.7498 415.944 79.8679 416.496C78.986 417.048 78.0661 417.2 77.1082 416.951C76.1636 416.706 75.4259 416.074 74.8952 415.055L73.8998 418.887L72.3432 418.483L74.9768 408.345L76.5334 408.749L76.1964 410.046C77.0671 409.264 77.9947 409.001 78.9792 409.257C80.0036 409.523 80.7701 410.098 81.2788 410.983C81.8007 411.872 81.9165 412.875 81.6262 413.992ZM77.1118 415.461C77.7504 415.627 78.348 415.541 78.9046 415.202C79.4779 414.854 79.8561 414.328 80.0393 413.622C80.2225 412.917 80.1484 412.273 79.817 411.69C79.4989 411.11 79.0272 410.739 78.4019 410.577C77.7767 410.414 77.1889 410.517 76.6388 410.886C76.0921 411.241 75.7289 411.764 75.5491 412.456C75.366 413.161 75.4268 413.802 75.7315 414.378C76.0398 414.941 76.4999 415.302 77.1118 415.461ZM90.1174 416.965L84.2902 415.451C84.1918 415.994 84.3256 416.49 84.6916 416.94C85.0575 417.39 85.5398 417.693 86.1385 417.848C87.0831 418.094 87.8642 417.984 88.482 417.52L89.126 418.731C88.11 419.362 86.9567 419.51 85.6662 419.174C84.6019 418.898 83.8021 418.314 83.2669 417.422C82.7316 416.53 82.6144 415.506 82.915 414.348C83.2088 413.217 83.8132 412.394 84.7281 411.879C85.643 411.364 86.6193 411.242 87.657 411.511C88.6947 411.781 89.4783 412.318 90.0076 413.123C90.537 413.928 90.6669 414.849 90.3973 415.887L90.1174 416.965ZM88.8822 415.323C89.0377 414.725 88.9675 414.202 88.6716 413.756C88.3889 413.313 87.9482 413.014 87.3496 412.859C86.7509 412.703 86.1787 412.746 85.633 412.988C85.1007 413.233 84.7602 413.642 84.6116 414.214L88.8822 415.323ZM92.6201 420.853L91.0636 420.449L92.9921 413.025L94.5487 413.429L94.2013 414.766C94.5716 414.38 95.0091 414.117 95.5138 413.978C96.0353 413.83 96.5488 413.821 97.0544 413.952C97.9191 414.177 98.5369 414.615 98.9077 415.265C99.2784 415.915 99.3394 416.719 99.0905 417.677L97.9085 422.227L96.332 421.817L97.3896 417.746C97.7456 416.376 97.3581 415.544 96.2273 415.25C95.6552 415.102 95.1279 415.163 94.6453 415.436C94.1661 415.695 93.8402 416.157 93.6674 416.822L92.6201 420.853ZM107.436 418.119L106.456 421.891C106.363 422.25 106.382 422.56 106.513 422.822C106.66 423.073 106.9 423.242 107.233 423.328C107.539 423.408 107.901 423.325 108.32 423.078L108.669 424.362C107.982 424.709 107.313 424.798 106.661 424.628C105.982 424.452 105.471 424.071 105.126 423.484C104.785 422.884 104.713 422.205 104.91 421.447L105.879 417.715L104.941 417.471L105.268 416.214L106.206 416.458L106.812 414.123L108.369 414.527L107.762 416.862L109.718 417.37L109.392 418.627L107.436 418.119ZM113.504 424.915C114.182 425.091 114.8 425.01 115.356 424.672C115.926 424.337 116.304 423.81 116.491 423.092C116.678 422.374 116.604 421.729 116.269 421.16C115.947 420.593 115.447 420.222 114.769 420.046C114.09 419.869 113.473 419.95 112.916 420.289C112.36 420.627 111.988 421.155 111.801 421.874C111.615 422.592 111.684 423.228 112.009 423.781C112.327 424.361 112.825 424.739 113.504 424.915ZM113.141 426.312C112.023 426.021 111.187 425.414 110.632 424.488C110.081 423.55 109.945 422.542 110.225 421.464C110.505 420.386 111.112 419.579 112.047 419.04C112.986 418.489 114.014 418.358 115.132 418.649C116.249 418.939 117.084 419.553 117.635 420.492C118.19 421.417 118.328 422.419 118.048 423.496C117.778 424.534 117.17 425.342 116.225 425.92C115.286 426.472 114.258 426.602 113.141 426.312ZM132.768 420.866L134.405 421.291L131.869 431.049L130.093 430.588L126.416 422.028L124.565 429.152L122.909 428.722L125.444 418.963L127.101 419.393L130.876 428.15L132.768 420.866ZM142.065 430.46L136.238 428.946C136.139 429.489 136.273 429.985 136.639 430.435C137.005 430.885 137.487 431.188 138.086 431.344C139.031 431.589 139.812 431.479 140.43 431.015L141.074 432.226C140.058 432.857 138.904 433.005 137.614 432.669C136.55 432.393 135.75 431.809 135.214 430.917C134.679 430.025 134.562 429.001 134.863 427.843C135.156 426.712 135.761 425.889 136.676 425.374C137.591 424.859 138.567 424.737 139.605 425.006C140.642 425.276 141.426 425.813 141.955 426.618C142.485 427.423 142.615 428.345 142.345 429.382L142.065 430.46ZM140.83 428.818C140.985 428.22 140.915 427.697 140.619 427.251C140.337 426.808 139.896 426.509 139.297 426.354C138.698 426.198 138.126 426.241 137.581 426.483C137.048 426.728 136.708 427.137 136.559 427.709L140.83 428.818ZM146.484 434.846L144.687 434.379L144.062 426.292L145.678 426.712L146.057 432.797L149.37 427.671L150.986 428.091L151.366 434.176L154.678 429.05L156.295 429.47L151.792 436.225L149.996 435.758L149.562 430.213L146.484 434.846ZM166.528 430.978C165.557 430.726 164.649 430.859 163.804 431.378C162.959 431.897 162.408 432.649 162.153 433.633C161.897 434.618 162.012 435.542 162.497 436.407C162.986 437.258 163.716 437.81 164.687 438.062C165.659 438.315 166.565 438.188 167.406 437.682C168.251 437.163 168.802 436.411 169.058 435.427C169.313 434.442 169.198 433.518 168.713 432.653C168.227 431.789 167.499 431.23 166.528 430.978ZM164.293 439.579C162.83 439.199 161.73 438.402 160.995 437.188C160.263 435.961 160.083 434.629 160.456 433.193C160.83 431.756 161.633 430.686 162.866 429.984C164.103 429.269 165.453 429.101 166.917 429.481C168.38 429.861 169.478 430.665 170.21 431.892C170.946 433.106 171.127 434.431 170.754 435.868C170.381 437.304 169.571 438.372 168.324 439.071C167.074 439.783 165.73 439.952 164.293 439.579ZM179.907 439.524C179.617 440.641 179.031 441.476 178.149 442.028C177.267 442.58 176.347 442.732 175.389 442.483C174.444 442.237 173.707 441.605 173.176 440.587L172.181 444.419L170.624 444.014L173.258 433.877L174.814 434.281L174.477 435.578C175.348 434.796 176.275 434.533 177.26 434.788C178.284 435.055 179.051 435.63 179.56 436.515C180.081 437.403 180.197 438.406 179.907 439.524ZM175.393 440.992C176.031 441.158 176.629 441.072 177.185 440.734C177.759 440.386 178.137 439.859 178.32 439.154C178.503 438.449 178.429 437.805 178.098 437.222C177.78 436.642 177.308 436.271 176.683 436.108C176.057 435.946 175.47 436.049 174.92 436.417C174.373 436.772 174.01 437.296 173.83 437.988C173.647 438.693 173.708 439.333 174.012 439.91C174.321 440.473 174.781 440.833 175.393 440.992ZM189.283 441.959C188.993 443.077 188.407 443.912 187.525 444.464C186.643 445.016 185.723 445.167 184.765 444.919C183.821 444.673 183.083 444.041 182.552 443.023L181.557 446.854L180 446.45L182.634 436.312L184.19 436.717L183.853 438.014C184.724 437.232 185.652 436.968 186.636 437.224C187.661 437.49 188.427 438.066 188.936 438.951C189.458 439.839 189.574 440.842 189.283 441.959ZM184.769 443.428C185.408 443.594 186.005 443.508 186.562 443.17C187.135 442.822 187.513 442.295 187.696 441.59C187.88 440.885 187.805 440.241 187.474 439.657C187.156 439.078 186.684 438.707 186.059 438.544C185.434 438.382 184.846 438.485 184.296 438.853C183.749 439.208 183.386 439.732 183.206 440.423C183.023 441.128 183.084 441.769 183.389 442.345C183.697 442.908 184.157 443.269 184.769 443.428ZM193.826 445.781C194.504 445.957 195.122 445.876 195.678 445.538C196.248 445.203 196.627 444.677 196.813 443.958C197 443.24 196.926 442.596 196.591 442.026C196.269 441.459 195.769 441.088 195.091 440.912C194.412 440.736 193.795 440.817 193.238 441.155C192.682 441.493 192.31 442.021 192.124 442.74C191.937 443.458 192.006 444.094 192.331 444.647C192.649 445.227 193.147 445.605 193.826 445.781ZM193.463 447.178C192.345 446.888 191.509 446.28 190.954 445.355C190.403 444.416 190.267 443.408 190.547 442.33C190.827 441.253 191.434 440.445 192.37 439.907C193.308 439.355 194.336 439.225 195.454 439.515C196.571 439.805 197.406 440.42 197.957 441.358C198.512 442.283 198.65 443.285 198.37 444.363C198.1 445.4 197.493 446.208 196.547 446.786C195.609 447.338 194.581 447.468 193.463 447.178ZM201.56 445.745L200.731 448.938L199.174 448.534L201.103 441.11L202.659 441.515L202.276 442.991C202.65 442.591 203.087 442.3 203.589 442.118C204.104 441.94 204.603 441.906 205.085 442.017L204.696 443.599L204.616 443.578C203.858 443.381 203.215 443.477 202.688 443.865C202.161 444.254 201.785 444.881 201.56 445.745ZM208.231 444.304L207.251 448.076C207.158 448.435 207.177 448.745 207.308 449.006C207.455 449.258 207.695 449.427 208.028 449.513C208.334 449.593 208.696 449.509 209.115 449.263L209.464 450.547C208.777 450.894 208.108 450.983 207.456 450.813C206.777 450.637 206.266 450.255 205.921 449.669C205.58 449.069 205.508 448.39 205.705 447.631L206.674 443.9L205.736 443.656L206.063 442.399L207.001 442.642L207.607 440.308L209.164 440.712L208.557 443.047L210.513 443.555L210.187 444.812L208.231 444.304ZM217.672 445.414L219.248 445.824L217.32 453.248L215.743 452.838L216.096 451.481C215.725 451.868 215.279 452.135 214.758 452.284C214.25 452.436 213.743 452.446 213.237 452.315C212.386 452.094 211.775 451.658 211.404 451.008C211.033 450.358 210.972 449.554 211.221 448.596L212.403 444.046L213.96 444.45L212.902 448.521C212.546 449.892 212.934 450.724 214.064 451.017C214.636 451.166 215.164 451.104 215.646 450.832C216.129 450.56 216.457 450.091 216.63 449.426L217.672 445.414ZM221.128 454.237L219.572 453.833L221.5 446.409L223.057 446.813L222.709 448.15C223.08 447.764 223.517 447.501 224.022 447.362C224.543 447.214 225.057 447.205 225.562 447.337C226.427 447.561 227.045 447.999 227.416 448.649C227.786 449.299 227.847 450.103 227.598 451.061L226.416 455.611L224.84 455.201L225.898 451.13C226.254 449.76 225.866 448.928 224.735 448.634C224.163 448.486 223.636 448.547 223.153 448.82C222.674 449.079 222.348 449.541 222.175 450.206L221.128 454.237ZM230.145 456.58L228.589 456.175L230.517 448.752L232.074 449.156L230.145 456.58ZM230.888 446.505C230.957 446.238 231.109 446.036 231.344 445.899C231.595 445.751 231.86 445.713 232.14 445.786C232.406 445.855 232.606 446.014 232.74 446.261C232.892 446.5 232.933 446.752 232.864 447.018C232.791 447.297 232.629 447.511 232.378 447.658C232.143 447.796 231.893 447.831 231.626 447.762C231.347 447.689 231.14 447.529 231.006 447.281C230.855 447.043 230.815 446.784 230.888 446.505ZM235.944 451.503L234.964 455.275C234.871 455.634 234.889 455.945 235.02 456.206C235.168 456.457 235.408 456.626 235.741 456.712C236.047 456.792 236.409 456.709 236.828 456.462L237.177 457.746C236.49 458.093 235.821 458.182 235.169 458.012C234.49 457.836 233.979 457.455 233.634 456.868C233.293 456.268 233.221 455.589 233.418 454.831L234.387 451.099L233.449 450.855L233.776 449.598L234.714 449.842L235.32 447.507L236.877 447.911L236.27 450.246L238.226 450.754L237.9 452.011L235.944 451.503ZM239.824 459.094L238.267 458.69L240.196 451.266L241.752 451.67L239.824 459.094ZM240.567 449.019C240.636 448.753 240.788 448.551 241.022 448.413C241.274 448.265 241.539 448.228 241.818 448.3C242.085 448.369 242.285 448.528 242.419 448.776C242.57 449.014 242.611 449.266 242.542 449.532C242.47 449.811 242.308 450.025 242.056 450.173C241.822 450.311 241.571 450.345 241.305 450.276C241.026 450.203 240.819 450.043 240.684 449.795C240.533 449.557 240.494 449.298 240.567 449.019ZM249.798 458.447L243.97 456.933C243.872 457.476 244.006 457.972 244.372 458.422C244.738 458.872 245.22 459.175 245.819 459.331C246.763 459.576 247.545 459.466 248.162 459.002L248.806 460.213C247.79 460.844 246.637 460.992 245.347 460.656C244.282 460.38 243.482 459.796 242.947 458.904C242.412 458.012 242.295 456.988 242.595 455.83C242.889 454.699 243.493 453.876 244.408 453.361C245.323 452.846 246.3 452.724 247.337 452.993C248.375 453.263 249.159 453.8 249.688 454.605C250.217 455.41 250.347 456.332 250.078 457.369L249.798 458.447ZM248.563 456.805C248.718 456.207 248.648 455.684 248.352 455.238C248.069 454.795 247.629 454.496 247.03 454.341C246.431 454.185 245.859 454.228 245.313 454.47C244.781 454.715 244.441 455.124 244.292 455.696L248.563 456.805ZM253.267 462.714C252.07 462.403 251.089 461.751 250.325 460.757L251.399 459.736C252.081 460.609 252.835 461.153 253.66 461.367C254.005 461.457 254.299 461.448 254.54 461.341C254.798 461.223 254.96 461.038 255.025 460.785C255.122 460.412 254.716 459.952 253.808 459.403C253.784 459.383 253.755 459.361 253.718 459.338C253.695 459.317 253.677 459.306 253.664 459.302C252.227 458.489 251.637 457.59 251.893 456.605C252.073 455.913 252.476 455.429 253.102 455.151C253.741 454.877 254.493 454.852 255.358 455.077C256.209 455.298 256.955 455.762 257.595 456.468L256.716 457.475C256.221 456.92 255.614 456.549 254.896 456.363C254.058 456.145 253.569 456.302 253.431 456.834C253.372 457.061 253.409 457.248 253.541 457.396C253.69 457.534 253.945 457.699 254.307 457.893C254.851 458.204 255.301 458.492 255.659 458.755C255.894 458.944 256.094 459.131 256.259 459.316C256.675 459.793 256.791 460.384 256.608 461.089C256.428 461.781 256.022 462.279 255.389 462.584C254.773 462.878 254.065 462.921 253.267 462.714Z" fill="#577EB5"/>
<rect x="36.3641" y="378.506" width="264.857" height="43.0026" transform="rotate(14.5625 36.3641 378.506)" stroke="#577EB5"/>
<rect x="34.6527" y="375.306" width="5" height="5" transform="rotate(14.5625 34.6527 375.306)" fill="white" stroke="#577EB5"/>
<rect x="291.365" y="442.774" width="5" height="5" transform="rotate(14.5625 291.365 442.774)" fill="white" stroke="#577EB5"/>
<rect x="280.357" y="484.696" width="5" height="5" transform="rotate(14.5625 280.357 484.696)" fill="white" stroke="#577EB5"/>
<rect x="23.7537" y="417.39" width="5" height="5" transform="rotate(14.5625 23.7537 417.39)" fill="white" stroke="#577EB5"/>
<rect x="17.5" y="482.5" width="47" height="64" rx="1.5" fill="#535353" stroke="#535353"/>
<rect x="29" y="488.558" width="1.5" height="6.04651" fill="#EDEDED"/>
<rect x="33.5" y="488.558" width="1.5" height="6.04651" fill="#EDEDED"/>
<rect x="38" y="488.558" width="1.5" height="6.04651" fill="#EDEDED"/>
<rect x="42.5" y="488.558" width="1.5" height="6.04651" fill="#EDEDED"/>
<rect x="47" y="488.558" width="1.5" height="6.04651" fill="#EDEDED"/>
<rect x="51.5" y="488.558" width="1.5" height="6.04651" fill="#EDEDED"/>
<rect x="21" y="501" width="40" height="40" rx="2" fill="#577EB5"/>
<path d="M41 512.5V526.464M41 526.464L34.4 519.786M41 526.464L47.6 519.786M32 529.5H50" stroke="#EDEDED" stroke-width="1.5" stroke-linecap="round" stroke-linejoin="round"/>
<circle cx="163.5" cy="212.5" r="105.5" transform="rotate(90 163.5 212.5)" fill="#D9D9D9"/>
<path d="M272.09 400.025C276.564 395.078 281.747 391.245 287.637 388.526C293.528 385.807 299.664 384.256 306.045 383.874C312.55 383.485 318.899 384.317 325.092 386.367C331.284 388.418 336.919 391.739 341.996 396.331C347.008 400.864 350.844 406.109 353.504 412.065C356.164 418.021 357.626 424.254 357.891 430.766C358.28 437.271 357.416 443.59 355.3 449.723C353.25 455.916 349.987 461.486 345.513 466.433C340.921 471.51 335.647 475.378 329.691 478.038C323.8 480.757 317.599 482.249 311.088 482.514C304.7 482.772 298.44 481.843 292.306 479.728C286.173 477.612 280.6 474.288 275.588 469.754C270.511 465.162 266.613 459.921 263.894 454.03C261.175 448.139 259.624 442.003 259.242 435.622C258.984 429.235 259.912 422.974 262.028 416.841C264.144 410.707 267.498 405.102 272.09 400.025ZM286.735 413.271C283.85 416.46 281.696 419.955 280.271 423.755C278.97 427.548 278.357 431.432 278.432 435.405C278.631 439.372 279.535 443.148 281.144 446.733C282.818 450.377 285.25 453.642 288.439 456.527C291.499 459.294 294.86 461.269 298.523 462.452C302.252 463.694 306.034 464.157 309.871 463.84C313.767 463.458 317.504 462.401 321.083 460.668C324.721 458.87 327.983 456.376 330.867 453.186C333.811 449.932 335.963 446.375 337.323 442.516C338.748 438.717 339.393 434.863 339.259 430.955C339.249 427.041 338.44 423.291 336.831 419.705C335.222 416.12 332.855 412.914 329.73 410.089C326.606 407.263 323.18 405.229 319.451 403.987C315.723 402.744 311.878 402.285 307.917 402.608C304.016 402.866 300.246 403.894 296.608 405.692C292.97 407.49 289.679 410.016 286.735 413.271Z" fill="#577EB5"/>
<path d="M269.854 332.43L283.945 345.175L218.879 417.115L204.787 404.37L269.854 332.43Z" fill="#577EB5"/>
<path d="M199.396 268.706L213.633 281.582L160.943 339.837L194.914 370.563L182.537 384.247L134.33 340.646L199.396 268.706Z" fill="#577EB5"/>
<path d="M356.706 257.273L404.913 300.874L392.537 314.558L375.139 298.823L322.45 357.079L308.357 344.333L361.046 286.077L344.329 270.957L356.706 257.273Z" fill="#577EB5"/>
<path d="M309.648 214.712C314.169 218.8 317.668 223.031 320.145 227.404C322.681 231.711 324.156 236.007 324.569 240.291C325.108 244.568 324.643 248.769 323.177 252.892C321.77 256.951 319.386 260.837 316.027 264.551C313.375 267.483 310.264 270.001 306.695 272.104C303.191 274.266 299.333 275.634 295.121 276.208C290.975 276.841 286.586 276.426 281.955 274.962C277.383 273.433 272.672 270.475 267.824 266.09L257.603 256.846L236.917 279.719L222.667 266.83L287.733 194.89L309.648 214.712ZM280.102 252.317C282.265 254.273 284.39 255.544 286.48 256.131C288.57 256.718 290.509 256.813 292.297 256.416C294.15 256.079 295.771 255.471 297.16 254.595C298.673 253.712 299.901 252.75 300.844 251.707C301.551 250.925 302.304 249.829 303.103 248.419C304.026 247.003 304.687 245.35 305.086 243.461C305.485 241.571 305.315 239.521 304.574 237.311C303.899 235.16 302.316 232.959 299.827 230.707L289.606 221.463L269.98 243.162L280.102 252.317ZM285.511 273.203L278.29 317.139L261.682 302.118L268.156 258.216L285.511 273.203Z" fill="#577EB5"/>
<path d="M51.0664 134.548L95.5654 174.796L83.1887 188.48L52.7165 160.919L37.9528 177.243L68.425 204.803L56.0483 218.487L25.5761 190.927L0.0269826 219.175L-13.9999 206.488L51.0664 134.548Z" fill="#577EB5"/>
<path d="M149.435 69.8068C155.393 75.1951 159.521 80.7646 161.818 86.5151C164.174 92.2004 164.783 97.8446 163.643 103.448C162.562 108.986 159.781 114.231 155.302 119.183C152.65 122.116 149.51 124.666 145.882 126.835C142.379 128.997 138.555 130.396 134.411 131.031C130.331 131.724 125.977 131.34 121.348 129.878C116.844 128.411 112.234 125.545 107.521 121.282L97.3077 112.044L76.7092 134.819L62.4698 121.94L127.536 50L149.435 69.8068ZM119.888 107.411C122.048 109.365 124.173 110.635 126.261 111.221C128.409 111.741 130.376 111.803 132.164 111.406C134.076 111.003 135.755 110.33 137.203 109.388C138.715 108.505 139.884 107.608 140.709 106.696C141.357 105.979 142.081 104.915 142.88 103.506C143.804 102.09 144.465 100.437 144.865 98.5479C145.264 96.6584 145.094 94.6092 144.355 92.4002C143.681 90.2504 142.1 88.0504 139.612 85.8003L129.399 76.5631L109.773 98.2624L119.888 107.411Z" fill="#577EB5"/>
<circle cx="178.737" cy="160.947" r="3.94737" fill="#3E3E3E"/>
<path d="M183.387 159.468C183.388 159.506 183.318 159.581 183.304 159.628C183.242 159.829 183.188 159.906 183.119 160.073C183.048 160.334 182.67 160.958 182.684 160.947C182.684 160.947 182.684 160.947 182.684 160.947C182.686 160.945 182.697 160.895 182.692 160.888C182.686 160.881 182.663 160.886 182.62 160.818C182.555 160.719 182.469 160.492 182.446 160.444C182.426 160.411 182.375 160.375 182.342 160.336C182.232 160.213 182.22 160.138 182.006 160.071C182.029 160.016 182.06 159.957 182.099 159.893C182.021 159.851 182.058 159.737 182.029 159.706C182.003 159.681 181.923 159.692 181.896 159.669C181.865 159.643 181.902 159.566 181.843 159.52C181.747 159.444 181.524 159.537 181.441 159.516C181.353 159.496 181.387 159.367 181.234 159.374C181.199 159.385 181.164 159.396 181.129 159.408C181.077 159.449 181.026 159.489 180.975 159.528C180.908 159.532 181.011 159.448 180.978 159.431C180.939 159.413 180.8 159.488 180.771 159.481C180.748 159.475 180.812 159.395 180.776 159.39C180.724 159.383 180.594 159.496 180.543 159.513C180.524 159.516 180.269 159.569 180.259 159.574C180.179 159.58 180.372 159.392 180.333 159.368C180.223 159.298 179.907 159.479 179.722 159.597C179.64 159.647 179.595 159.652 179.573 159.622C180.142 158.878 180.3 158.268 179.642 159.469C179.686 159.309 179.451 159.654 179.434 159.62C179.423 159.596 179.493 159.417 179.443 159.436C179.346 159.462 179.058 160.114 179.428 159.037C179.265 159.258 179.289 158.852 178.999 159.916C178.971 159.999 179.069 159.397 179.058 159.316C179.056 159.247 178.911 159.014 178.876 159.006C178.846 159 178.791 159.002 178.765 159.119C178.755 159.166 178.744 159.332 178.737 159.485C178.717 159.805 178.73 160.083 178.658 159.089C178.601 159.242 178.587 159.213 178.509 159.065C178.495 159.039 178.465 158.811 178.458 158.814C178.444 158.82 178.445 159.001 178.427 159.034C178.399 159.089 178.284 158.614 178.43 159.355C178.435 159.495 178.445 159.635 178.462 159.776C178.424 159.637 178.384 159.497 178.342 159.358C178.371 159.524 178.404 159.689 178.44 159.855C178.159 158.761 178.262 159.458 178.473 160.063C178.391 159.868 178.291 159.672 178.174 159.479C177.705 158.244 178.023 159.409 178.347 160.064C178.345 160.066 178.343 160.069 178.341 160.071C178.174 159.777 178.287 160.067 178.152 159.889C178.007 159.713 177.94 159.595 177.598 159.066C177.604 159.108 177.612 159.149 177.62 159.191C178.551 160.705 176.824 158.183 177.517 159.391C176.79 158.542 177.036 159.119 177.246 159.421C177.269 159.456 177.425 159.615 177.468 159.672C177.573 159.807 177.331 159.662 177.866 160.149C177.706 160.021 177.541 159.898 177.37 159.78C177.462 159.881 177.556 159.979 177.654 160.075C177.832 160.219 178.009 160.362 178.186 160.505C177.576 160.036 177.791 160.264 177.635 160.171C177.602 160.153 177.343 159.97 177.264 159.936C177.17 159.896 177.233 159.981 177.139 159.949C177.435 160.146 177.734 160.339 178.037 160.527C178.202 160.642 177.387 160.182 177.313 160.171C177.3 160.169 177.337 160.267 177.354 160.279C177.489 160.378 178.223 160.71 178.065 160.679C178.036 160.674 177.773 160.58 177.761 160.586C177.736 160.603 178.34 160.842 178.913 160.997C178.207 160.79 178.501 160.896 178.293 160.853C178.229 160.842 177.765 160.75 177.664 160.748C177.581 160.749 177.955 160.836 177.892 160.837C177.823 160.841 177.426 160.806 177.397 160.813C177.371 160.82 177.691 160.856 177.689 160.865C177.677 160.889 177.158 160.905 177.148 160.946C177.148 160.946 177.148 160.947 177.148 160.947C177.148 160.947 177.148 160.947 177.148 160.947C177.153 161.007 178.093 161.007 178.509 160.971C178.447 160.978 178.243 161 178.241 161.004C178.21 161.049 178.03 161.135 177.853 161.293C177.754 161.335 176.684 162.074 178.537 161.049C178.85 160.866 178.103 161.347 178.11 161.391C178.104 161.416 178.401 161.204 178.402 161.209C178.404 161.225 178.218 161.435 178.439 161.255C178.497 161.208 178.781 160.903 178.772 160.91C178.761 160.92 178.487 161.237 178.471 161.268C178.432 161.339 178.507 161.283 178.467 161.368C178.46 161.384 178.27 161.68 178.215 161.781C178.005 162.178 178.071 162.193 178.591 161.219C178.296 161.807 178.572 161.344 178.573 161.349C178.578 161.365 178.595 161.761 178.68 161.444C178.727 161.244 178.725 160.821 178.736 161.281C178.736 161.288 178.737 161.295 178.737 161.302C178.743 161.4 178.752 161.519 178.768 161.628C178.795 161.913 178.956 162.668 178.873 161.839C178.962 162.116 178.968 162.019 179.207 162.726C179.172 162.566 179.136 162.407 179.098 162.25C179.106 162.251 179.114 162.253 179.122 162.255C179.169 162.408 179.217 162.561 179.266 162.714C179.366 162.77 179.249 162.22 179.308 162.265C179.406 162.338 179.849 162.616 180.099 162.719C180.228 162.779 180.071 162.59 180.445 162.974C180.439 162.942 180.434 162.911 180.428 162.881C180.367 162.795 180.305 162.712 180.243 162.63C180.34 162.622 180.574 162.711 180.671 162.677C180.842 162.611 180.942 162.396 181.247 162.371C181.323 162.364 181.502 162.393 181.542 162.359C181.601 162.311 181.427 162.211 181.512 162.158C181.668 162.078 182.094 161.904 182.181 161.751C182.211 161.709 182.189 161.682 182.21 161.652C182.298 161.53 182.375 161.423 182.447 161.29C182.594 161.151 182.607 161.161 182.651 161.115C182.689 161.081 182.699 160.966 182.685 160.949C182.68 160.938 182.7 160.981 182.694 160.965C182.809 161.156 182.858 161.247 182.861 161.409C182.957 161.72 183.017 162.056 183.033 162.407C182.982 162.421 182.927 162.433 182.87 162.443C182.87 162.443 182.87 162.443 182.87 162.443C182.793 162.543 182.934 162.654 182.966 162.743C183.113 163.157 183.09 163.774 182.823 164.298C182.569 164.831 182.096 165.215 181.767 165.487C181.64 165.607 181.253 166.224 181.023 166.051C180.966 166.006 180.854 165.774 180.821 165.782C180.626 166.089 180.393 166.401 180.117 166.707C179.624 166.604 179.211 166.771 178.737 166.949C178.492 167.04 178.235 167.129 177.975 167.16C175.939 167.452 173.414 166.501 172.302 164.424C172.091 164.043 171.547 163.625 171.601 163.13C171.622 162.922 172.267 162.685 171.711 162.582C171.891 162.538 172.071 162.494 172.251 162.45C171.987 162.316 171.544 162.265 171.462 162.036C171.389 161.848 171.313 161.319 171.384 161.145C171.418 161.053 171.766 161.081 171.764 161.001C171.763 160.985 171.756 160.967 171.744 160.947C171.744 160.947 171.744 160.947 171.744 160.947C171.651 160.801 171.286 160.527 171.303 160.345C171.318 160.157 171.758 159.91 171.725 159.772C171.604 159.276 171.205 158.545 171.589 158.075C171.694 157.947 172.186 157.955 172.194 157.912C172.211 157.823 171.837 157.613 171.819 157.532C171.729 157.112 172.455 156.938 172.655 156.723C173.31 155.985 174.019 155.19 174.939 154.827C175.499 154.582 176.467 154.248 177.064 154.466C177.192 154.51 177.255 154.896 177.342 154.887C177.439 154.876 177.44 154.615 177.484 154.591C177.751 154.43 178.392 154.244 178.737 154.46C178.772 154.481 178.803 154.505 178.831 154.533C178.889 154.591 178.921 154.878 178.953 154.883C178.969 154.886 179.015 154.704 179.069 154.697C179.553 154.636 179.889 154.87 180.287 155.122C181.043 155.582 181.942 156.022 182.329 156.852C182.413 157.031 182.242 157.371 182.258 157.386C182.29 157.425 182.463 157.299 182.553 157.363C182.851 157.588 182.854 158.181 182.989 158.459C183.059 158.598 183.242 158.751 183.27 158.912C183.297 159.042 183.221 159.377 183.263 159.417C183.29 159.442 183.385 159.426 183.387 159.468ZM179.495 159.224C179.715 158.745 179.431 159.16 179.365 159.417C179.349 159.473 179.437 159.347 179.495 159.224ZM176.764 161.39C177.005 161.336 177.245 161.282 177.485 161.228C177.384 161.242 177.283 161.255 177.181 161.265C177.036 161.3 176.892 161.336 176.749 161.374C176.754 161.379 176.759 161.385 176.764 161.39Z" fill="#3E3E3E"/>
<circle cx="203.211" cy="160.947" r="3.94737" fill="#3E3E3E"/>
<path d="M207.86 159.468C207.861 159.506 207.792 159.581 207.778 159.628C207.716 159.829 207.661 159.906 207.593 160.073C207.522 160.334 207.143 160.958 207.158 160.947C207.158 160.947 207.158 160.947 207.158 160.947C207.16 160.945 207.17 160.895 207.165 160.888C207.16 160.881 207.137 160.886 207.093 160.818C207.029 160.719 206.942 160.492 206.919 160.444C206.899 160.411 206.849 160.375 206.816 160.336C206.706 160.213 206.693 160.138 206.479 160.071C206.502 160.016 206.534 159.957 206.573 159.893C206.495 159.851 206.532 159.737 206.502 159.706C206.477 159.681 206.397 159.692 206.37 159.669C206.338 159.643 206.376 159.566 206.317 159.52C206.22 159.444 205.997 159.537 205.914 159.516C205.827 159.496 205.861 159.367 205.707 159.374C205.672 159.385 205.637 159.396 205.602 159.408C205.551 159.449 205.5 159.489 205.449 159.528C205.381 159.532 205.484 159.448 205.451 159.431C205.412 159.413 205.273 159.488 205.245 159.481C205.222 159.475 205.285 159.395 205.25 159.39C205.198 159.383 205.067 159.496 205.017 159.513C204.997 159.516 204.743 159.569 204.732 159.574C204.653 159.58 204.845 159.392 204.806 159.368C204.697 159.298 204.381 159.479 204.196 159.597C204.113 159.647 204.069 159.652 204.047 159.622C204.615 158.878 204.774 158.268 204.116 159.469C204.16 159.309 203.925 159.654 203.908 159.62C203.897 159.596 203.967 159.417 203.917 159.436C203.82 159.462 203.532 160.114 203.901 159.037C203.738 159.258 203.763 158.852 203.473 159.916C203.445 159.999 203.543 159.397 203.531 159.316C203.53 159.247 203.385 159.014 203.35 159.006C203.32 159 203.265 159.002 203.239 159.119C203.228 159.166 203.218 159.332 203.211 159.485C203.19 159.805 203.203 160.083 203.131 159.089C203.075 159.242 203.06 159.213 202.983 159.065C202.969 159.039 202.939 158.811 202.932 158.814C202.917 158.82 202.918 159.001 202.9 159.034C202.873 159.089 202.758 158.614 202.904 159.355C202.909 159.495 202.919 159.635 202.936 159.776C202.898 159.637 202.858 159.497 202.816 159.358C202.845 159.524 202.877 159.689 202.914 159.855C202.633 158.761 202.735 159.458 202.946 160.063C202.864 159.868 202.765 159.672 202.648 159.479C202.179 158.244 202.496 159.409 202.821 160.064C202.819 160.066 202.817 160.069 202.815 160.071C202.648 159.777 202.761 160.067 202.625 159.889C202.481 159.713 202.414 159.595 202.072 159.066C202.078 159.108 202.086 159.149 202.094 159.191C203.025 160.705 201.298 158.183 201.991 159.391C201.264 158.542 201.51 159.119 201.72 159.421C201.743 159.456 201.899 159.615 201.942 159.672C202.047 159.807 201.804 159.662 202.34 160.149C202.18 160.021 202.014 159.898 201.844 159.78C201.935 159.881 202.03 159.979 202.128 160.075C202.305 160.219 202.483 160.362 202.66 160.505C202.05 160.036 202.265 160.264 202.109 160.171C202.076 160.153 201.816 159.97 201.738 159.936C201.644 159.896 201.707 159.981 201.613 159.949C201.909 160.146 202.208 160.339 202.51 160.527C202.676 160.642 201.86 160.182 201.786 160.171C201.773 160.169 201.81 160.267 201.828 160.279C201.963 160.378 202.697 160.71 202.538 160.679C202.509 160.674 202.247 160.58 202.234 160.586C202.209 160.603 202.814 160.842 203.386 160.997C202.681 160.79 202.975 160.896 202.767 160.853C202.702 160.842 202.238 160.75 202.138 160.748C202.055 160.749 202.429 160.836 202.366 160.837C202.297 160.841 201.9 160.806 201.871 160.813C201.844 160.82 202.165 160.856 202.163 160.865C202.151 160.889 201.631 160.905 201.622 160.946C201.622 160.946 201.621 160.947 201.622 160.947C201.622 160.947 201.622 160.947 201.622 160.947C201.627 161.007 202.567 161.007 202.983 160.971C202.921 160.978 202.717 161 202.715 161.004C202.684 161.049 202.503 161.135 202.327 161.293C202.228 161.335 201.158 162.074 203.01 161.049C203.324 160.866 202.576 161.347 202.584 161.391C202.578 161.416 202.874 161.204 202.875 161.209C202.877 161.225 202.692 161.435 202.913 161.255C202.971 161.208 203.255 160.903 203.246 160.91C203.235 160.92 202.961 161.237 202.944 161.268C202.906 161.339 202.981 161.283 202.941 161.368C202.933 161.384 202.743 161.68 202.689 161.781C202.479 162.178 202.544 162.193 203.065 161.219C202.769 161.807 203.046 161.344 203.047 161.349C203.051 161.365 203.069 161.761 203.153 161.444C203.2 161.244 203.198 160.821 203.209 161.281C203.21 161.288 203.21 161.295 203.211 161.302C203.216 161.4 203.225 161.519 203.241 161.628C203.268 161.913 203.43 162.668 203.346 161.839C203.435 162.116 203.442 162.019 203.681 162.726C203.646 162.566 203.61 162.407 203.572 162.25C203.579 162.251 203.587 162.253 203.595 162.255C203.643 162.408 203.691 162.561 203.739 162.714C203.84 162.77 203.722 162.22 203.782 162.265C203.879 162.338 204.323 162.616 204.573 162.719C204.701 162.779 204.545 162.59 204.918 162.974C204.913 162.942 204.907 162.911 204.902 162.881C204.84 162.795 204.779 162.712 204.717 162.63C204.813 162.622 205.047 162.711 205.144 162.677C205.316 162.611 205.416 162.396 205.721 162.371C205.797 162.364 205.976 162.393 206.016 162.359C206.075 162.311 205.9 162.211 205.985 162.158C206.142 162.078 206.567 161.904 206.655 161.751C206.685 161.709 206.663 161.682 206.684 161.652C206.771 161.53 206.849 161.423 206.92 161.29C207.068 161.151 207.081 161.161 207.125 161.115C207.163 161.081 207.173 160.966 207.159 160.949C207.153 160.938 207.174 160.981 207.168 160.965C207.282 161.156 207.332 161.247 207.334 161.409C207.431 161.72 207.491 162.056 207.507 162.407C207.455 162.421 207.401 162.433 207.344 162.443C207.344 162.443 207.344 162.443 207.343 162.443C207.266 162.543 207.407 162.654 207.439 162.743C207.586 163.157 207.563 163.774 207.297 164.298C207.042 164.831 206.57 165.215 206.241 165.487C206.113 165.607 205.726 166.224 205.497 166.051C205.44 166.006 205.328 165.774 205.295 165.782C205.099 166.089 204.866 166.401 204.59 166.707C204.098 166.604 203.685 166.771 203.211 166.949C202.966 167.04 202.709 167.129 202.449 167.16C200.413 167.452 197.887 166.501 196.776 164.424C196.565 164.043 196.021 163.625 196.075 163.13C196.096 162.922 196.741 162.685 196.184 162.582C196.364 162.538 196.544 162.494 196.724 162.45C196.461 162.316 196.017 162.265 195.935 162.036C195.863 161.848 195.786 161.319 195.858 161.145C195.891 161.053 196.24 161.081 196.237 161.001C196.237 160.985 196.229 160.967 196.217 160.947C196.217 160.947 196.217 160.947 196.217 160.947C196.125 160.801 195.759 160.527 195.777 160.345C195.792 160.157 196.231 159.91 196.199 159.772C196.078 159.276 195.679 158.545 196.062 158.075C196.168 157.947 196.659 157.955 196.668 157.912C196.685 157.823 196.311 157.613 196.293 157.532C196.203 157.112 196.929 156.938 197.128 156.723C197.783 155.985 198.493 155.19 199.413 154.827C199.973 154.582 200.94 154.248 201.538 154.466C201.665 154.51 201.728 154.896 201.816 154.887C201.912 154.876 201.913 154.615 201.957 154.591C202.224 154.43 202.866 154.244 203.211 154.46C203.245 154.481 203.277 154.505 203.304 154.533C203.362 154.591 203.395 154.878 203.427 154.883C203.443 154.886 203.488 154.704 203.543 154.697C204.027 154.636 204.363 154.87 204.76 155.122C205.516 155.582 206.416 156.022 206.802 156.852C206.887 157.031 206.716 157.371 206.731 157.386C206.764 157.425 206.937 157.299 207.027 157.363C207.324 157.588 207.327 158.181 207.463 158.459C207.533 158.598 207.716 158.751 207.743 158.912C207.77 159.042 207.695 159.377 207.737 159.417C207.763 159.442 207.859 159.426 207.86 159.468ZM203.969 159.224C204.188 158.745 203.905 159.16 203.839 159.417C203.822 159.473 203.911 159.347 203.969 159.224ZM201.238 161.39C201.478 161.336 201.718 161.282 201.959 161.228C201.858 161.242 201.756 161.255 201.654 161.265C201.51 161.3 201.366 161.336 201.222 161.374C201.228 161.379 201.233 161.385 201.238 161.39Z" fill="#3E3E3E"/>
<path d="M165.428 179.688C166.001 179.409 166.92 179.744 167.438 179.926C167.447 179.929 167.457 179.932 167.466 179.935C167.591 179.979 167.709 180.006 167.845 180.036C168.172 180.108 168.62 180.208 169.526 180.608C169.806 180.646 170.075 180.684 170.352 180.729C173.327 181.203 176.277 181.915 179.243 182.596C179.281 182.598 179.32 182.6 179.359 182.602C180.116 182.636 181.05 182.668 181.626 182.855C182.355 183.093 182.852 183.294 183.257 183.465C185.62 183.927 188.006 184.284 190.349 184.326C190.94 184.337 191.533 184.325 192.103 184.29C192.247 184.281 192.39 184.27 192.534 184.259C193.212 184.204 193.887 184.124 194.559 184.022C194.943 183.891 195.301 183.744 195.633 183.605C196.099 183.409 196.509 183.229 196.856 183.134C197.691 182.909 198.675 182.87 199.41 182.826C199.531 182.819 199.644 182.812 199.749 182.804C200.304 182.631 200.855 182.447 201.402 182.254C201.447 182.276 201.493 182.299 201.54 182.323C202.122 182.621 202.717 182.466 203.641 182.196C204.043 182.078 204.508 181.938 205.063 181.798C205.421 181.708 205.653 181.812 205.844 181.896C205.9 181.921 205.953 181.944 206.004 181.959C206.178 182.014 206.293 181.856 206.426 181.669C206.599 181.426 206.801 181.136 207.222 181.189C208.569 181.354 208.933 180.766 209.192 180.333C209.269 180.205 209.338 180.089 209.422 180.006C209.697 179.738 210.216 179.683 210.648 179.719C210.99 179.749 211.487 179.361 211.822 178.989C211.949 178.848 212.161 178.75 212.411 178.632C212.67 178.51 212.968 178.368 213.248 178.137C213.956 177.554 214.325 177.243 214.623 176.995C214.707 176.924 214.786 176.858 214.864 176.791C215.111 176.58 215.429 176.343 215.747 176.099C216.128 175.808 216.511 175.507 216.777 175.24C217.646 174.853 218.519 174.465 219.386 174.053C219.83 173.842 220.424 173.889 221.057 174.194C221.69 174.499 222.311 175.034 222.782 175.71C223.253 176.385 223.538 177.156 223.568 177.873C223.599 178.589 223.37 179.188 222.949 179.54C222.101 180.246 221.232 180.933 220.331 181.575C219.233 182.357 218.088 183.073 216.884 183.675C216.043 184.095 215.183 184.48 214.311 184.832C214.221 184.868 214.131 184.904 214.041 184.939C213.401 185.444 212.74 185.92 212.246 186.19C211.838 186.413 211.485 186.435 211.184 186.452C210.976 186.464 210.793 186.474 210.63 186.544C210.543 186.582 210.426 186.639 210.285 186.708C209.707 186.988 208.714 187.45 207.709 187.566C207.265 187.618 206.726 187.606 206.216 187.586C205.484 187.56 204.809 187.519 204.514 187.67C203.996 187.934 203.336 188.001 202.756 188.05C202.201 188.098 201.719 188.131 201.481 188.325C201.198 188.555 200.91 188.549 200.484 188.536C200.189 188.527 199.828 188.514 199.352 188.569C198.802 188.632 198.398 188.585 198.056 188.543C197.575 188.483 197.215 188.435 196.728 188.698C196.184 188.99 195.597 189.201 195.112 189.191C194.892 189.186 194.645 189.221 194.387 189.256C194.046 189.302 193.687 189.347 193.351 189.301C193.074 189.262 192.838 189.121 192.63 188.995C192.565 188.956 192.503 188.918 192.443 188.885C192.442 188.885 192.441 188.885 192.439 188.886C192.227 188.903 192.013 188.92 191.796 188.937C191.763 188.965 191.727 188.996 191.69 189.027C191.501 189.185 191.272 189.378 190.981 189.48C190.517 189.642 190.101 189.564 189.671 189.476C189.332 189.408 188.985 189.334 188.589 189.362C188.319 189.381 188.004 189.444 187.703 189.506C187.251 189.596 186.793 189.681 186.489 189.612C186.374 189.586 186.277 189.483 186.181 189.38C186.181 189.379 186.18 189.379 186.18 189.378C186.173 189.371 186.167 189.364 186.16 189.357C185.4 189.41 184.646 189.461 183.893 189.509C183.827 189.531 183.76 189.552 183.693 189.574C183.367 189.678 183.049 189.777 182.837 189.933C182.609 190.101 182.045 190.17 181.459 190.238C181.075 190.282 180.673 190.326 180.346 190.4C180.153 190.443 179.985 190.324 179.811 190.202C179.65 190.088 179.485 189.97 179.292 189.977C179.195 189.981 179.088 190.014 178.973 190.049C178.873 190.08 178.766 190.113 178.656 190.128C178.554 190.143 178.338 190.065 178.061 189.965C177.889 189.903 177.695 189.832 177.49 189.769C176.932 189.775 176.371 189.774 175.813 189.767C175.688 189.843 175.574 189.949 175.477 190.089C175.407 190.19 175.343 190.313 175.278 190.438C175.188 190.609 175.096 190.786 174.98 190.921C174.891 191.027 174.795 191.062 174.741 191.007C174.716 190.981 174.7 190.937 174.685 190.896C174.668 190.85 174.653 190.809 174.629 190.807C174.611 190.806 174.589 190.834 174.562 190.869C174.519 190.924 174.463 190.995 174.391 190.989C174.128 190.966 173.828 190.903 173.538 190.841C173.215 190.771 172.904 190.702 172.644 190.69C172.354 190.677 171.967 190.507 171.578 190.335C171.305 190.215 171.034 190.095 170.797 190.027C170.567 189.96 170.308 189.986 170.058 190.011C169.758 190.041 169.474 190.07 169.254 189.933C169.21 189.905 169.169 189.772 169.12 189.605C169.084 189.487 169.044 189.353 168.993 189.226C168.693 189.178 168.405 189.126 168.104 189.067C168.09 189.081 168.077 189.097 168.063 189.112C168.063 189.113 168.062 189.113 168.062 189.113C167.749 189.465 167.325 189.946 166.907 189.544C166.8 189.442 166.75 189.278 166.706 189.131C166.662 188.987 166.623 188.857 166.541 188.817C166.447 188.771 166.316 188.832 166.175 188.898C165.979 188.992 165.744 189.093 165.567 188.927C165.555 188.915 165.542 188.903 165.529 188.89C165.399 188.771 165.212 188.596 165.052 188.282C164.423 188.088 163.803 187.878 163.197 187.657C162.165 187.282 161.143 186.873 160.113 186.428C159.608 186.21 159.185 185.702 158.997 185.014C158.777 184.315 158.838 183.511 159.089 182.744C159.342 181.976 159.742 181.287 160.235 180.799C160.703 180.304 161.227 180.054 161.709 180.083C162.498 180.134 163.282 180.164 164.091 180.201C164.134 180.193 164.178 180.186 164.222 180.18C164.549 180.133 164.88 179.969 165.202 179.802C165.277 179.763 165.352 179.725 165.428 179.688Z" fill="#3E3E3E"/>
<path d="M227.167 101.248L221.4 111.771M215.383 95.7016L213.8 107.606M238.183 108.197L229.001 115.936" stroke="#3E3E3E" stroke-width="3"/>
</g>
<defs>
<clipPath id="clip0_431_117">
<rect width="390" height="597" fill="white"/>
</clipPath>
</defs>
</svg>
