<svg width="1209" height="466" viewBox="0 0 1209 466" fill="none" xmlns="http://www.w3.org/2000/svg">
<circle cx="295" cy="247" r="217" fill="#D9D9D9"/>
<path d="M703.605 364.387C703.605 350.683 706.22 337.7 711.449 325.438C716.678 313.177 723.891 302.358 733.087 292.982C742.463 283.425 753.282 275.942 765.544 270.532C777.805 265.123 790.968 262.418 805.033 262.418C818.917 262.418 831.99 265.123 844.252 270.532C856.513 275.942 867.332 283.425 876.709 292.982C886.266 302.358 893.659 313.177 898.888 325.438C904.297 337.7 907.002 350.683 907.002 364.387C907.002 378.451 904.297 391.615 898.888 403.876C893.659 416.138 886.266 426.957 876.709 436.333C867.332 445.529 856.513 452.742 844.252 457.971C831.99 463.2 818.917 465.815 805.033 465.815C790.968 465.815 777.805 463.2 765.544 457.971C753.282 452.742 742.463 445.529 733.087 436.333C723.891 426.957 716.678 416.138 711.449 403.876C706.22 391.615 703.605 378.451 703.605 364.387ZM744.176 364.387C744.176 373.222 745.709 381.517 748.774 389.27C752.02 396.844 756.438 403.606 762.028 409.556C767.798 415.326 774.379 419.834 781.772 423.08C789.346 426.325 797.55 427.948 806.386 427.948C814.86 427.948 822.704 426.325 829.917 423.08C837.31 419.834 843.711 415.326 849.12 409.556C854.53 403.606 858.767 396.844 861.833 389.27C864.898 381.517 866.431 373.222 866.431 364.387C866.431 355.371 864.808 346.986 861.562 339.233C858.497 331.479 854.169 324.717 848.58 318.947C843.17 312.997 836.769 308.399 829.376 305.153C821.983 301.907 813.959 300.284 805.304 300.284C796.648 300.284 788.624 301.907 781.231 305.153C773.838 308.399 767.347 312.997 761.757 318.947C756.167 324.717 751.84 331.479 748.774 339.233C745.709 346.986 744.176 355.371 744.176 364.387Z" fill="#577EB5"/>
<path d="M606.403 264.581H645.622V463.65H606.403V264.581Z" fill="#577EB5"/>
<path d="M412 264.581H451.219V425.784H544.803V463.65H412V264.581Z" fill="#577EB5"/>
<path d="M635.793 29.9805H769.949V67.8469H721.534V229.05H682.315V67.8469H635.793V29.9805Z" fill="#577EB5"/>
<path d="M504.932 29.9805C517.374 29.9805 528.463 31.6033 538.2 34.849C547.937 37.9144 556.052 42.4223 562.543 48.3727C569.215 54.1429 574.264 61.1752 577.69 69.4697C581.116 77.584 582.829 86.7801 582.829 97.0581C582.829 105.172 581.566 113.287 579.042 121.401C576.698 129.515 572.731 136.908 567.141 143.58C561.732 150.251 554.519 155.661 545.503 159.808C536.487 163.775 525.308 165.759 511.964 165.759H483.835V229.05H444.616V29.9805H504.932ZM511.694 127.892C517.644 127.892 522.603 126.9 526.57 124.917C530.537 122.934 533.602 120.409 535.766 117.344C538.11 114.278 539.733 111.123 540.635 107.877C541.716 104.451 542.257 101.296 542.257 98.4105C542.257 96.2467 541.897 93.542 541.176 90.2963C540.635 86.8703 539.372 83.4443 537.389 80.0182C535.405 76.5922 532.34 73.7072 528.193 71.3631C524.226 69.0189 518.816 67.8469 511.964 67.8469H483.835V127.892H511.694ZM548.478 152.235L597.705 229.05H551.995L501.686 153.317L548.478 152.235Z" fill="#577EB5"/>
<path d="M0 264.581H124.418V302.447H39.2188V347.617H124.418V385.483H39.2188V463.65H0V264.581Z" fill="#577EB5"/>
<path d="M60.3158 29.9805C76.7246 29.9805 90.6089 32.7754 101.969 38.3652C113.329 43.7747 121.984 51.5283 127.934 61.626C133.885 71.5434 136.86 83.3541 136.86 97.0581C136.86 105.172 135.598 113.377 133.073 121.671C130.729 129.786 126.852 137.178 121.443 143.85C116.214 150.522 109.091 155.931 100.076 160.079C91.24 164.046 80.3309 166.029 67.3481 166.029H39.2188V229.05H0V29.9805H60.3158ZM67.0776 127.892C73.0281 127.892 77.9868 126.9 81.9537 124.917C85.9207 122.753 88.9861 120.139 91.1499 117.073C93.494 113.828 95.1168 110.492 96.0184 107.066C97.1003 103.64 97.6413 100.664 97.6413 98.14C97.6413 96.1565 97.2806 93.5419 96.5594 90.2963C96.0184 86.8703 94.7562 83.4442 92.7727 80.0182C90.7892 76.5922 87.7239 73.7072 83.5766 71.3631C79.6096 69.0189 74.2001 67.8469 67.3481 67.8469H39.2188V127.892H67.0776Z" fill="#577EB5"/>
<path d="M295 0V12M282 0.8L286.333 12M308 0.8L303.667 12" stroke="#3E3E3E" stroke-width="3"/>
<path d="M855.529 153.708C853.947 153.435 852.517 153.769 851.238 154.709C849.96 155.648 849.183 156.92 848.906 158.524C848.629 160.128 848.935 161.587 849.824 162.901C850.717 164.193 851.954 164.976 853.536 165.249C855.119 165.522 856.547 165.2 857.821 164.282C859.099 163.342 859.877 162.07 860.154 160.466C860.431 158.862 860.125 157.403 859.236 156.089C858.347 154.775 857.111 153.982 855.529 153.708ZM853.11 167.72C850.726 167.308 848.867 166.184 847.532 164.346C846.202 162.487 845.738 160.388 846.143 158.047C846.547 155.706 847.685 153.894 849.559 152.611C851.435 151.306 853.566 150.859 855.95 151.27C858.334 151.682 860.191 152.817 861.522 154.676C862.856 156.514 863.321 158.602 862.917 160.943C862.513 163.284 861.364 165.094 859.469 166.374C857.57 167.675 855.45 168.124 853.11 167.72ZM877.998 165.555C877.683 167.376 876.86 168.785 875.527 169.782C874.194 170.78 872.748 171.144 871.187 170.874C869.649 170.609 868.388 169.699 867.407 168.146L866.329 174.388L863.793 173.95L866.645 157.435L869.18 157.873L868.815 159.986C870.1 158.623 871.544 158.08 873.148 158.357C874.816 158.645 876.115 159.461 877.044 160.804C877.994 162.151 878.312 163.735 877.998 165.555ZM870.995 168.498C872.035 168.677 872.977 168.46 873.819 167.847C874.687 167.216 875.22 166.326 875.418 165.177C875.617 164.028 875.413 163.011 874.807 162.126C874.223 161.243 873.421 160.715 872.403 160.539C871.384 160.363 870.461 160.605 869.632 161.266C868.808 161.904 868.298 162.787 868.104 163.914C867.905 165.063 868.088 166.076 868.65 166.955C869.216 167.811 869.998 168.326 870.995 168.498ZM891.932 169.166L882.439 167.528C882.355 168.406 882.634 169.179 883.277 169.848C883.921 170.517 884.73 170.936 885.705 171.104C887.244 171.37 888.475 171.092 889.398 170.269L890.586 172.114C889.05 173.255 887.231 173.644 885.128 173.281C883.395 172.982 882.042 172.157 881.07 170.806C880.098 169.456 879.775 167.837 880.1 165.952C880.418 164.11 881.272 162.717 882.663 161.774C884.053 160.832 885.593 160.506 887.284 160.798C888.974 161.09 890.295 161.842 891.246 163.056C892.197 164.269 892.527 165.721 892.235 167.411L891.932 169.166ZM889.744 166.713C889.913 165.738 889.731 164.914 889.2 164.242C888.69 163.574 887.948 163.156 886.973 162.987C885.997 162.819 885.091 162.964 884.253 163.422C883.437 163.883 882.948 164.58 882.787 165.512L889.744 166.713ZM896.439 175.033L893.904 174.596L895.992 162.502L898.527 162.94L898.151 165.118C898.69 164.452 899.353 163.975 900.139 163.687C900.951 163.381 901.769 163.299 902.592 163.441C904.001 163.684 905.044 164.3 905.722 165.287C906.399 166.274 906.603 167.548 906.334 169.109L905.054 176.521L902.486 176.077L903.631 169.446C904.016 167.213 903.288 165.938 901.446 165.62C900.514 165.459 899.681 165.628 898.948 166.126C898.219 166.603 897.76 167.383 897.573 168.467L896.439 175.033ZM919.699 168.705L918.638 174.849C918.537 175.434 918.609 175.926 918.852 176.325C919.121 176.706 919.526 176.944 920.068 177.037C920.567 177.123 921.134 176.942 921.769 176.494L922.495 178.494C921.446 179.139 920.391 179.369 919.329 179.186C918.224 178.995 917.357 178.455 916.73 177.566C916.106 176.654 915.901 175.581 916.114 174.346L917.163 168.267L915.635 168.003L915.989 165.955L917.517 166.219L918.174 162.415L920.709 162.853L920.053 166.657L923.239 167.207L922.885 169.255L919.699 168.705ZM930.278 178.733C931.383 178.924 932.357 178.713 933.199 178.099C934.063 177.49 934.596 176.6 934.798 175.429C935 174.259 934.797 173.242 934.187 172.378C933.599 171.517 932.752 170.992 931.647 170.801C930.542 170.61 929.568 170.821 928.726 171.435C927.883 172.048 927.361 172.94 927.159 174.11C926.957 175.281 927.152 176.285 927.743 177.124C928.328 178.006 929.172 178.542 930.278 178.733ZM929.885 181.009C928.064 180.694 926.65 179.836 925.642 178.435C924.638 177.012 924.288 175.422 924.591 173.667C924.894 171.911 925.755 170.542 927.174 169.56C928.598 168.556 930.219 168.211 932.04 168.525C933.86 168.84 935.273 169.708 936.277 171.132C937.285 172.533 937.637 174.112 937.334 175.867C937.042 177.557 936.181 178.926 934.75 179.974C933.327 180.978 931.705 181.323 929.885 181.009ZM960.456 169.715L963.121 170.176L960.377 186.072L957.483 185.573L950.482 172.412L948.479 184.018L945.78 183.552L948.525 167.655L951.223 168.121L958.407 181.581L960.456 169.715ZM976.555 183.777L967.062 182.138C966.978 183.016 967.257 183.79 967.9 184.459C968.544 185.128 969.353 185.546 970.328 185.715C971.867 185.98 973.098 185.702 974.021 184.879L975.209 186.725C973.673 187.866 971.854 188.255 969.751 187.892C968.018 187.592 966.665 186.767 965.693 185.417C964.721 184.066 964.398 182.448 964.723 180.562C965.041 178.72 965.895 177.328 967.286 176.385C968.676 175.442 970.216 175.117 971.907 175.408C973.597 175.7 974.918 176.453 975.869 177.666C976.82 178.879 977.15 180.331 976.858 182.021L976.555 183.777ZM974.367 181.324C974.536 180.348 974.354 179.525 973.823 178.853C973.313 178.184 972.571 177.766 971.596 177.598C970.62 177.429 969.714 177.574 968.876 178.032C968.06 178.494 967.571 179.19 967.41 180.122L974.367 181.324ZM984.183 190.183L981.257 189.677L979.184 176.866L981.817 177.32L983.231 186.972L987.832 178.359L990.465 178.813L991.878 188.465L996.479 179.852L999.112 180.306L992.831 191.676L989.905 191.17L988.475 182.387L984.183 190.183ZM1015.63 181.35C1014.05 181.077 1012.62 181.41 1011.34 182.35C1010.06 183.29 1009.28 184.562 1009.01 186.166C1008.73 187.77 1009.04 189.228 1009.92 190.543C1010.82 191.835 1012.05 192.618 1013.64 192.891C1015.22 193.164 1016.65 192.841 1017.92 191.923C1019.2 190.983 1019.98 189.712 1020.25 188.108C1020.53 186.504 1020.22 185.045 1019.34 183.731C1018.45 182.417 1017.21 181.623 1015.63 181.35ZM1013.21 195.361C1010.83 194.95 1008.97 193.825 1007.63 191.988C1006.3 190.129 1005.84 188.029 1006.24 185.689C1006.65 183.348 1007.79 181.536 1009.66 180.252C1011.54 178.947 1013.67 178.5 1016.05 178.912C1018.43 179.324 1020.29 180.459 1021.62 182.318C1022.96 184.155 1023.42 186.244 1023.02 188.585C1022.61 190.925 1021.46 192.736 1019.57 194.015C1017.67 195.317 1015.55 195.766 1013.21 195.361ZM1038.1 193.197C1037.78 195.018 1036.96 196.427 1035.63 197.424C1034.29 198.421 1032.85 198.785 1031.29 198.516C1029.75 198.25 1028.49 197.341 1027.51 195.788L1026.43 202.029L1023.89 201.592L1026.74 185.077L1029.28 185.515L1028.92 187.628C1030.2 186.265 1031.64 185.722 1033.25 185.999C1034.92 186.287 1036.22 187.103 1037.14 188.446C1038.09 189.793 1038.41 191.377 1038.1 193.197ZM1031.1 196.139C1032.14 196.319 1033.08 196.102 1033.92 195.489C1034.79 194.857 1035.32 193.967 1035.52 192.819C1035.72 191.67 1035.51 190.653 1034.91 189.767C1034.32 188.885 1033.52 188.356 1032.5 188.18C1031.48 188.005 1030.56 188.247 1029.73 188.907C1028.91 189.546 1028.4 190.429 1028.2 191.556C1028.01 192.705 1028.19 193.718 1028.75 194.596C1029.32 195.453 1030.1 195.967 1031.1 196.139ZM1053.37 195.834C1053.06 197.655 1052.23 199.064 1050.9 200.061C1049.57 201.059 1048.12 201.423 1046.56 201.153C1045.02 200.888 1043.76 199.978 1042.78 198.425L1041.7 204.667L1039.17 204.229L1042.02 187.714L1044.55 188.152L1044.19 190.265C1045.47 188.902 1046.92 188.359 1048.52 188.636C1050.19 188.924 1051.49 189.74 1052.42 191.083C1053.37 192.43 1053.69 194.014 1053.37 195.834ZM1046.37 198.777C1047.41 198.956 1048.35 198.739 1049.19 198.126C1050.06 197.495 1050.59 196.605 1050.79 195.456C1050.99 194.307 1050.79 193.29 1050.18 192.404C1049.6 191.522 1048.8 190.993 1047.78 190.818C1046.76 190.642 1045.83 190.884 1045.01 191.544C1044.18 192.183 1043.67 193.066 1043.48 194.193C1043.28 195.342 1043.46 196.355 1044.02 197.233C1044.59 198.09 1045.37 198.604 1046.37 198.777ZM1061.12 201.324C1062.23 201.515 1063.2 201.303 1064.04 200.69C1064.91 200.08 1065.44 199.19 1065.64 198.02C1065.85 196.85 1065.64 195.833 1065.03 194.968C1064.44 194.108 1063.6 193.583 1062.49 193.392C1061.39 193.201 1060.41 193.412 1059.57 194.026C1058.73 194.639 1058.21 195.531 1058 196.701C1057.8 197.871 1058 198.876 1058.59 199.715C1059.17 200.597 1060.02 201.133 1061.12 201.324ZM1060.73 203.599C1058.91 203.285 1057.5 202.427 1056.49 201.026C1055.48 199.602 1055.13 198.013 1055.44 196.258C1055.74 194.502 1056.6 193.133 1058.02 192.151C1059.44 191.147 1061.06 190.802 1062.89 191.116C1064.71 191.43 1066.12 192.299 1067.12 193.722C1068.13 195.124 1068.48 196.702 1068.18 198.458C1067.89 200.148 1067.03 201.517 1065.6 202.565C1064.17 203.569 1062.55 203.914 1060.73 203.599ZM1073.45 200.238L1072.55 205.44L1070.02 205.002L1072.1 192.909L1074.64 193.347L1074.23 195.752C1074.77 195.065 1075.43 194.542 1076.2 194.185C1077 193.832 1077.79 193.712 1078.58 193.825L1078.16 196.399L1078.03 196.376C1076.8 196.163 1075.79 196.401 1075 197.091C1074.21 197.781 1073.69 198.83 1073.45 200.238ZM1083.89 197.053L1082.83 203.198C1082.73 203.783 1082.8 204.275 1083.05 204.674C1083.32 205.055 1083.72 205.293 1084.26 205.386C1084.76 205.472 1085.33 205.291 1085.96 204.843L1086.69 206.843C1085.64 207.488 1084.59 207.718 1083.52 207.535C1082.42 207.344 1081.55 206.804 1080.93 205.915C1080.3 205.003 1080.1 203.93 1080.31 202.695L1081.36 196.616L1079.83 196.352L1080.18 194.304L1081.71 194.568L1082.37 190.764L1084.91 191.202L1084.25 195.005L1087.43 195.555L1087.08 197.603L1083.89 197.053ZM1099.1 197.569L1101.66 198.012L1099.58 210.105L1097.01 209.662L1097.39 207.451C1096.85 208.117 1096.17 208.603 1095.36 208.909C1094.57 209.219 1093.77 209.303 1092.94 209.161C1091.56 208.922 1090.52 208.308 1089.85 207.321C1089.17 206.333 1088.96 205.059 1089.23 203.499L1090.51 196.087L1093.05 196.525L1091.9 203.157C1091.52 205.389 1092.25 206.664 1094.09 206.982C1095.02 207.143 1095.85 206.974 1096.59 206.476C1097.32 205.978 1097.78 205.187 1097.97 204.103L1099.1 197.569ZM1105.78 211.177L1103.24 210.739L1105.33 198.646L1107.87 199.083L1107.49 201.261C1108.03 200.596 1108.69 200.119 1109.48 199.83C1110.29 199.524 1111.11 199.442 1111.93 199.584C1113.34 199.827 1114.38 200.443 1115.06 201.43C1115.74 202.418 1115.94 203.692 1115.67 205.252L1114.39 212.664L1111.83 212.221L1112.97 205.589C1113.36 203.356 1112.63 202.081 1110.79 201.763C1109.85 201.602 1109.02 201.771 1108.29 202.269C1107.56 202.746 1107.1 203.526 1106.91 204.61L1105.78 211.177ZM1120.47 213.713L1117.93 213.275L1120.02 201.182L1122.56 201.619L1120.47 213.713ZM1120.31 197.55C1120.39 197.116 1120.6 196.774 1120.96 196.523C1121.34 196.254 1121.76 196.159 1122.21 196.237C1122.65 196.312 1122.99 196.538 1123.23 196.916C1123.51 197.275 1123.61 197.672 1123.53 198.105C1123.45 198.56 1123.22 198.922 1122.84 199.191C1122.49 199.442 1122.09 199.53 1121.66 199.456C1121.2 199.377 1120.85 199.149 1120.6 198.771C1120.33 198.412 1120.23 198.005 1120.31 197.55ZM1129.04 204.848L1127.98 210.992C1127.88 211.577 1127.95 212.069 1128.19 212.468C1128.46 212.85 1128.87 213.087 1129.41 213.181C1129.91 213.267 1130.47 213.085 1131.11 212.637L1131.84 214.637C1130.79 215.282 1129.73 215.513 1128.67 215.329C1127.56 215.139 1126.7 214.598 1126.07 213.709C1125.45 212.798 1125.24 211.724 1125.45 210.489L1126.5 204.41L1124.98 204.146L1125.33 202.098L1126.86 202.362L1127.51 198.558L1130.05 198.996L1129.39 202.8L1132.58 203.35L1132.23 205.398L1129.04 204.848ZM1136.24 216.435L1133.7 215.997L1135.79 203.904L1138.32 204.342L1136.24 216.435ZM1136.08 200.272C1136.15 199.838 1136.37 199.496 1136.73 199.245C1137.11 198.976 1137.53 198.881 1137.98 198.959C1138.41 199.034 1138.75 199.26 1139 199.638C1139.27 199.997 1139.37 200.394 1139.3 200.827C1139.22 201.282 1138.99 201.644 1138.61 201.913C1138.25 202.164 1137.86 202.253 1137.42 202.178C1136.97 202.099 1136.62 201.871 1136.37 201.494C1136.1 201.134 1136 200.727 1136.08 200.272ZM1152.05 214.077L1142.56 212.438C1142.47 213.316 1142.75 214.09 1143.4 214.759C1144.04 215.428 1144.85 215.847 1145.83 216.015C1147.36 216.281 1148.6 216.002 1149.52 215.179L1150.71 217.025C1149.17 218.166 1147.35 218.555 1145.25 218.192C1143.51 217.892 1142.16 217.067 1141.19 215.717C1140.22 214.366 1139.89 212.748 1140.22 210.862C1140.54 209.02 1141.39 207.628 1142.78 206.685C1144.17 205.742 1145.71 205.417 1147.4 205.708C1149.09 206 1150.42 206.753 1151.37 207.966C1152.32 209.179 1152.65 210.631 1152.36 212.322L1152.05 214.077ZM1149.86 211.624C1150.03 210.648 1149.85 209.825 1149.32 209.153C1148.81 208.485 1148.07 208.066 1147.09 207.898C1146.12 207.729 1145.21 207.874 1144.37 208.332C1143.56 208.794 1143.07 209.491 1142.91 210.423L1149.86 211.624ZM1158.15 220.42C1156.2 220.083 1154.55 219.173 1153.2 217.69L1154.78 215.92C1155.98 217.221 1157.25 217.988 1158.6 218.22C1159.16 218.317 1159.63 218.264 1160 218.06C1160.39 217.838 1160.63 217.521 1160.7 217.11C1160.8 216.503 1160.09 215.823 1158.57 215.069C1158.53 215.04 1158.48 215.009 1158.42 214.976C1158.38 214.947 1158.35 214.93 1158.33 214.927C1155.93 213.821 1154.87 212.466 1155.15 210.862C1155.34 209.735 1155.92 208.909 1156.88 208.383C1157.86 207.861 1159.06 207.721 1160.47 207.964C1161.86 208.204 1163.11 208.844 1164.22 209.884L1162.95 211.607C1162.09 210.789 1161.07 210.278 1159.9 210.076C1158.54 209.84 1157.78 210.156 1157.63 211.023C1157.57 211.391 1157.65 211.685 1157.88 211.903C1158.14 212.103 1158.57 212.334 1159.17 212.594C1160.08 213.019 1160.83 213.417 1161.44 213.789C1161.84 214.059 1162.18 214.331 1162.47 214.603C1163.2 215.309 1163.46 216.236 1163.26 217.385C1163.07 218.512 1162.49 219.36 1161.52 219.929C1160.57 220.481 1159.45 220.644 1158.15 220.42Z" fill="#577EB5"/>
<rect x="813.714" y="120.128" width="396.14" height="64.7317" transform="rotate(9.79571 813.714 120.128)" stroke="#577EB5"/>
<rect x="810.769" y="115.578" width="7" height="7" transform="rotate(9.79571 810.769 115.578)" fill="white" stroke="#577EB5"/>
<rect x="1201.3" y="184.146" width="7" height="7" transform="rotate(9.79571 1201.3 184.146)" fill="white" stroke="#577EB5"/>
<rect x="1190.12" y="247.919" width="7" height="7" transform="rotate(9.79571 1190.12 247.919)" fill="white" stroke="#577EB5"/>
<rect x="799.769" y="179.578" width="7" height="7" transform="rotate(9.79571 799.769 179.578)" fill="white" stroke="#577EB5"/>
<circle cx="275" cy="120" r="5" fill="#3E3E3E"/>
<path d="M280.919 118.117C280.92 118.166 280.829 118.261 280.811 118.322C280.729 118.577 280.658 118.676 280.568 118.889C280.474 119.222 279.981 120.014 280 120C280 120 280 120 280 120C280.003 119.997 280.016 119.934 280.01 119.925C280.003 119.916 279.972 119.922 279.916 119.836C279.833 119.711 279.721 119.424 279.691 119.364C279.665 119.322 279.6 119.277 279.557 119.228C279.415 119.073 279.399 118.978 279.122 118.895C279.153 118.825 279.194 118.75 279.246 118.669C279.145 118.617 279.194 118.472 279.156 118.432C279.123 118.401 279.02 118.417 278.985 118.387C278.945 118.355 278.994 118.257 278.919 118.199C278.795 118.105 278.505 118.226 278.399 118.2C278.286 118.177 278.332 118.012 278.134 118.024C278.089 118.039 278.044 118.054 277.998 118.07C277.931 118.123 277.865 118.175 277.799 118.226C277.712 118.232 277.846 118.123 277.804 118.103C277.754 118.08 277.574 118.179 277.538 118.17C277.508 118.163 277.592 118.06 277.546 118.055C277.48 118.048 277.31 118.194 277.245 118.217C277.22 118.221 276.894 118.296 276.881 118.303C276.779 118.314 277.03 118.069 276.981 118.039C276.844 117.954 276.438 118.193 276.204 118.351C276.098 118.418 276.043 118.425 276.016 118.388C276.752 117.419 276.967 116.631 276.108 118.191C276.168 117.984 275.864 118.434 275.845 118.391C275.832 118.36 275.924 118.129 275.862 118.155C275.741 118.19 275.371 119.04 275.853 117.64C275.647 117.93 275.684 117.404 275.309 118.787C275.273 118.896 275.405 118.114 275.392 118.008C275.392 117.919 275.215 117.618 275.172 117.607C275.135 117.6 275.067 117.602 275.035 117.755C275.022 117.816 275.009 118.031 275 118.231C274.975 118.646 274.993 119.008 274.903 117.715C274.833 117.914 274.816 117.877 274.72 117.684C274.702 117.649 274.663 117.353 274.655 117.357C274.637 117.365 274.639 117.599 274.618 117.643C274.584 117.714 274.437 117.095 274.626 118.06C274.634 118.24 274.649 118.422 274.672 118.605C274.624 118.424 274.572 118.243 274.518 118.062C274.557 118.277 274.6 118.492 274.649 118.707C274.282 117.285 274.422 118.189 274.694 118.976C274.591 118.722 274.465 118.467 274.316 118.214C273.706 116.609 274.125 118.12 274.546 118.972C274.544 118.975 274.542 118.978 274.54 118.981C274.326 118.597 274.475 118.973 274.303 118.739C274.119 118.509 274.031 118.355 273.588 117.666C273.597 117.72 273.607 117.774 273.619 117.828C274.833 119.793 272.588 116.515 273.496 118.08C272.553 116.975 272.878 117.72 273.154 118.109C273.184 118.156 273.387 118.362 273.443 118.436C273.581 118.61 273.269 118.418 273.965 119.052C273.758 118.884 273.544 118.723 273.323 118.567C273.443 118.698 273.567 118.825 273.695 118.949C273.925 119.135 274.156 119.322 274.387 119.508C273.595 118.896 273.877 119.189 273.675 119.067C273.633 119.043 273.295 118.805 273.194 118.76C273.072 118.706 273.156 118.815 273.034 118.772C273.419 119.027 273.809 119.277 274.202 119.522C274.419 119.668 273.359 119.07 273.264 119.054C273.247 119.051 273.298 119.173 273.321 119.188C273.497 119.315 274.451 119.747 274.248 119.7C274.211 119.692 273.87 119.569 273.854 119.576C273.823 119.596 274.611 119.9 275.355 120.102C274.438 119.83 274.822 119.961 274.552 119.904C274.469 119.889 273.865 119.769 273.735 119.764C273.628 119.764 274.114 119.874 274.032 119.873C273.943 119.876 273.427 119.83 273.389 119.839C273.355 119.847 273.772 119.892 273.769 119.902C273.754 119.93 273.079 119.948 273.066 119.998C273.066 119.999 273.066 119.999 273.066 120C273.073 120.074 274.295 120.07 274.835 120.02C274.754 120.027 274.489 120.055 274.487 120.06C274.445 120.106 274.207 120.206 273.974 120.401C273.843 120.451 272.446 121.4 274.856 120.071C275.263 119.831 274.284 120.445 274.293 120.5C274.283 120.531 274.667 120.254 274.667 120.259C274.666 120.275 274.423 120.545 274.705 120.305C274.778 120.243 275.147 119.845 275.134 119.853C275.118 119.865 274.761 120.277 274.738 120.316C274.685 120.406 274.777 120.328 274.721 120.436C274.711 120.457 274.463 120.842 274.392 120.973C274.116 121.486 274.196 121.503 274.874 120.238C274.485 120.999 274.84 120.395 274.837 120.4C274.834 120.417 274.838 120.928 274.94 120.514C274.995 120.254 274.993 119.704 274.999 120.303C274.999 120.311 275 120.32 275 120.329C275.006 120.456 275.016 120.611 275.034 120.754C275.064 121.124 275.269 122.105 275.157 121.029C275.267 121.39 275.271 121.264 275.578 122.185C275.532 121.977 275.484 121.77 275.434 121.566C275.444 121.568 275.453 121.571 275.463 121.573C275.524 121.773 275.587 121.972 275.65 122.17C275.776 122.244 275.617 121.532 275.69 121.592C275.81 121.689 276.371 122.06 276.691 122.199C276.855 122.279 276.652 122.034 277.135 122.534C277.128 122.493 277.12 122.453 277.112 122.414C277.032 122.304 276.951 122.195 276.871 122.089C276.992 122.082 277.293 122.202 277.416 122.161C277.633 122.081 277.756 121.811 278.149 121.785C278.247 121.778 278.478 121.818 278.529 121.776C278.605 121.715 278.378 121.586 278.487 121.521C278.688 121.423 279.237 121.208 279.35 121.015C279.388 120.962 279.359 120.927 279.386 120.89C279.499 120.736 279.599 120.601 279.692 120.433C279.883 120.258 279.9 120.27 279.957 120.213C280.007 120.169 280.019 120.023 280.001 120.002C279.994 119.988 280.021 120.042 280.013 120.022C280.162 120.265 280.227 120.38 280.23 120.586C280.356 120.981 280.436 121.408 280.46 121.855C280.394 121.873 280.323 121.888 280.249 121.9C280.249 121.9 280.249 121.9 280.249 121.899C280.15 122.026 280.334 122.169 280.376 122.283C280.571 122.812 280.548 123.602 280.211 124.272C279.889 124.954 279.285 125.444 278.866 125.793C278.704 125.945 278.214 126.741 277.918 126.514C277.845 126.456 277.7 126.154 277.658 126.164C277.41 126.561 277.114 126.964 276.763 127.36C276.132 127.224 275.606 127.439 275 127.671C274.687 127.789 274.359 127.904 274.026 127.946C271.421 128.33 268.176 127.121 266.75 124.457C266.48 123.969 265.777 123.435 265.849 122.798C265.878 122.532 266.716 122.225 265.994 122.095C266.228 122.038 266.462 121.98 266.696 121.923C266.355 121.753 265.778 121.689 265.672 121.396C265.579 121.155 265.48 120.477 265.573 120.253C265.616 120.136 266.07 120.171 266.066 120.069C266.065 120.048 266.056 120.025 266.041 120C266.041 120 266.041 120 266.041 120C265.921 119.812 265.445 119.462 265.467 119.227C265.486 118.987 266.057 118.671 266.015 118.494C265.855 117.857 265.335 116.917 265.829 116.316C265.966 116.151 266.603 116.165 266.614 116.11C266.635 115.996 266.149 115.722 266.125 115.618C266.006 115.077 266.945 114.858 267.201 114.583C268.043 113.639 268.952 112.617 270.133 112.155C270.851 111.843 272.092 111.416 272.859 111.702C273.022 111.759 273.104 112.261 273.217 112.249C273.34 112.236 273.34 111.896 273.396 111.866C273.738 111.658 274.559 111.417 275 111.698C275.044 111.725 275.085 111.757 275.12 111.793C275.194 111.869 275.235 112.241 275.277 112.247C275.297 112.251 275.355 112.015 275.425 112.006C276.044 111.926 276.473 112.229 276.981 112.554C277.945 113.147 279.095 113.709 279.582 114.775C279.689 115.004 279.465 115.445 279.485 115.464C279.526 115.513 279.75 115.35 279.865 115.431C280.246 115.716 280.243 116.477 280.414 116.831C280.503 117.009 280.738 117.203 280.772 117.408C280.806 117.573 280.705 118.002 280.759 118.052C280.794 118.084 280.918 118.064 280.919 118.117ZM275.933 117.88C276.218 117.257 275.854 117.799 275.767 118.132C275.745 118.204 275.858 118.04 275.933 117.88ZM272.564 120.547C272.876 120.476 273.189 120.406 273.501 120.336C273.37 120.356 273.238 120.373 273.106 120.387C272.918 120.432 272.731 120.479 272.544 120.527C272.551 120.534 272.557 120.54 272.564 120.547Z" fill="#3E3E3E"/>
<circle cx="306" cy="120" r="5" fill="#3E3E3E"/>
<path d="M311.919 118.117C311.92 118.166 311.829 118.261 311.811 118.322C311.729 118.577 311.658 118.676 311.568 118.889C311.474 119.222 310.981 120.014 311 120C311 120 311 120 311 120C311.003 119.997 311.016 119.934 311.01 119.925C311.003 119.916 310.972 119.922 310.916 119.836C310.833 119.711 310.721 119.424 310.691 119.364C310.665 119.322 310.6 119.277 310.557 119.228C310.415 119.073 310.399 118.978 310.122 118.895C310.153 118.825 310.194 118.75 310.246 118.669C310.145 118.617 310.194 118.472 310.156 118.432C310.123 118.401 310.02 118.417 309.985 118.387C309.945 118.355 309.994 118.257 309.919 118.199C309.795 118.105 309.505 118.226 309.399 118.2C309.286 118.177 309.332 118.012 309.134 118.024C309.089 118.039 309.044 118.054 308.998 118.07C308.931 118.123 308.865 118.175 308.799 118.226C308.712 118.232 308.846 118.123 308.804 118.103C308.754 118.08 308.574 118.179 308.538 118.17C308.508 118.163 308.592 118.06 308.546 118.055C308.48 118.048 308.31 118.194 308.245 118.217C308.22 118.221 307.894 118.296 307.881 118.303C307.779 118.314 308.03 118.069 307.981 118.039C307.844 117.954 307.438 118.193 307.204 118.351C307.098 118.418 307.043 118.425 307.016 118.388C307.752 117.419 307.967 116.631 307.108 118.191C307.168 117.984 306.864 118.434 306.845 118.391C306.832 118.36 306.924 118.129 306.862 118.155C306.741 118.19 306.371 119.04 306.853 117.64C306.647 117.93 306.684 117.404 306.309 118.787C306.273 118.896 306.405 118.114 306.392 118.008C306.392 117.919 306.215 117.618 306.172 117.607C306.135 117.6 306.067 117.602 306.035 117.755C306.022 117.816 306.009 118.031 306 118.231C305.975 118.646 305.993 119.008 305.903 117.715C305.833 117.914 305.816 117.877 305.72 117.684C305.702 117.649 305.663 117.353 305.655 117.357C305.637 117.365 305.639 117.599 305.618 117.643C305.584 117.714 305.437 117.095 305.626 118.06C305.634 118.24 305.649 118.422 305.672 118.605C305.624 118.424 305.572 118.243 305.518 118.062C305.557 118.277 305.6 118.492 305.649 118.707C305.282 117.285 305.422 118.189 305.694 118.976C305.591 118.722 305.465 118.467 305.316 118.214C304.706 116.609 305.125 118.12 305.546 118.972C305.544 118.975 305.542 118.978 305.54 118.981C305.326 118.597 305.475 118.973 305.303 118.739C305.119 118.509 305.031 118.355 304.588 117.666C304.597 117.72 304.607 117.774 304.619 117.828C305.833 119.793 303.588 116.515 304.496 118.08C303.553 116.975 303.878 117.72 304.154 118.109C304.184 118.156 304.387 118.362 304.443 118.436C304.581 118.61 304.269 118.418 304.965 119.052C304.758 118.884 304.544 118.723 304.323 118.567C304.443 118.698 304.567 118.825 304.695 118.949C304.925 119.135 305.156 119.322 305.387 119.508C304.595 118.896 304.877 119.189 304.675 119.067C304.633 119.043 304.295 118.805 304.194 118.76C304.072 118.706 304.156 118.815 304.034 118.772C304.419 119.027 304.809 119.277 305.202 119.522C305.419 119.668 304.359 119.07 304.264 119.054C304.247 119.051 304.298 119.173 304.321 119.188C304.497 119.315 305.451 119.747 305.248 119.7C305.211 119.692 304.87 119.569 304.854 119.576C304.823 119.596 305.611 119.9 306.355 120.102C305.438 119.83 305.822 119.961 305.552 119.904C305.469 119.889 304.865 119.769 304.735 119.764C304.628 119.764 305.114 119.874 305.032 119.873C304.943 119.876 304.427 119.83 304.389 119.839C304.355 119.847 304.772 119.892 304.769 119.902C304.754 119.93 304.079 119.948 304.066 119.998C304.066 119.999 304.066 119.999 304.066 120C304.073 120.074 305.295 120.07 305.835 120.02C305.754 120.027 305.489 120.055 305.487 120.06C305.445 120.106 305.207 120.206 304.974 120.401C304.843 120.451 303.446 121.4 305.856 120.071C306.263 119.831 305.284 120.445 305.293 120.5C305.283 120.531 305.667 120.254 305.667 120.259C305.666 120.275 305.423 120.545 305.705 120.305C305.778 120.243 306.147 119.845 306.134 119.853C306.118 119.865 305.761 120.277 305.738 120.316C305.685 120.406 305.777 120.328 305.721 120.436C305.711 120.457 305.463 120.842 305.392 120.973C305.116 121.486 305.196 121.503 305.874 120.238C305.485 120.999 305.84 120.395 305.837 120.4C305.834 120.417 305.838 120.928 305.94 120.514C305.995 120.254 305.993 119.704 305.999 120.303C305.999 120.311 306 120.32 306 120.329C306.006 120.456 306.016 120.611 306.034 120.754C306.064 121.124 306.269 122.105 306.157 121.029C306.267 121.39 306.271 121.264 306.578 122.185C306.532 121.977 306.484 121.77 306.434 121.566C306.444 121.568 306.453 121.571 306.463 121.573C306.524 121.773 306.587 121.972 306.65 122.17C306.776 122.244 306.617 121.532 306.69 121.592C306.81 121.689 307.371 122.06 307.691 122.199C307.855 122.279 307.652 122.034 308.135 122.534C308.128 122.493 308.12 122.453 308.112 122.414C308.032 122.304 307.951 122.195 307.871 122.089C307.992 122.082 308.293 122.202 308.416 122.161C308.633 122.081 308.756 121.811 309.149 121.785C309.247 121.778 309.478 121.818 309.529 121.776C309.605 121.715 309.378 121.586 309.487 121.521C309.688 121.423 310.237 121.208 310.35 121.015C310.388 120.962 310.359 120.927 310.386 120.89C310.499 120.736 310.599 120.601 310.692 120.433C310.883 120.258 310.9 120.27 310.957 120.213C311.007 120.169 311.019 120.023 311.001 120.002C310.994 119.988 311.021 120.042 311.013 120.022C311.162 120.265 311.227 120.38 311.23 120.586C311.356 120.981 311.436 121.408 311.46 121.855C311.394 121.873 311.323 121.888 311.249 121.9C311.249 121.9 311.249 121.9 311.249 121.899C311.15 122.026 311.334 122.169 311.376 122.283C311.571 122.812 311.548 123.602 311.211 124.272C310.889 124.954 310.285 125.444 309.866 125.793C309.704 125.945 309.214 126.741 308.918 126.514C308.845 126.456 308.7 126.154 308.658 126.164C308.41 126.561 308.114 126.964 307.763 127.36C307.132 127.224 306.606 127.439 306 127.671C305.687 127.789 305.359 127.904 305.026 127.946C302.421 128.33 299.176 127.121 297.75 124.457C297.48 123.969 296.777 123.435 296.849 122.798C296.878 122.532 297.716 122.225 296.994 122.095C297.228 122.038 297.462 121.98 297.696 121.923C297.355 121.753 296.778 121.689 296.672 121.396C296.579 121.155 296.48 120.477 296.573 120.253C296.616 120.136 297.07 120.171 297.066 120.069C297.065 120.048 297.056 120.025 297.041 120C297.041 120 297.041 120 297.041 120C296.921 119.812 296.445 119.462 296.467 119.227C296.486 118.987 297.057 118.671 297.015 118.494C296.855 117.857 296.335 116.917 296.829 116.316C296.966 116.151 297.603 116.165 297.614 116.11C297.635 115.996 297.149 115.722 297.125 115.618C297.006 115.077 297.945 114.858 298.201 114.583C299.043 113.639 299.952 112.617 301.133 112.155C301.851 111.843 303.092 111.416 303.859 111.702C304.022 111.759 304.104 112.261 304.217 112.249C304.34 112.236 304.34 111.896 304.396 111.866C304.738 111.658 305.559 111.417 306 111.698C306.044 111.725 306.085 111.757 306.12 111.793C306.194 111.869 306.235 112.241 306.277 112.247C306.297 112.251 306.355 112.015 306.425 112.006C307.044 111.926 307.473 112.229 307.981 112.554C308.945 113.147 310.095 113.709 310.582 114.775C310.689 115.004 310.465 115.445 310.485 115.464C310.526 115.513 310.75 115.35 310.865 115.431C311.246 115.716 311.243 116.477 311.414 116.831C311.503 117.009 311.738 117.203 311.772 117.408C311.806 117.573 311.705 118.002 311.759 118.052C311.794 118.084 311.918 118.064 311.919 118.117ZM306.933 117.88C307.218 117.257 306.854 117.799 306.767 118.132C306.745 118.204 306.858 118.04 306.933 117.88ZM303.564 120.547C303.876 120.476 304.189 120.406 304.501 120.336C304.37 120.356 304.238 120.373 304.106 120.387C303.918 120.432 303.731 120.479 303.544 120.527C303.551 120.534 303.557 120.54 303.564 120.547Z" fill="#3E3E3E"/>
<path d="M258.731 140.788C259.49 140.19 260.607 140.708 261.242 140.99C261.254 140.995 261.265 141 261.277 141.005C261.429 141.072 261.575 141.109 261.744 141.15C262.15 141.249 262.704 141.385 263.806 142.044C264.156 142.084 264.492 142.129 264.839 142.185C268.55 142.777 272.205 143.874 275.882 144.974C275.93 144.975 275.979 144.976 276.028 144.977C276.975 144.994 278.143 145.002 278.852 145.327C279.752 145.741 280.363 146.099 280.863 146.406C283.794 147.185 286.764 147.81 289.655 147.938C290.385 147.97 291.115 147.969 291.811 147.929C291.988 147.919 292.166 147.907 292.344 147.892C293.182 147.824 294.017 147.718 294.846 147.575C295.315 147.359 295.749 147.111 296.15 146.878C296.714 146.55 297.207 146.252 297.63 146.111C298.647 145.773 299.875 145.82 300.797 145.835C300.948 145.838 301.09 145.84 301.221 145.839C301.899 145.592 302.57 145.328 303.236 145.052C303.297 145.1 303.359 145.151 303.422 145.203C304.208 145.847 304.948 145.651 306.09 145.312C306.587 145.164 307.163 144.988 307.857 144.834C308.305 144.735 308.626 144.97 308.892 145.162C308.97 145.218 309.043 145.271 309.112 145.31C309.351 145.443 309.471 145.175 309.608 144.859C309.786 144.448 309.99 143.957 310.554 144.142C312.36 144.722 312.726 143.736 312.97 143.008C313.043 142.794 313.109 142.6 313.202 142.469C313.504 142.046 314.183 142.069 314.769 142.237C315.234 142.37 315.81 141.793 316.17 141.211C316.306 140.991 316.567 140.868 316.876 140.721C317.194 140.57 317.563 140.393 317.884 140.057C318.696 139.207 319.117 138.763 319.457 138.408C319.554 138.306 319.644 138.212 319.733 138.117C320.014 137.815 320.385 137.488 320.756 137.154C321.2 136.755 321.645 136.343 321.938 135.96C323.036 135.547 324.151 135.144 325.26 134.71C325.83 134.488 326.695 134.753 327.707 135.462C328.719 136.174 329.791 137.265 330.686 138.549C331.58 139.832 332.228 141.222 332.478 142.453C332.729 143.682 332.555 144.646 332.031 145.134C330.975 146.117 329.888 147.075 328.748 147.964C327.361 149.046 325.894 150.024 324.328 150.806C323.234 151.353 322.11 151.843 320.967 152.281C320.85 152.326 320.731 152.37 320.613 152.414C319.831 153.182 319.012 153.904 318.383 154.293C317.863 154.614 317.378 154.582 316.965 154.553C316.681 154.533 316.431 154.514 316.222 154.611C316.109 154.663 315.96 154.744 315.778 154.842C315.04 155.24 313.764 155.902 312.419 155.941C311.824 155.959 311.092 155.843 310.401 155.723C309.41 155.553 308.501 155.371 308.13 155.606C307.479 156.018 306.608 156.046 305.845 156.057C305.114 156.069 304.481 156.068 304.192 156.399C303.846 156.794 303.465 156.747 302.901 156.671C302.51 156.618 302.035 156.552 301.415 156.603C300.7 156.661 300.166 156.531 299.715 156.418C299.08 156.259 298.609 156.134 297.996 156.588C297.314 157.093 296.563 157.447 295.932 157.393C295.644 157.368 295.327 157.418 294.993 157.468C294.552 157.534 294.089 157.599 293.65 157.493C293.289 157.405 292.975 157.126 292.701 156.877C292.615 156.8 292.533 156.725 292.455 156.661C292.453 156.661 292.451 156.661 292.449 156.661C292.174 156.685 291.896 156.709 291.616 156.734C291.573 156.786 291.528 156.842 291.481 156.901C291.241 157.195 290.95 157.554 290.575 157.741C289.975 158.036 289.434 157.881 288.877 157.71C288.437 157.577 287.99 157.435 287.48 157.488C287.132 157.524 286.726 157.646 286.337 157.764C285.756 157.94 285.163 158.106 284.773 157.981C284.625 157.934 284.503 157.74 284.382 157.546C284.381 157.545 284.381 157.544 284.38 157.543C284.372 157.529 284.364 157.517 284.356 157.504C283.378 157.618 282.408 157.736 281.439 157.851C281.353 157.896 281.266 157.939 281.18 157.982C280.758 158.191 280.344 158.391 280.066 158.695C279.765 159.024 279.037 159.178 278.278 159.334C277.781 159.436 277.261 159.538 276.835 159.695C276.585 159.787 276.373 159.572 276.157 159.349C275.955 159.141 275.748 158.927 275.499 158.952C275.375 158.965 275.235 159.034 275.086 159.107C274.954 159.171 274.815 159.239 274.672 159.275C274.54 159.309 274.265 159.174 273.914 159.002C273.698 158.895 273.452 158.774 273.192 158.668C272.472 158.715 271.749 158.752 271.031 158.778C270.863 158.932 270.709 159.139 270.574 159.412C270.476 159.607 270.385 159.844 270.291 160.087C270.163 160.416 270.03 160.757 269.871 161.022C269.747 161.229 269.621 161.302 269.555 161.202C269.524 161.155 269.506 161.072 269.49 160.996C269.472 160.91 269.455 160.833 269.424 160.831C269.401 160.83 269.37 160.886 269.333 160.953C269.273 161.061 269.194 161.2 269.103 161.194C268.763 161.171 268.38 161.074 268.009 160.979C267.595 160.873 267.197 160.769 266.861 160.767C266.486 160.766 265.998 160.477 265.509 160.186C265.165 159.983 264.824 159.78 264.523 159.673C264.231 159.568 263.892 159.639 263.565 159.709C263.173 159.793 262.801 159.874 262.529 159.637C262.473 159.588 262.433 159.342 262.384 159.033C262.35 158.814 262.31 158.564 262.257 158.33C261.872 158.269 261.502 158.198 261.117 158.116C261.098 158.146 261.079 158.176 261.059 158.207C261.059 158.207 261.059 158.208 261.058 158.209C260.617 158.902 260.016 159.85 259.511 159.137C259.382 158.955 259.334 158.653 259.291 158.381C259.249 158.113 259.212 157.874 259.109 157.807C258.992 157.731 258.815 157.859 258.624 157.999C258.358 158.195 258.04 158.41 257.828 158.117C257.813 158.097 257.797 158.075 257.781 158.053C257.625 157.844 257.399 157.535 257.225 156.964C256.425 156.669 255.639 156.346 254.87 156.004C253.56 155.427 252.265 154.791 250.949 154.108C250.304 153.772 249.802 152.888 249.657 151.643C249.467 150.384 249.692 148.893 250.17 147.435C250.649 145.976 251.3 144.63 252.007 143.635C252.687 142.633 253.38 142.076 253.981 142.052C254.965 142.019 255.954 141.963 256.972 141.923C257.029 141.903 257.085 141.883 257.142 141.866C257.562 141.734 258.002 141.384 258.431 141.029C258.531 140.948 258.631 140.866 258.731 140.788Z" fill="#3E3E3E"/>
</svg>
