<svg width="231" height="237" viewBox="0 0 231 237" fill="none" xmlns="http://www.w3.org/2000/svg">
<path d="M2.30859 117.268C2.30859 176.639 50.438 224.768 109.809 224.768C169.179 224.768 217.309 176.639 217.309 117.268C217.309 57.8975 169.179 9.76807 109.809 9.76807C50.438 9.76807 2.30859 57.8975 2.30859 117.268Z" fill="#D9D9D9"/>
<path d="M99.7842 0.0805536C89.4053 -0.747495 89.2233 5.0229 75.5049 7.55321C61.6932 10.6528 54.0085 15.6002 45.0771 23.9975C34.9839 31.5488 12.8689 60.4602 6.72949 72.6313C-1.08011 84.193 -0.0288844 100.728 0.525391 109.532C0.637422 112.364 1.00641 114.542 1.42676 116.228C1.60599 116.94 1.9961 117.268 2.37891 117.268L2.46875 117.262C2.91363 117.203 3.32758 116.709 3.39453 115.871C3.73696 111.561 4.87751 105.042 7.96289 98.0259C14.1809 85.3959 10.7332 82.5952 20.8271 66.7378C31.9688 51.6842 41.3369 45.7966 57.7031 32.5063C75.4983 20.638 82.5028 25.7934 109.809 19.7202C110.184 19.659 110.563 19.5981 110.946 19.5366C141.032 16.838 143.434 27.845 165.139 43.5141C187.432 59.9132 205.729 92.7714 205.282 110.729C205.372 112.838 205.388 114.991 205.322 117.268C204.954 133.715 199.523 153.848 187.951 172.026C174.961 193.441 146.278 208.189 119.794 212.485C116.654 213.072 113.31 213.528 109.809 213.801C83.3404 217.042 51.4836 202.603 38.9141 191.431C24.4175 179.176 21.01 174.831 14.2451 157.722C10.5957 147.742 6.52662 133.925 3.76465 121.374C2.42878 115.055 0.67681 116.384 0.119141 123.041C-0.559743 132.845 1.92151 140.56 1.16602 145.975C-0.128223 156.864 -0.0186996 162.389 8.3418 172.973C16.8972 183.11 16.5006 191.123 22.2832 196.735C28.8847 201.218 27.7104 202.708 61.2305 223.536C80.146 233.605 96.9259 236.217 109.809 236.828C121.018 237.286 129.671 236.164 136.729 234.865C152.391 232.718 181.119 216.146 198.018 197.735C215.247 182.902 231.391 141.409 230.504 117.268C230.634 114.209 230.679 111.508 230.713 109.132C230.214 88.2279 225.948 88.5561 218.685 74.0444C210.775 60.305 211.727 43.846 195.877 29.5727C179.525 16.5953 174.515 18.5975 154.418 8.16551C138.889 0.807646 121.357 0.118637 109.809 0.30614C105.786 0.328598 102.412 0.368296 99.7842 0.0805536Z" fill="#D9D9D9"/>
<path d="M128.763 56.2681C128.763 58.7533 130.778 60.7681 133.263 60.7681C135.748 60.7681 137.763 58.7533 137.763 56.2681C137.763 53.7828 135.748 51.7681 133.263 51.7681C130.778 51.7681 128.763 53.7828 128.763 56.2681Z" fill="#3E3E3E"/>
<path d="M134.77 48.6245C134.451 48.4214 133.678 48.1861 133.263 48.4663C133.221 48.4933 133.183 48.5249 133.15 48.561C133.08 48.6376 133.042 49.0088 133.004 49.0151C132.985 49.0173 132.93 48.7825 132.865 48.7729C132.284 48.6916 131.882 48.99 131.41 49.3052C130.516 49.8808 129.441 50.403 129.01 51.4185C128.916 51.6364 129.146 52.0659 129.13 52.0874C129.093 52.1331 128.871 51.9681 128.763 52.0415C128.406 52.3022 128.436 53.0263 128.281 53.352C128.2 53.5164 127.974 53.6905 127.947 53.8813C127.918 54.0347 128.03 54.4338 127.978 54.48C127.945 54.5086 127.82 54.4877 127.82 54.5366C127.82 54.5824 127.913 54.6728 127.932 54.729C128.019 54.9668 128.093 55.0582 128.186 55.2554C128.286 55.5635 128.783 56.282 128.763 56.2681L128.753 56.2007C128.76 56.1926 128.791 56.1977 128.847 56.1206C128.93 56.0077 129.039 55.7526 129.068 55.6987C129.093 55.662 129.157 55.6226 129.199 55.5796C129.337 55.4438 129.351 55.3587 129.623 55.2925C129.591 55.2294 129.548 55.1609 129.494 55.0864C129.592 55.0427 129.54 54.9126 129.575 54.8774C129.606 54.8507 129.708 54.8682 129.742 54.8433C129.78 54.816 129.728 54.7254 129.799 54.6763C129.916 54.5966 130.204 54.7196 130.306 54.7026C130.414 54.6876 130.361 54.5366 130.552 54.5591C130.596 54.575 130.64 54.5916 130.685 54.6089C130.753 54.6608 130.819 54.7123 130.886 54.7622C130.969 54.774 130.834 54.6669 130.873 54.6519C130.919 54.6347 131.096 54.7352 131.13 54.731C131.158 54.727 131.071 54.6283 131.114 54.6265C131.175 54.625 131.346 54.77 131.409 54.7964C131.433 54.8015 131.74 54.8978 131.753 54.9058C131.846 54.9257 131.596 54.6815 131.638 54.6587C131.757 54.5936 132.141 54.8506 132.355 55.0229C132.451 55.0962 132.497 55.1099 132.514 55.0786C131.793 54.0998 131.546 53.3328 132.417 54.8853C132.347 54.6844 132.642 55.1388 132.651 55.1011C132.656 55.0723 132.561 54.8466 132.613 54.8755C132.717 54.9185 133.067 55.7768 132.58 54.3784C132.765 54.6754 132.709 54.1549 133.076 55.5405C133.106 55.6496 132.96 54.8714 132.967 54.7671C132.962 54.6794 133.09 54.3865 133.126 54.3745C133.155 54.3679 133.21 54.37 133.236 54.5229C133.246 54.5842 133.256 54.7987 133.263 54.9985C133.282 55.414 133.258 55.7765 133.339 54.4829C133.392 54.6811 133.403 54.643 133.484 54.4487C133.498 54.4137 133.537 54.1171 133.544 54.1206C133.559 54.1303 133.55 54.3628 133.566 54.4048C133.59 54.4717 133.731 53.856 133.543 54.8188C133.529 54.9982 133.507 55.1789 133.478 55.3599C133.524 55.1786 133.572 54.9966 133.624 54.8149C133.582 55.029 133.536 55.2439 133.484 55.4585C133.854 54.0371 133.691 54.9343 133.427 55.7231C133.518 55.4654 133.631 55.2056 133.768 54.9487C134.379 53.3454 133.933 54.8439 133.514 55.6968C133.515 55.699 133.516 55.7014 133.517 55.7036C133.719 55.3152 133.559 55.6854 133.717 55.4448C133.887 55.2067 133.977 55.0531 134.416 54.3618C134.404 54.4141 134.39 54.4664 134.375 54.5181C133.145 56.4721 135.393 53.1965 134.458 54.7417C135.392 53.6303 135.048 54.3581 134.759 54.7349C134.728 54.7796 134.525 54.9865 134.467 55.0581C134.324 55.2281 134.625 55.0244 133.93 55.6577C134.133 55.4861 134.343 55.3202 134.56 55.1606C134.437 55.2874 134.31 55.4106 134.179 55.5308C133.948 55.7171 133.718 55.904 133.488 56.0903C134.273 55.4714 133.982 55.7523 134.18 55.6235C134.221 55.5985 134.558 55.3612 134.658 55.312C134.776 55.2541 134.687 55.3542 134.805 55.3061C134.419 55.5591 134.028 55.8063 133.633 56.0483C133.411 56.1852 134.465 55.5858 134.56 55.562C134.576 55.5583 134.515 55.6607 134.492 55.6743C134.311 55.7921 133.359 56.2266 133.551 56.1538C133.589 56.1404 133.926 56.0155 133.94 56.0181C133.957 56.0257 133.666 56.1319 133.269 56.2603C133.266 56.2372 133.264 56.2126 133.262 56.187C133.262 56.2115 133.263 56.2367 133.262 56.2622H133.261L133.259 56.2612C133.259 56.2603 133.259 56.2592 133.258 56.2583C133.255 56.2563 133.253 56.2544 133.25 56.2524C133.218 56.194 133.183 56.133 133.148 56.0679C133.186 56.1379 133.217 56.1967 133.242 56.2446L133.244 56.2466L133.245 56.2485C133.221 56.23 133.205 56.2189 133.203 56.2173C133.208 56.2168 133.227 56.2359 133.25 56.2573L133.251 56.2593C133.228 56.2469 133.205 56.235 133.181 56.2222C133.206 56.2369 133.231 56.2521 133.255 56.2671C133.256 56.2688 133.257 56.2703 133.258 56.272C133.251 56.2715 133.244 56.2715 133.237 56.271H133.236C133.244 56.2718 133.252 56.2723 133.258 56.2729C133.259 56.275 133.261 56.2768 133.262 56.2788C133.26 56.3589 133.255 56.4422 133.249 56.522C133.239 56.8929 133.052 57.8766 133.179 56.8022C133.091 57.1663 133.104 57.0451 132.813 57.9702C132.861 57.7623 132.91 57.556 132.962 57.352C132.955 57.3552 132.948 57.3586 132.941 57.3618C132.88 57.5616 132.818 57.7604 132.756 57.9585C132.649 58.0376 132.831 57.336 132.773 57.4019C132.678 57.5083 132.177 57.9152 131.877 58.0708C131.724 58.1594 131.927 57.9143 131.45 58.4194C131.46 58.3806 131.471 58.343 131.481 58.3061C131.563 58.197 131.644 58.0896 131.726 57.9849C131.617 57.9893 131.332 58.124 131.22 58.0962C131.023 58.0384 130.927 57.8051 130.549 57.8061C130.455 57.8058 130.228 57.855 130.18 57.8198C130.11 57.7688 130.338 57.6419 130.235 57.5894C130.044 57.5131 129.509 57.3398 129.401 57.1694C129.364 57.1232 129.393 57.0911 129.367 57.0591C129.258 56.9235 129.161 56.8043 129.07 56.6548C128.88 56.5001 128.862 56.5106 128.805 56.4595C128.756 56.4197 128.744 56.2886 128.762 56.27C128.758 56.2773 128.744 56.3013 128.75 56.2876C128.602 56.5066 128.535 56.6119 128.53 56.7983C128.4 57.1576 128.312 57.5496 128.277 57.9624C128.342 57.9766 128.412 57.9886 128.485 57.9976C128.578 58.1113 128.392 58.2492 128.347 58.356C128.139 58.8526 128.136 59.5947 128.439 60.2231C128.727 60.863 129.288 61.3176 129.674 61.645C129.823 61.7876 130.265 62.5568 130.549 62.3257C130.62 62.2664 130.763 61.9662 130.803 61.9731C131.024 62.3582 131.293 62.7521 131.617 63.1411C132.209 62.9961 132.697 63.207 133.263 63.439C133.555 63.5569 133.863 63.6741 134.176 63.7183C136.621 64.1206 139.721 63.0115 141.073 60.4868C141.328 60.026 142.016 59.5279 141.936 58.9204C141.903 58.6655 141.063 58.3635 141.782 58.2495C141.548 58.1921 141.313 58.1355 141.079 58.0786C141.418 57.9225 141.992 57.867 142.096 57.5894C142.187 57.3614 142.283 56.7191 142.19 56.5073C142.146 56.3969 141.693 56.4289 141.697 56.3325C141.698 56.3134 141.707 56.2918 141.723 56.2681C141.843 56.0912 142.318 55.7579 142.297 55.5356C142.278 55.3077 141.711 55.0119 141.755 54.8452C141.92 54.2418 142.451 53.3372 141.97 52.77C141.838 52.6148 141.209 52.6399 141.196 52.5884C141.177 52.4799 141.664 52.2077 141.69 52.1069C141.818 51.5855 140.895 51.3949 140.651 51.1362C139.847 50.2473 138.991 49.2755 137.867 48.8481C137.184 48.5591 136.009 48.1596 135.28 48.4536C135.124 48.5132 135.039 49.015 134.934 49.0044C134.819 48.9928 134.823 48.6545 134.77 48.6245ZM133.605 56.8179C133.876 57.2907 133.838 57.3267 133.272 56.2895C133.272 56.2885 133.271 56.2876 133.271 56.2866C133.294 56.3217 133.532 56.692 133.605 56.8179ZM133.282 56.2749C133.333 56.2804 133.578 56.3345 133.824 56.4868C133.955 56.5174 135.251 57.3369 133.282 56.2749ZM134.667 56.5561C134.855 56.599 135.043 56.6441 135.23 56.6909C135.224 56.6958 135.217 56.7008 135.211 56.7056C134.899 56.6352 134.586 56.5652 134.274 56.4956C134.404 56.518 134.536 56.5385 134.667 56.5561ZM133.221 56.272C132.953 56.3365 133.342 56.2306 132.429 56.5122C132.706 56.4378 132.99 56.3499 133.236 56.271C133.233 56.2708 133.231 56.2702 133.229 56.27C133.226 56.2706 133.223 56.2715 133.221 56.272ZM133.331 56.314C133.459 56.3932 133.564 56.4626 133.563 56.478C133.571 56.4916 133.438 56.3935 133.331 56.314ZM134.036 56.1226C134.142 56.1168 133.654 56.2114 133.735 56.2036C133.823 56.1986 134.339 56.1507 134.376 56.1558C134.406 56.1612 133.993 56.2031 133.995 56.2085C134.011 56.2222 134.678 56.2277 134.697 56.2661L134.698 56.2681C134.692 56.3154 133.871 56.3105 133.278 56.2729C133.275 56.2707 133.272 56.2683 133.269 56.2661C133.269 56.2648 133.269 56.2635 133.269 56.2622C133.437 56.2284 133.922 56.1328 134.036 56.1226ZM133.229 56.27C133.231 56.2702 133.234 56.2708 133.237 56.271C133.242 56.2693 133.247 56.2668 133.252 56.2651C133.243 56.267 133.235 56.2687 133.229 56.27ZM133.258 56.2583C133.259 56.2593 133.261 56.2602 133.262 56.2612C133.253 56.2296 133.244 56.2064 133.236 56.2056C133.232 56.206 133.244 56.2273 133.258 56.2583ZM132.795 55.7495C132.779 55.7437 133.141 56.1462 133.21 56.2144C133.222 56.2264 133.234 56.2367 133.244 56.2466C133.222 56.2134 133.257 56.2655 133.203 56.2007C133.174 56.1637 132.815 55.7588 132.795 55.7495ZM132.964 56.106C133.04 56.1472 133.113 56.1852 133.181 56.2222C132.95 56.0846 132.74 55.9692 132.964 56.106ZM133.263 56.0708C133.241 55.54 133.239 55.9127 133.262 56.187C133.262 56.156 133.263 56.1258 133.263 56.0972C133.263 56.0882 133.263 56.0794 133.263 56.0708ZM132.532 54.606C132.249 53.9824 132.591 54.533 132.687 54.8628C132.711 54.934 132.606 54.7661 132.532 54.606Z" fill="#3E3E3E"/>
<path d="M95.7632 56.2681C95.7632 58.7533 98.0018 60.7681 100.763 60.7681C103.525 60.7681 105.763 58.7533 105.763 56.2681C105.763 53.7828 103.525 51.7681 100.763 51.7681C98.0018 51.7681 95.7632 53.7828 95.7632 56.2681Z" fill="#3E3E3E"/>
<path d="M105.285 48.6519C104.586 48.414 103.422 48.0906 102.724 48.4116C102.575 48.4773 102.506 48.9801 102.402 48.9741C102.287 48.9669 102.284 48.6289 102.232 48.6001C101.915 48.4089 101.166 48.1878 100.763 48.4663C100.722 48.4933 100.686 48.525 100.654 48.561C100.586 48.6366 100.547 49.0081 100.509 49.0142C100.49 49.0165 100.438 48.7821 100.374 48.771C99.8088 48.684 99.4131 48.9715 98.9379 49.2681C98.037 49.8097 96.9259 50.2528 96.3949 51.2485C96.2791 51.4633 96.4723 51.9152 96.4526 51.9331C96.4098 51.9774 96.2003 51.7956 96.0834 51.8638C95.6944 52.1063 95.6495 52.851 95.4594 53.1831C95.3609 53.3499 95.1156 53.5222 95.0697 53.7222C95.0268 53.8822 95.1063 54.3113 95.0502 54.3569C95.0142 54.3856 94.893 54.3595 94.8881 54.4107C94.8852 54.4589 94.9718 54.5583 94.9877 54.6187C95.0599 54.8738 95.1267 54.9743 95.2104 55.186C95.2922 55.5186 95.781 56.2845 95.7631 56.2681L95.7553 56.2349C95.7524 56.2187 95.7502 56.2016 95.7533 56.1968C95.7602 56.1883 95.7904 56.1938 95.8471 56.1128C95.9305 55.9939 96.0462 55.7272 96.0766 55.6714C96.1031 55.6334 96.1689 55.5933 96.2123 55.5493C96.3564 55.4108 96.3741 55.3223 96.6508 55.2622C96.6221 55.196 96.5826 55.1238 96.5336 55.0444C96.6341 55.0026 96.5901 54.8639 96.6283 54.8296C96.6615 54.8031 96.763 54.8258 96.7983 54.8013C96.8388 54.7746 96.7936 54.6781 96.8695 54.6304C96.9944 54.5531 97.2748 54.6949 97.3793 54.6821C97.4886 54.6716 97.4496 54.5137 97.641 54.5464C97.684 54.565 97.7275 54.5839 97.7709 54.604C97.8343 54.6611 97.8978 54.7179 97.9604 54.773C98.0436 54.7891 97.9171 54.6715 97.9584 54.6577C98.0072 54.6421 98.1771 54.7559 98.2123 54.7524C98.241 54.7495 98.1635 54.6429 98.2074 54.6431C98.2711 54.6445 98.4291 54.8014 98.4906 54.8316C98.5152 54.8383 98.8211 54.9499 98.8354 54.9585C98.931 54.9814 98.7016 54.7188 98.7484 54.6948C98.8827 54.6284 99.2615 54.9032 99.4809 55.0796C99.5797 55.1547 99.6337 55.1665 99.6625 55.1314C98.998 54.1123 98.8298 53.3154 99.5844 54.9282C99.5382 54.7188 99.8094 55.1858 99.8334 55.145C99.8493 55.1145 99.7717 54.8784 99.8334 54.9077C99.9529 54.9499 100.289 55.8127 99.8744 54.3921C100.071 54.6892 100.055 54.1624 100.385 55.5571C100.42 55.6657 100.32 54.8793 100.337 54.7739C100.343 54.6845 100.538 54.3852 100.582 54.3745C100.621 54.3676 100.692 54.3701 100.726 54.523C100.74 54.5842 100.753 54.7987 100.763 54.9985C100.789 55.414 100.78 55.7764 100.867 54.4829C100.942 54.6815 100.962 54.6442 101.059 54.4507C101.076 54.4158 101.111 54.119 101.12 54.1226C101.138 54.1321 101.142 54.3651 101.165 54.4077C101.203 54.4779 101.336 53.8569 101.172 54.8257C101.171 55.0069 101.164 55.1898 101.15 55.3735C101.194 55.1915 101.24 55.0085 101.288 54.8257C101.258 55.042 101.224 55.2596 101.185 55.4771C101.498 54.0414 101.398 54.952 101.156 55.7485C101.255 55.492 101.373 55.2327 101.512 54.9741C102.042 53.3409 101.7 54.871 101.329 55.7456C101.331 55.7485 101.335 55.7515 101.337 55.7544C101.533 55.3605 101.408 55.7447 101.567 55.5024C101.737 55.2614 101.815 55.1014 102.211 54.3843C102.205 54.4387 102.197 54.4933 102.189 54.5474C101.114 56.5918 103.122 53.1636 102.323 54.7857C103.178 53.612 102.901 54.3728 102.651 54.7778C102.623 54.8261 102.438 55.0477 102.387 55.1245C102.262 55.3076 102.551 55.0872 101.908 55.773C102.099 55.5879 102.298 55.4073 102.503 55.2329C102.392 55.3705 102.276 55.505 102.157 55.6362C101.949 55.833 101.741 56.0302 101.533 56.2271H101.534C102.242 55.5786 101.985 55.8768 102.171 55.7358C102.212 55.707 102.529 55.4456 102.624 55.3901C102.739 55.3247 102.66 55.4328 102.774 55.3774C102.408 55.6585 102.037 55.9345 101.661 56.2046C101.449 56.3567 102.456 55.6844 102.55 55.6538C102.566 55.6493 102.513 55.7552 102.49 55.77C102.366 55.8623 101.856 56.145 101.645 56.2612C101.647 56.2621 101.65 56.2624 101.652 56.2632C101.648 56.263 101.645 56.2634 101.641 56.2632C101.63 56.2691 101.621 56.2748 101.612 56.2798C101.601 56.2731 101.59 56.2661 101.58 56.2593C101.559 56.2579 101.539 56.2568 101.519 56.2554C101.536 56.2706 101.551 56.2839 101.562 56.2944C101.576 56.2913 101.589 56.2879 101.603 56.2847C101.602 56.2854 101.6 56.2859 101.599 56.2866C101.588 56.2907 101.578 56.2951 101.567 56.2993C101.579 56.311 101.588 56.3176 101.589 56.3198C101.591 56.3239 101.581 56.3145 101.563 56.3003C101.489 56.3285 101.407 56.3592 101.32 56.3911C101.387 56.5173 101.467 56.6669 101.5 56.7398C101.71 57.203 101.677 57.269 101.268 56.4097C101.093 56.473 100.898 56.5398 100.701 56.605C100.642 57.0158 100.482 57.8012 100.559 56.7954C100.445 57.1572 100.427 57.03 100.149 57.9605C100.187 57.7504 100.226 57.5418 100.268 57.3355C100.258 57.338 100.247 57.3407 100.237 57.3433C100.183 57.5453 100.128 57.7464 100.073 57.9468C99.9484 58.0242 100.067 57.3062 99.9936 57.3677C99.8699 57.4669 99.3372 57.8744 99.0375 58.0425C98.8836 58.1366 99.0672 57.877 98.6254 58.4136C98.631 58.373 98.6363 58.3332 98.642 58.2944C98.7142 58.1786 98.7871 58.0651 98.8598 57.9536C98.7431 57.9594 98.4604 58.108 98.3402 58.0835C98.1277 58.0305 98.003 57.7935 97.6215 57.814C97.5265 57.8184 97.302 57.8793 97.2504 57.8452C97.1755 57.7959 97.3935 57.6541 97.2865 57.605C97.0883 57.5364 96.5397 57.3789 96.4233 57.2036C96.3839 57.1566 96.4113 57.1231 96.3842 57.0903C96.2689 56.9518 96.168 56.8291 96.0736 56.6733C95.8814 56.5132 95.8636 56.5239 95.8061 56.4702C95.7565 56.4286 95.7439 56.2896 95.7621 56.27C95.7579 56.2776 95.7445 56.3032 95.7504 56.2886C95.6022 56.5201 95.5381 56.6326 95.5375 56.8306C95.4169 57.2136 95.3486 57.6339 95.3442 58.0718C95.411 58.0847 95.4829 58.0941 95.557 58.1011C95.6605 58.2175 95.484 58.3697 95.4477 58.4839C95.2795 59.0142 95.3547 59.7905 95.727 60.4146C96.0861 61.0518 96.6972 61.4705 97.1127 61.7749C97.2771 61.9086 97.77 62.6507 98.0404 62.4048C98.1081 62.3414 98.2357 62.0329 98.2758 62.0396C98.5215 62.4136 98.8069 62.7944 99.1381 63.1714C99.7197 63.0059 100.207 63.2073 100.763 63.439C101.05 63.557 101.351 63.6767 101.656 63.7271C104.012 64.1574 107.145 63.4216 108.804 60.8384C109.11 60.368 109.855 59.8566 109.822 59.1939C109.808 58.9151 108.985 58.5731 109.715 58.4595C109.484 58.3929 109.252 58.3272 109.02 58.2612C109.369 58.0971 109.95 58.0429 110.067 57.7368C110.17 57.4857 110.282 56.7716 110.189 56.5347C110.146 56.4116 109.694 56.4469 109.697 56.3403C109.698 56.319 109.707 56.2946 109.723 56.2681C109.844 56.0722 110.315 55.6999 110.288 55.4526C110.265 55.1975 109.684 54.8751 109.72 54.6909C109.858 54.0239 110.323 53.0225 109.784 52.4292C109.635 52.2658 108.996 52.3152 108.982 52.2603C108.953 52.1458 109.419 51.841 109.436 51.7339C109.514 51.178 108.558 51.0226 108.284 50.771C107.376 49.899 106.425 48.9972 105.285 48.6519ZM101.667 56.27C101.724 56.2927 101.784 56.3223 101.842 56.3589C101.971 56.3845 103.077 57.1915 101.616 56.2817C101.617 56.281 101.619 56.2805 101.621 56.2798C101.636 56.2762 101.652 56.2736 101.667 56.27ZM100.462 56.6841C100.542 56.6592 100.621 56.6312 100.701 56.605C100.701 56.6004 100.702 56.5958 100.703 56.5913C100.635 56.6172 100.556 56.6495 100.462 56.6841ZM102.668 56.5034C102.855 56.5519 103.042 56.6028 103.227 56.6558C103.221 56.6601 103.214 56.6642 103.207 56.6685C102.898 56.5868 102.588 56.506 102.279 56.4253C102.408 56.4541 102.538 56.4801 102.668 56.5034ZM101.163 56.2261C101.274 56.506 101.174 56.3283 101.11 56.2183C101.09 56.216 101.071 56.2139 101.052 56.2114C101.023 56.3433 100.96 56.6134 100.865 56.2808C100.797 56.0206 100.8 55.4718 100.765 56.0708C100.764 56.0794 100.764 56.0883 100.763 56.0972C100.752 56.2244 100.737 56.3792 100.713 56.522C100.711 56.5433 100.706 56.5664 100.703 56.5913C101.284 56.3694 100.996 56.446 101.233 56.3726C101.237 56.3715 101.242 56.3703 101.248 56.3687C101.227 56.3238 101.204 56.2768 101.181 56.2271C101.175 56.2264 101.169 56.2267 101.163 56.2261ZM101.248 56.3687C101.255 56.3826 101.262 56.3962 101.268 56.4097C101.285 56.4034 101.303 56.3973 101.32 56.3911C101.313 56.3792 101.307 56.3674 101.301 56.356C101.28 56.3612 101.262 56.3653 101.248 56.3687ZM101.301 56.356C101.363 56.3408 101.456 56.3186 101.556 56.2954C101.542 56.2845 101.524 56.2714 101.504 56.2554C101.412 56.2487 101.322 56.2413 101.237 56.2329C101.253 56.2643 101.275 56.3078 101.301 56.356ZM101.556 56.2954C101.558 56.2972 101.561 56.2987 101.563 56.3003C101.564 56.2998 101.566 56.2998 101.567 56.2993C101.565 56.2978 101.564 56.2961 101.562 56.2944C101.56 56.2949 101.558 56.295 101.556 56.2954ZM101.996 56.2378C102.01 56.2394 102.684 56.2332 102.697 56.2671L102.698 56.2681C102.693 56.3009 102.19 56.2944 101.688 56.2651C101.841 56.2303 101.986 56.1977 102.041 56.189C102.145 56.177 101.659 56.2735 101.738 56.2573C101.825 56.2438 102.336 56.1851 102.376 56.187C102.41 56.1896 101.999 56.2356 101.996 56.2378ZM101.532 56.229C101.548 56.2392 101.564 56.2495 101.58 56.2593C101.6 56.2606 101.62 56.2619 101.641 56.2632C101.642 56.2625 101.644 56.2619 101.645 56.2612C101.606 56.2469 101.569 56.2357 101.534 56.2271L101.532 56.229ZM101.955 56.1362C101.965 56.1398 101.856 56.1858 101.675 56.2564C101.784 56.2079 101.943 56.1372 101.955 56.1362ZM101.504 56.2554C101.509 56.2557 101.514 56.255 101.519 56.2554C101.505 56.2435 101.491 56.2293 101.475 56.2153C101.468 56.2141 101.461 56.2144 101.455 56.2134C101.472 56.2281 101.489 56.2425 101.504 56.2554ZM101.181 56.2271C101.199 56.229 101.218 56.2311 101.237 56.2329C101.234 56.2271 101.232 56.2213 101.229 56.2163C101.213 56.215 101.194 56.2141 101.174 56.2124C101.177 56.2173 101.179 56.2222 101.181 56.2271ZM101.531 56.229L101.533 56.2271C101.531 56.2266 101.529 56.2265 101.527 56.2261C101.528 56.2269 101.529 56.2282 101.531 56.229ZM101.357 56.1187C101.4 56.1527 101.44 56.1859 101.475 56.2153C101.492 56.2183 101.509 56.2218 101.527 56.2261C101.473 56.1926 101.417 56.1564 101.357 56.1187ZM101.11 56.2183C101.127 56.2203 101.145 56.2231 101.163 56.2251C101.161 56.2206 101.159 56.2162 101.157 56.2114C101.139 56.21 101.121 56.209 101.103 56.2075C101.105 56.2111 101.108 56.2145 101.11 56.2183ZM101.202 56.0601C101.25 56.1517 101.164 56.0679 101.209 56.1812C101.211 56.185 101.219 56.1971 101.229 56.2163C101.261 56.2189 101.282 56.2218 101.283 56.2212C101.305 56.2039 101.369 56.2006 101.455 56.2134C101.403 56.1704 101.348 56.1226 101.307 56.0874C101.295 56.0798 101.282 56.0728 101.27 56.0649C101.325 56.1302 101.436 56.2726 101.23 56.0571C101.223 56.0496 101.214 56.0358 101.202 56.021C101.186 56.0109 101.169 56.0011 101.153 55.9907C101.178 56.0265 101.197 56.0515 101.202 56.0601ZM101.157 56.2114C101.163 56.2119 101.168 56.2119 101.174 56.2124C101.14 56.1389 101.1 56.0613 101.062 55.9771C101.104 56.0755 101.133 56.1531 101.157 56.2114ZM101.052 56.2114C101.053 56.2088 101.053 56.2061 101.053 56.2036C101.004 56.1998 100.958 56.1963 100.932 56.1958C100.969 56.2018 101.01 56.2059 101.052 56.2114ZM101.053 56.2036C101.069 56.2049 101.086 56.2062 101.103 56.2075C101.084 56.1743 101.069 56.1494 101.067 56.1499C101.063 56.1544 101.059 56.1753 101.053 56.2036ZM101.307 56.0874C101.324 56.098 101.341 56.1084 101.357 56.1187C101.323 56.0917 101.286 56.0649 101.25 56.0386C101.258 56.0455 101.279 56.0633 101.307 56.0874ZM101.202 56.021C101.225 56.0358 101.247 56.0507 101.27 56.0649C101.258 56.051 101.251 56.0391 101.247 56.0366C101.221 56.0176 101.195 55.9982 101.169 55.981C101.168 55.98 101.167 55.979 101.165 55.978C101.179 55.9942 101.191 56.0087 101.202 56.021ZM101.125 55.9517C100.955 55.8395 100.834 55.7896 101.018 55.9067C101.064 55.9361 101.11 55.9633 101.153 55.9907C101.144 55.9788 101.135 55.9655 101.125 55.9517ZM100.84 55.5698C100.851 55.5788 101.022 55.809 101.125 55.9517C101.138 55.9602 101.152 55.9688 101.165 55.978C101.05 55.8382 100.844 55.5792 100.84 55.5698ZM99.7797 54.6284C99.5291 53.9911 99.8632 54.5518 99.933 54.8892C99.9504 54.9617 99.8458 54.792 99.7797 54.6284Z" fill="#3E3E3E"/>
<path d="M85.8755 69.2932C85.307 69.0805 84.5887 69.1917 83.8532 69.6168C83.1183 70.0428 82.427 70.745 81.9352 71.6021C81.4437 72.4588 81.19 73.4134 81.2386 74.279C81.2866 75.1437 81.6375 75.8438 82.1914 76.227C83.3071 76.9975 84.4466 77.7409 85.619 78.4279C87.047 79.2646 88.525 80.0171 90.0604 80.6262C91.1343 81.0523 92.2255 81.435 93.3285 81.7756C93.4421 81.8107 93.5562 81.8445 93.6699 81.8786C94.5063 82.4249 95.3648 82.9344 95.9969 83.2126C96.5185 83.4424 96.9518 83.436 97.3214 83.4288C97.5758 83.4237 97.8008 83.4182 98.0064 83.4879C98.1168 83.5253 98.2664 83.583 98.4467 83.652C99.181 83.9344 100.442 84.3977 101.681 84.4454C102.229 84.4671 102.886 84.4026 103.508 84.3333C104.398 84.2353 105.22 84.1268 105.595 84.2805C106.255 84.551 107.068 84.5719 107.783 84.5794C108.465 84.5871 109.059 84.584 109.368 84.7941C109.737 85.0453 110.089 85.0133 110.608 84.96C110.969 84.9227 111.409 84.8756 111.997 84.8999C112.675 84.9274 113.165 84.8355 113.58 84.7557C114.163 84.6426 114.6 84.554 115.221 84.8269C115.913 85.1299 116.651 85.3325 117.243 85.2785C117.512 85.2539 117.817 85.2748 118.136 85.2946C118.558 85.321 119 85.3448 119.408 85.2607C119.744 85.1914 120.021 85.0023 120.265 84.834C120.304 84.8073 120.341 84.7812 120.378 84.7562C120.414 84.732 120.449 84.7084 120.483 84.6867C120.747 84.6898 121.013 84.6919 121.281 84.6944C121.325 84.7247 121.372 84.7585 121.42 84.793C121.668 84.9666 121.957 85.1783 122.323 85.2763C122.908 85.4311 123.404 85.3041 123.927 85.1641C124.339 85.0546 124.753 84.9374 125.242 84.9384C125.576 84.9391 125.963 84.9906 126.339 85.0392C126.901 85.1114 127.466 85.1756 127.834 85.0691C127.974 85.029 128.085 84.8975 128.194 84.7667L128.195 84.7647C128.203 84.7558 128.21 84.7466 128.218 84.7378C129.151 84.7404 130.083 84.7413 131.008 84.739C131.091 84.7604 131.175 84.7817 131.259 84.802C131.666 84.9009 132.062 84.995 132.333 85.1645C132.627 85.3486 133.322 85.3866 134.045 85.422C134.52 85.4451 135.015 85.4669 135.421 85.53C135.66 85.5668 135.859 85.4116 136.063 85.2514C136.253 85.102 136.447 84.948 136.684 84.9418C136.802 84.9388 136.936 84.97 137.079 85.0032C137.205 85.0324 137.337 85.0632 137.473 85.0734C137.599 85.0828 137.86 84.9724 138.192 84.8309C138.398 84.7434 138.631 84.6446 138.878 84.5533C139.563 84.517 140.251 84.4729 140.934 84.4213C141.093 84.5034 141.239 84.6209 141.368 84.7816C141.46 84.8971 141.548 85.0395 141.637 85.1849C141.758 85.3827 141.883 85.5875 142.033 85.7413C142.15 85.8615 142.27 85.8959 142.332 85.8256C142.361 85.7928 142.378 85.738 142.394 85.6885C142.411 85.6318 142.427 85.5819 142.457 85.5777C142.478 85.5748 142.507 85.6072 142.543 85.6465C142.599 85.7093 142.673 85.7898 142.76 85.7772C143.081 85.73 143.445 85.6316 143.796 85.5345C144.187 85.4265 144.564 85.3208 144.882 85.2867C145.236 85.2488 145.698 85.0159 146.164 84.7804C146.491 84.6157 146.816 84.4509 147.101 84.3514C147.378 84.2544 147.699 84.2646 148.006 84.2758C148.375 84.289 148.725 84.3027 148.985 84.122C149.039 84.0852 149.079 83.9224 149.129 83.7192C149.165 83.5753 149.207 83.4108 149.26 83.2556C149.625 83.1754 149.974 83.0915 150.34 82.9974C150.357 83.0142 150.375 83.0311 150.393 83.0487L150.394 83.0496C150.8 83.4475 151.349 83.9934 151.836 83.4802C151.962 83.3494 152.012 83.1494 152.058 82.9696C152.102 82.7931 152.141 82.6355 152.24 82.581C152.352 82.5192 152.515 82.5827 152.693 82.6513C152.939 82.7484 153.234 82.8521 153.44 82.6399C153.454 82.6253 153.469 82.6089 153.484 82.5929C153.635 82.4407 153.853 82.2162 154.031 81.8282C154.789 81.5489 155.535 81.2513 156.264 80.941C157.505 80.4161 158.732 79.8491 159.965 79.2417C160.57 78.9436 161.057 78.3034 161.248 77.4642C161.477 76.6104 161.36 75.6484 161.013 74.7442C160.663 73.8396 160.135 73.0403 159.502 72.49C158.898 71.9309 158.237 71.6699 157.645 71.7409C156.674 71.8611 155.71 71.9564 154.717 72.0618C154.663 72.0557 154.608 72.0503 154.554 72.046C154.149 72.0146 153.732 71.8425 153.325 71.6661C153.23 71.6259 153.135 71.5862 153.04 71.5476C152.317 71.2559 151.207 71.7278 150.581 71.9848C150.569 71.9893 150.557 71.9933 150.545 71.9978C150.395 72.0593 150.251 72.1006 150.085 72.1472C149.688 72.2584 149.142 72.4125 148.054 72.9616C147.711 73.0277 147.383 73.0949 147.044 73.1693C143.414 73.9656 139.83 75.0459 136.228 76.0934C136.181 76.0985 136.133 76.1034 136.085 76.1086C135.156 76.209 134.006 76.3214 133.311 76.5906C132.43 76.9332 131.834 77.2133 131.346 77.4497C128.472 78.1905 125.557 78.8093 122.674 79.0539C121.908 79.1181 121.143 79.1549 120.403 79.1577C120.26 79.1583 120.116 79.1579 119.972 79.1564C119.133 79.1476 118.292 79.1091 117.456 79.0434C116.972 78.9202 116.516 78.7745 116.094 78.6359C115.502 78.4411 114.981 78.2602 114.544 78.1771C113.494 77.9787 112.277 78.0179 111.368 78.0287C111.22 78.0307 111.079 78.0317 110.95 78.0315C110.25 77.8735 109.553 77.7014 108.86 77.5178C108.807 77.5482 108.753 77.5799 108.698 77.6126C108.012 78.0203 107.264 77.8868 106.101 77.6457C105.595 77.5403 105.008 77.4135 104.312 77.2954C103.863 77.2191 103.589 77.3644 103.364 77.4824C103.297 77.5171 103.235 77.5495 103.174 77.5731C102.965 77.6534 102.808 77.4743 102.625 77.2624C102.387 76.9872 102.107 76.6572 101.596 76.7589C99.9619 77.078 99.4511 76.4063 99.0844 75.9096C98.9762 75.7631 98.8786 75.6297 98.7656 75.5379C98.3996 75.241 97.7558 75.2226 97.2316 75.3051C96.8155 75.3715 96.1621 74.952 95.7087 74.5353C95.5371 74.3781 95.2656 74.2798 94.9464 74.1612C94.6161 74.0385 94.2348 73.8938 93.8645 73.6425C92.9301 73.0066 92.4415 72.6679 92.0482 72.3966C91.9363 72.3191 91.8318 72.2469 91.7284 72.1738C91.4014 71.9427 90.9852 71.6863 90.5667 71.4225C90.0659 71.107 89.562 70.7795 89.204 70.4827C88.0956 70.0971 86.982 69.7096 85.8755 69.2932Z" fill="#3E3E3E"/>
</svg>
