<svg width="60" height="60" viewBox="0 0 60 60" fill="none" xmlns="http://www.w3.org/2000/svg">
<path d="M4 5.25H21.8535C22.7296 5.25012 23.4709 5.89834 23.5879 6.7666L28.4561 42.8994C28.5167 43.3492 28.1667 43.7498 27.7129 43.75H4C3.0335 43.75 2.25 42.9665 2.25 42V7C2.25 6.0335 3.0335 5.25 4 5.25Z" stroke="#3E3E3E" stroke-width="2.5" stroke-linejoin="round"/>
<path d="M23.8783 15H48C49.6569 15 51 16.3431 51 18V50C51 51.6569 49.6569 53 48 53H20.6495M20.6495 53L19 43.1724M20.6495 53L28.625 43.1724" stroke="#3E3E3E" stroke-width="2.5" stroke-linejoin="round"/>
<path d="M9 32L13.2857 16H15.4286L19 32M10.8857 24.96H16.6" stroke="#3E3E3E" stroke-width="2" stroke-linecap="round" stroke-linejoin="round"/>
<path d="M37.5 24V27M32 27H43" stroke="#3E3E3E" stroke-width="2" stroke-linecap="round" stroke-linejoin="round"/>
<path d="M41 28C41 30.6667 39.2769 35.8667 37.3077 38C35.3385 40.1333 33.6154 41.5556 33 42" stroke="#3E3E3E" stroke-width="2" stroke-linecap="round" stroke-linejoin="round"/>
<path d="M34 28C34 30.6667 35.9385 35.8667 38.1538 38C40.3692 40.1333 42.3077 41.5556 43 42" stroke="#3E3E3E" stroke-width="2" stroke-linecap="round" stroke-linejoin="round"/>
</svg>
