<svg width="24" height="24" viewBox="0 0 24 24" fill="none" xmlns="http://www.w3.org/2000/svg">
<path d="M9 5C9 6.10457 8.10457 7 7 7" stroke="currentColor"/>
<path d="M11 7C9.89543 7 9 6.10457 9 5" stroke="currentColor"/>
<path d="M9 9C9 7.89543 9.89543 7 11 7" stroke="currentColor"/>
<path d="M7 7C8.10457 7 9 7.89543 9 9" stroke="currentColor"/>
<path d="M6 10C6 11.1046 5.10457 12 4 12" stroke="currentColor"/>
<path d="M8 12C6.89543 12 6 11.1046 6 10" stroke="currentColor"/>
<path d="M6 14C6 12.8954 6.89543 12 8 12" stroke="currentColor"/>
<path d="M4 12C5.10457 12 6 12.8954 6 14" stroke="currentColor"/>
<path d="M11.9429 12.2832L17.9429 14.7832M17.93 15.2915L18.3057 14.3648C18.7206 13.3411 18.2272 12.1749 17.2035 11.7599L14.4233 10.6329C13.3996 10.2179 12.2334 10.7114 11.8184 11.7351L11.4427 12.6618C10.9424 13.7829 10.4428 14.2832 9.94277 14.7832C9.44299 15.2829 7.94304 16.2832 7.44287 16.2832C7.94287 16.7832 8.746 17.4838 9.94242 17.7829C11.5424 18.1829 12.9424 18.2829 13.4424 18.2829L12.9428 19.7832C13.2761 19.9498 14.6986 19.7793 15.4428 19.2832C16.9428 18.2832 17.2675 16.622 17.93 15.2915Z" stroke="currentColor" stroke-linejoin="round"/>
<path d="M16.7402 11.2294L16.928 10.766C17.1355 10.2542 16.8888 9.67104 16.3769 9.46356C15.8651 9.25608 15.282 9.50281 15.0745 10.0146L14.8867 10.478" stroke="currentColor"/>
<path d="M16.5298 9.15096L17.8071 6" stroke="currentColor" stroke-linecap="round"/>
</svg>
