<svg width="260" height="260" viewBox="0 0 260 260" fill="none" xmlns="http://www.w3.org/2000/svg">
<path d="M190.231 71.3878C190.732 71.1067 191.349 70.7837 192.115 70.4054C194.26 69.3457 196.177 68.8518 197.766 68.682M190.231 71.3878C186.624 73.4107 188.99 73.2648 184.58 75.9877C179.556 79.089 171.393 85.9118 173.277 87.1523C175.085 88.3427 186.723 84.9636 197.093 81.4M190.231 71.3878C189.813 70.6467 189.226 69.0406 190.231 68.5444C190.799 68.2638 191.753 67.7295 192.743 67.2857M197.766 68.682C199.708 68.4746 201.161 68.7505 201.949 69.0698C202.091 69.1275 202.238 69.1659 202.392 69.1595C205.416 69.0334 218.488 66.7515 218.488 69.1649C218.488 71.6458 209.069 77.2282 198.394 80.9497C197.963 81.0999 197.53 81.2501 197.093 81.4M197.766 68.682C197.557 68.2226 196.887 67.1798 195.883 66.6836C195.195 66.3439 193.942 66.7484 192.743 67.2857M190.231 58L192.743 67.2857M197.093 81.4L202.162 97.6962M202.162 104.938V121.886M202.162 121.886C201.834 121.886 201.488 122.062 201.229 122.242C201.01 122.395 200.906 122.656 200.906 122.923C200.906 124.905 200.906 128.406 200.906 129.329C200.906 130.322 201.743 130.57 202.162 130.57M202.162 121.886H205.302M205.302 104.938V121.886M205.302 121.886C205.416 121.886 205.78 122.071 206.087 122.239C206.383 122.401 206.566 122.707 206.579 123.045C206.624 124.301 206.717 127.448 206.574 129.144C206.564 129.267 206.53 129.386 206.469 129.492C206.219 129.928 205.744 130.57 205.302 130.57M202.162 130.57V162.203M202.162 130.57H205.302M202.162 162.203H205.302M202.162 162.203C201.743 162.203 200.278 162.203 200.278 163.443C200.278 163.939 200.278 166.073 200.278 167.165M205.302 130.57V162.203M205.302 162.203C205.93 162.203 207.185 162.203 207.185 164.684C207.185 165.18 207.185 166.958 207.185 168.405M202.162 170.266V171.289M202.162 170.266H205.302M202.162 170.266C202.162 170.266 201.31 170.266 200.906 169.646C200.47 168.977 200.278 167.395 200.278 167.165M202.162 198.797V171.289M202.162 198.797H205.302M202.162 198.797C201.468 198.797 200.906 199.353 200.906 200.038V203.759C200.906 204.445 201.468 205 202.162 205H205.302C205.995 205 206.557 204.445 206.557 203.759V200.038C206.557 199.353 205.995 198.797 205.302 198.797M205.302 170.266V172.747M205.302 170.266C205.302 170.266 205.93 170.266 206.557 169.646C207.185 169.025 207.185 168.405 207.185 168.405M205.302 198.797V172.747M207.185 168.405L220.629 197.981C220.84 198.445 220.667 198.995 220.228 199.255L218.823 200.088C218.31 200.392 217.646 200.182 217.401 199.638L205.302 172.747M200.278 167.165L187.499 187M202.162 171.289L187.388 194" stroke="#3E3E3E" stroke-linecap="round"/>
<path d="M104.097 219.781L110.292 196.859C110.499 196.239 111.16 195 112.151 195C113.39 195 114.009 195.62 114.629 196.239C114.982 196.592 115.248 197.478 114.629 199.337L108.434 221.02M104.097 219.781L108.434 221.02M104.097 219.781C103.065 221.433 101 224.985 101 225.977C101 227.216 107.195 228.455 107.814 227.835C108.434 227.216 109.053 221.64 108.434 221.02" stroke="#3E3E3E" stroke-linecap="round"/>
<path d="M191.987 213.593L187.864 215.421M191.987 213.593C193.238 215.086 195.775 218.317 195.912 219.299C196.084 220.526 190.12 222.611 189.421 222.083C188.722 221.555 187.336 216.12 187.864 215.421M191.987 213.593L186.193 200M187.864 215.421L183.764 206.172" stroke="#3E3E3E" stroke-linecap="round"/>
<path d="M92.8831 85.3981C92.8831 87.7101 94.1519 93.081 99.227 96.0688C105.571 99.8035 110.858 99.27 113.501 96.6023C115.145 94.9435 115.404 92.7475 115.273 91.267M115.087 90.1999C115.165 90.4772 115.235 90.8427 115.273 91.267M114.558 86.4652L110.858 94.4682M115.273 91.267C116.444 91.6227 119.422 93.1877 121.959 96.6023C124.497 100.017 128.656 109.763 130.418 114.209M141.52 101.404C140.991 103.538 140.463 106.739 144.163 109.941C147.124 112.502 148.921 112.198 149.45 111.726M141.52 101.404C141.872 99.0921 143.106 94.0413 145.221 92.334C147.864 90.1999 149.45 89.1328 151.036 89.6664M141.52 101.404L137.836 105.672M127.246 117.944L137.836 105.672M71.7366 102.471C70.1506 105.495 66.3443 113.249 63.8067 117.944C60.6348 123.812 57.9915 131.282 68.5647 133.95C70.5637 134.454 72.7202 134.869 74.9086 135.209M92.8831 136.617C93.4118 136.617 94.6805 135.87 95.5264 135.017M92.8831 136.617C91.4809 136.617 89.4516 136.567 87.0678 136.437M92.8831 136.617C92.6129 135.799 92.4808 134.981 92.4162 133.95M95.5264 135.017C93.8347 135.017 92.7481 134.305 92.4162 133.95M95.5264 135.017C97.641 134.839 101.976 134.483 102.399 134.483C102.928 134.483 99.7557 135.017 101.342 136.617C102.928 138.218 105.042 137.684 105.571 137.151C105.752 136.969 105.994 136.662 106.213 136.294M88.6538 103.538C88.6538 104.25 88.0194 106.953 85.4818 112.075C82.9442 117.197 81.605 119.9 81.2525 120.611M81.2525 120.611C77.8691 119.331 74.2037 118.655 72.7939 118.477M81.2525 120.611C82.8385 121.145 86.9621 122.105 90.7684 121.678C93.1451 121.412 94.5461 121.686 95.3063 122.06C95.8154 122.31 95.6178 122.947 95.2372 123.367C95.1585 123.454 95.0786 123.549 94.9977 123.65M87.0678 124.346C86.3629 125.235 85.0589 127.761 85.4818 130.748C85.9047 133.736 86.7154 135.786 87.0678 136.437M87.0678 136.437C83.5032 136.242 79.1462 135.866 74.9086 135.209M92.4162 133.95C92.3544 132.963 92.3544 131.78 92.3544 130.215C92.3544 128.272 93.7739 125.184 94.9977 123.65M103.456 129.681C104.337 130.748 106.205 133.096 106.628 133.95C106.976 134.652 106.637 135.586 106.213 136.294M106.628 127.014C107.862 128.081 109.8 130.215 110.065 131.124C110.249 131.756 110.905 133.205 110.329 134.483M106.213 136.294C106.704 137.113 107.528 137.844 109.272 136.084C109.8 135.55 110.156 134.867 110.329 134.483M109.8 124.346C111.21 125.235 112.972 127.547 113.501 128.614C114.007 129.636 114.154 131.528 114.03 132.349M110.329 134.483C110.593 134.441 110.117 134.483 111.386 134.483C111.915 134.483 113.501 134.483 114.03 132.349M94.9977 123.65C94.8215 123.882 95.4207 124.026 99.227 122.745C103.985 121.145 106.628 119.011 109.8 120.078C112.548 121.002 116.089 123.127 116.987 125.413M116.144 132.349C114.875 133.203 114.071 132.591 114.03 132.349M116.144 132.349C117.279 131.585 117.11 130.809 117.201 129.148M116.144 132.349C115.616 134.305 114.664 138.751 115.087 140.885C115.616 143.553 116.144 143.553 115.087 145.687C114.03 147.821 109.272 149.422 95.5264 149.955C84.9832 150.365 77.4857 147.864 74.7113 146.403C74.4939 146.288 74.3345 146.092 74.2994 145.849C74.1841 145.052 74.2033 143.377 74.9086 140.885C75.7545 137.898 75.261 135.856 74.9086 135.209M116.987 125.413C117.126 125.766 117.201 126.657 117.201 127.014C117.201 127.772 117.238 128.488 117.201 129.148M116.987 125.413L117.434 125.261M117.201 129.148L118.589 128.614M119.845 105.139C119.74 108.34 119.276 115.703 118.259 119.544C117.241 123.386 117.285 124.956 117.434 125.261M117.434 125.261L146.836 115.276M118.589 128.614C119.889 130.393 123.968 133.629 129.889 132.349C137.291 130.748 141.52 125.947 142.577 123.812C143.423 122.105 145.044 119.341 145.749 118.172M118.589 128.614L145.749 118.172M145.749 118.172L149.757 116.631C150.195 116.463 150.689 116.641 151.086 116.893C151.648 117.25 152.535 117.454 153.679 116.877C155.265 116.076 155.265 114.209 154.736 113.675C154.208 113.142 153.679 112.608 152.093 112.608C151.126 112.608 150.507 113.228 150.19 113.759C150.028 114.028 149.804 114.268 149.507 114.369L146.836 115.276M146.836 115.276L149.45 111.726M149.978 108.34C149.633 108.689 149.735 109.776 149.88 110.549C149.934 110.841 149.877 111.146 149.7 111.386L149.45 111.726M149.978 108.34C150.507 107.806 152.622 107.806 154.736 105.672C156.428 103.965 155.441 102.827 155.265 102.471M149.978 108.34C149.274 108.696 147.758 109.621 147.335 110.474M155.265 102.471C156.322 102.471 157.38 101.291 157.38 100.337C157.38 98.7364 156.322 98.2029 155.265 98.2029M155.265 102.471H148.921C148.554 102.471 148.187 102.329 147.864 102.103M151.036 89.6664C151.454 89.8071 151.836 89.985 152.161 90.1999M151.036 89.6664L160.963 57.5022C161.038 57.2574 161.013 56.9947 160.924 56.7545C160.614 55.9179 160.356 54.4825 161.08 53.3862C162.138 51.7856 163.724 51.7856 164.252 52.3191C164.781 52.8526 165.31 53.9192 164.781 55.5201C164.474 56.4484 163.964 57.059 163.572 57.3924C163.35 57.5818 163.155 57.8178 163.085 58.1017L155.265 90.0149M148.393 98.2029V95.4682C148.393 94.9159 148.841 94.4701 149.391 94.4244C150.181 94.3588 151.099 94.212 151.836 93.9346M148.393 98.2029H155.265M148.393 98.2029C147.864 98.2029 146.807 99.27 146.807 100.337C146.807 100.96 147.257 101.679 147.864 102.103M152.161 90.1999C153.069 90.7999 153.54 91.6892 153.15 92.8676C152.992 93.3464 152.484 93.6909 151.836 93.9346M152.161 90.1999C152.86 90.0207 154.099 89.9408 155.265 90.0149M156.851 93.9346C158.966 93.4011 158.966 91.8005 157.908 90.7334C157.489 90.31 156.413 90.0878 155.265 90.0149M156.851 93.9346C155.159 94.3615 152.803 94.1125 151.836 93.9346M156.851 93.9346C157.38 94.4682 157.908 95.1144 157.908 96.0688C157.908 97.6694 156.322 98.2029 155.265 98.2029M147.864 102.103C147.688 102.937 147.229 104.819 146.807 105.672C146.278 106.739 147.796 104.605 149.978 104.605M137.836 105.672C137.478 107.273 137.396 110.901 139.934 112.608" stroke="#3E3E3E" stroke-linecap="round"/>
<path d="M127.171 60.5468C127.171 60.0041 127.96 58.9186 129.317 58.9186C130.927 58.9186 132 60.3659 132 60.5468M110 61.0896C110.537 60.0042 111.502 58.9187 113.22 58.9187C114.937 58.9187 115.545 60.1851 115.902 60.547M116.439 49.6921C115.902 49.3303 114.185 48.7151 111.61 49.1493M123.951 59.4615C124.13 60.0042 123.951 61.0896 125.024 62.7179C125.69 63.7277 127.171 64.8889 126.634 65.9743C126.098 67.0598 125.024 67.6026 123.415 67.6026M119.659 79C123.759 79 125.189 75.7257 125.494 73.4422C125.565 72.911 125.139 72.4693 124.603 72.4468L113.896 71.9955C113.268 71.969 112.773 72.5234 112.949 73.1275C113.668 75.5922 115.639 79 119.659 79Z" stroke="#3E3E3E" stroke-linecap="round"/>
<path d="M90.3877 37.5005C98.9003 27.3918 111.019 28.4034 119 29.9995C126.98 31.5956 132.657 40.9283 134.015 50.2388C135.372 59.5493 137.526 75.139 136.675 83.2261C135.824 91.313 130.645 96.1725 128.162 97.5913C129.226 96.5275 130.29 94.3993 130.822 92.8032C131.575 90.546 131.354 87.305 130.822 85.8862C130.468 87.1276 129.439 90.1428 128.162 92.271C126.885 94.3991 123.728 95.9958 122.31 96.5278C122.132 96.1731 121.352 95.038 119.649 93.3354C117.947 91.6331 114.685 90.4979 113.266 90.1431L114.861 86.4185C113.797 86.2411 110.286 86.0996 106.881 84.8228C103.476 83.5459 100.673 80.9212 99.9639 79.5024L98.3682 85.355C96.7721 85.7097 92.9415 86.6317 90.3877 87.4829C87.1955 88.547 83.4711 90.1432 79.2148 93.3354C75.8099 95.8892 72.8308 101.138 71.7666 103.444C70.8799 103.267 68.7867 102.273 67.5098 99.7192C65.9137 96.5268 64.3182 89.6107 66.4463 84.2905C67.9919 80.4266 72.2848 76.5626 74.7881 74.689C73.5233 75.5367 71.1429 76.8721 68.042 77.9058C64.2114 79.1826 61.1256 84.4678 60.0615 86.9507C60.0615 84.2904 60.8068 78.0128 63.7861 74.1821C67.5104 69.3938 73.1796 65.4169 78.5 58.5005C83.8204 51.584 81.8751 47.6092 90.3877 37.5005ZM117.082 42.6401C116.682 43.8284 113.462 49.7334 109.471 52.5708C105.611 55.3146 101.164 56.4097 99.4316 57.0054C99.5611 57.4532 99.2386 59.0527 98.9268 60.5972L98.9004 60.73C98.5807 62.3142 98.4078 64.0575 97.875 64.4536C97.1967 63.4635 94.8868 62.1899 94.2471 61.5562C93.4478 60.764 91.0806 59.6076 88.6826 61.9839C86.2846 64.3605 88.9186 67.9259 90.917 69.5103C92.5157 70.7777 95.427 72.0915 96.626 71.9595C97.1589 73.0158 98.6613 76.1962 101.858 79.9985C105.855 84.7511 113.503 85.2006 114.703 85.2007C115.902 85.2007 120.656 85.354 123.454 83.3735C126.252 81.393 129.05 77.8282 130.648 69.5103C131.927 62.8561 131.181 56.1753 130.648 53.6665C128.783 52.7423 127.259 52.1122 123.742 49.2603C120.225 46.4085 118.148 43.9604 117.082 42.6401Z" fill="#3E3E3E"/>
<path d="M93.2 63C92.1333 63 90 63.3 90 64.5C90 65.7 92.6667 66.6667 94 67" stroke="#3E3E3E" stroke-linecap="round"/>
<path d="M203 97.5C204.879 97.5 206.5 99.2339 206.5 101.5C206.5 103.766 204.879 105.5 203 105.5C201.121 105.5 199.5 103.766 199.5 101.5C199.5 99.2339 201.121 97.5 203 97.5Z" stroke="#3E3E3E"/>
<path d="M199 146.107C196.097 145.69 187.802 144.854 174.738 147.986C167.448 149.733 161.464 152.548 157.23 155.161M199 146.107L197.828 141.704C197.73 141.336 197.422 141.061 197.044 141.013V141.013M199 146.107C199 149.238 192.69 153.602 177.759 158.006C175.049 158.805 172.396 159.382 169.87 159.786M190.901 119.657V119.657C191.455 119.719 191.909 119.208 191.766 118.669L191.071 116.061C190.968 115.674 190.646 115.384 190.248 115.334C186.87 114.911 178.832 114.379 166.64 117.301C154.825 120.133 146.44 125.767 143.379 128.807C143.136 129.048 143.053 129.4 143.141 129.731L143.723 131.916C143.915 132.639 144.847 132.881 145.41 132.389V132.389M190.901 119.657L197.044 141.013M190.901 119.657C189.245 119.473 186.717 119.3 183.358 119.428M197.044 141.013C195.513 140.82 193.009 140.602 189.579 140.699M145.41 132.389C146.487 131.448 147.951 130.346 149.765 129.194M145.41 132.389L150.768 152.369M149.765 129.194L155.364 150.485M149.765 129.194C152.252 127.614 155.396 125.939 159.096 124.456M155.364 150.485C157.851 148.905 160.995 147.23 164.695 145.747M155.364 150.485C154.073 151.305 153.108 152.104 152.206 152.833M159.096 124.456C161.73 123.401 164.646 122.442 167.807 121.685C174.132 120.168 179.34 119.582 183.358 119.428M159.096 124.456L164.695 145.747M164.695 145.747C167.329 144.692 170.244 143.734 173.405 142.976C180.062 141.38 185.481 140.815 189.579 140.699M183.358 119.428L189.579 140.699" stroke="#3E3E3E" stroke-linecap="round"/>
<path d="M154.736 155.5C163.536 155.5 170.71 158.937 175.691 164.856C180.68 170.785 183.5 179.241 183.5 189.316C183.5 199.328 178.855 208.879 171.979 215.934C165.101 222.991 156.039 227.5 147.264 227.5C138.457 227.5 131.283 224.214 126.305 218.451C121.32 212.681 118.5 204.383 118.5 194.308C118.5 184.295 123.146 174.586 130.024 167.375C136.906 160.16 145.967 155.5 154.736 155.5Z" stroke="#3E3E3E"/>
<path d="M118.757 218.79L134.919 225M118.757 218.79C115.994 218.79 112.958 217.786 110.054 215.847M118.757 218.79C116.344 217.413 112.831 215.024 110.811 212.872M147.351 151.272C143.407 149.151 138.809 148 133.676 148C130.049 148 126.382 148.78 122.841 150.192C108.952 155.73 97 170.998 97 187.121C97 198.6 101.001 207.247 106.166 212.581M147.351 151.272L160.5 156M147.351 151.272C144.823 150.563 142.099 150.192 139.2 150.192C121.685 150.192 101.973 168.648 101.973 188.363C101.973 196.404 103.997 203.047 107.244 208.234" stroke="#3E3E3E"/>
<path d="M122.256 150L149 159.913M102.354 168.587L127.854 179.12M98 195.228L109 200M124.744 207L114 202" stroke="#3E3E3E" stroke-linecap="round"/>
<path d="M159.18 158.5C167.849 158.5 174.912 161.797 179.815 167.47C184.725 173.15 187.5 181.252 187.5 190.906C187.5 200.495 182.931 209.647 176.161 216.41C169.389 223.175 160.465 227.5 151.82 227.5C143.144 227.5 136.08 224.348 131.181 218.825C126.275 213.296 123.5 205.346 123.5 195.692C123.5 186.102 128.071 176.799 134.843 169.886C141.617 162.97 150.541 158.5 159.18 158.5Z" stroke="#3E3E3E"/>
<path d="M39 158V164C39 167.314 51.9837 170 68 170C84.0163 170 97 167.314 97 164V158" stroke="#3E3E3E"/>
<path d="M39 164V213.781C39 218.873 51.9837 223 68 223C84.0163 223 97 218.873 97 213.781V164" stroke="#3E3E3E"/>
<ellipse cx="29" cy="6.5" rx="29" ry="6.5" transform="matrix(1 0 0 -1 39 164)" stroke="#3E3E3E"/>
<path d="M97 208C97 212.971 84.0163 217 68 217C51.9837 217 39 212.971 39 208" stroke="#3E3E3E"/>
<path d="M90 169V213" stroke="#3E3E3E" stroke-linecap="round"/>
<path d="M71 170L71 217" stroke="#3E3E3E" stroke-linecap="round"/>
<path d="M54 170L54 216" stroke="#3E3E3E" stroke-linecap="round"/>
<path d="M74 148.75C74 147.893 74.1785 146.429 74.5354 146.071C79.8889 148.214 88.9899 149.821 94.3434 149.821C101.385 149.821 109.333 148.75 113.616 147.143C115.27 146.522 115.322 145.036 115.5 144.5L127.921 148.475C127.95 148.464 127.972 148.472 128 148.5L127.921 148.475C127.765 148.531 127.381 149.101 124.5 149.821C120.217 150.893 119.889 151.214 114 155.5C108.111 159.786 104.606 164.857 103 167C101.715 168.714 98.8569 175.214 98.5 177L97 182V169C97.1785 167.036 97.8566 158.5 97 156.786C95.9293 154.643 91.2828 154.071 87 153C83.5737 152.143 76.8552 151.25 74 151.429V148.75Z" fill="#3E3E3E"/>
</svg>
