<svg width="24" height="24" viewBox="0 0 24 24" fill="none" xmlns="http://www.w3.org/2000/svg">
<path d="M7.32422 5C8.22113 5.0001 9.01531 5.39257 9.51758 5.99609C9.65502 5.96843 9.79773 5.95313 9.94434 5.95312C11.0298 5.95312 11.9102 6.75297 11.9102 7.73926C11.91 8.72539 11.0297 9.52441 9.94434 9.52441C9.65978 9.5244 9.38966 9.46898 9.14551 9.37012C8.66007 9.76081 8.02369 10.0009 7.32422 10.001C6.49754 10.001 5.75732 9.66793 5.25293 9.14355C5.04677 9.23386 4.81644 9.28608 4.57227 9.28613C3.70388 9.28613 3 8.64645 3 7.85742C3.00023 7.06857 3.70402 6.42871 4.57227 6.42871C4.65978 6.42873 4.74548 6.43671 4.8291 6.44922C5.26635 5.59423 6.21829 5 7.32422 5Z" fill="url(#paint0_linear_405_37)"/>
<path d="M12.2197 8C14.1332 8 15.8322 8.93736 16.9033 10.3867C17.1949 10.3211 17.4977 10.2861 17.8086 10.2861C20.1233 10.2861 22 12.2054 22 14.5723C21.9997 16.9389 20.1231 18.8574 17.8086 18.8574C17.2038 18.8574 16.6296 18.725 16.1104 18.4893C15.0747 19.4283 13.7127 20 12.2197 20C10.4585 19.9999 8.8801 19.2048 7.80469 17.9482C7.36532 18.1645 6.87276 18.2861 6.35254 18.2861C4.50095 18.286 3 16.7508 3 14.8574C3.00016 12.9641 4.50105 11.4299 6.35254 11.4297C6.538 11.4297 6.72019 11.445 6.89746 11.4746C7.82984 9.42313 9.86179 8.00019 12.2197 8Z" fill="url(#paint1_linear_405_37)"/>
<defs>
<linearGradient id="paint0_linear_405_37" x1="7.45508" y1="5" x2="7.45508" y2="10.001" gradientUnits="userSpaceOnUse">
<stop stop-color="#E599B2"/>
<stop offset="1" stop-color="#FFFEEA" stop-opacity="0"/>
</linearGradient>
<linearGradient id="paint1_linear_405_37" x1="12.5" y1="8" x2="12.5" y2="20" gradientUnits="userSpaceOnUse">
<stop stop-color="#E599B2"/>
<stop offset="1" stop-color="#FFFEEA" stop-opacity="0"/>
</linearGradient>
</defs>
</svg>
