<svg width="260" height="260" viewBox="0 0 260 260" fill="none" xmlns="http://www.w3.org/2000/svg">
<path d="M161.5 110.816C161.333 110.483 161 109.216 161 106.816C161 105.45 161.104 103.98 161.217 102.595M161.5 110.816C158 110.816 155.5 113.316 153 115.816C151.852 116.964 150.759 118.717 149.91 120.316M161.5 110.816C163.167 110.816 166 110.816 166.5 112.316C166.816 113.265 166 113.816 164.5 114.316C164.006 114.481 163.512 114.537 163 114.592M161.217 102.595C161.352 100.939 161.5 99.4054 161.5 98.3164C161.5 96.3164 158 96.8164 158 93.3164C158 91.8164 160 90.8164 163.5 87.3164C167.757 83.0591 164.5 82.3164 167 75.3164C169 69.7164 175.167 63.9831 178 61.8164C177.167 63.1497 176.4 67.9164 180 76.3164C183.6 84.7164 188.167 90.8164 190 92.8164C190.667 91.6497 192.5 89.1164 194.5 88.3164C197 87.3164 201.5 88.8164 201.5 94.3164C201.5 99.8164 198.5 102.316 196.5 103.816C194.5 105.316 191 104.316 190 103.316M161.217 102.595C161.811 102.835 163.4 103.316 165 103.316C166.6 103.316 167.667 102.835 168 102.595M158 117.816C158 117.316 157.9 117.016 159.5 115.816C160.841 114.81 161.958 114.704 163 114.592M158 117.816C155.2 117.416 151.44 119.316 149.91 120.316M158 117.816C159.404 117.944 162.002 118.463 163.5 119.598M163 114.592C163.459 115.009 164.254 115.658 165.212 116.316M179 118.316C178.243 118.425 177.177 118.547 176 118.635M176 118.635C173.55 118.819 170.621 118.857 169 118.316C168.593 118.181 168.181 118.01 167.772 117.816M176 118.635C176.498 119.924 177.367 122.231 177.775 124.316M178 133.316C178 132.15 178 128.316 178 126.316C178 125.708 177.914 125.025 177.775 124.316M178 133.316C179 131.816 180.206 130.243 181 129.316M178 133.316C177.573 134.295 177.08 135.479 176.548 136.816M190 123.316C187.667 124.316 184 125.816 181 129.316M181 129.316C182.833 132.65 186.8 139.316 188 139.316C189.2 139.316 193.5 134.983 195.5 132.816M177.775 124.316C176.184 124.983 172.9 126.616 172.5 127.816M172.5 127.816C173.167 128.483 174.6 130.016 175 130.816C175.5 131.816 177.097 133.816 176.548 136.816M172.5 127.816C172.272 128.501 171.707 130.519 171.141 132.591M174.5 134.816L170 136.816C170.286 135.742 170.714 134.151 171.141 132.591M176.548 136.816C173.551 144.361 169.34 156.823 169 165.316C169.167 170.15 169.3 181.916 168.5 190.316C167.5 200.816 167 204.963 169 206.89M149.91 120.316C149.28 121.503 148.117 123.595 148 127.316C147.882 131.038 148.8 133.516 148 136.316C147.2 139.116 142 151.816 139.5 157.816M164 126.816C165.847 126.428 165.956 124.579 165.847 123.816M152.5 123.316C154.333 122.316 157.853 121.601 160 122.316C161.5 122.816 164.5 126.816 164.5 128.316C164.5 129.816 163 130.816 162 131.316C162 132.316 162 134.316 162 136.316C162 138.816 159 142.316 158 142.816C157.389 143.122 155.963 150.439 154.877 156.628M152.5 127.816C153.833 126.983 156.9 125.516 158.5 126.316C160.5 127.316 162 129.316 162 130.816C162 132.316 161.5 133.816 160.5 133.816C159.058 133.816 158.386 131.074 158 130.816C157.5 130.483 156.5 130.616 156.5 131.816C156.5 133.316 158 135.316 157 138.316C156.2 140.716 155 141.983 154.5 142.316M163.5 119.598L165.212 116.316M163.5 119.598C164.803 120.585 165.619 122.213 165.847 123.816M165.212 116.316C165.989 116.85 166.873 117.39 167.772 117.816M167.772 117.816C168.252 118.15 168.232 119.598 167.772 120.816C167.126 122.527 166.232 123.483 165.847 123.816M139.5 157.816C138.833 159.316 138.7 162.716 143.5 164.316C148.3 165.916 152.5 163.316 154 161.816C154.144 160.927 154.313 159.906 154.5 158.81M139.5 157.816C138.833 157.483 137.1 157.816 135.5 161.816C133.9 165.816 133.5 167.816 133.5 168.316C133.666 168.732 133.966 169.256 134.417 169.816M154.5 158.81C154.833 159.146 155.6 159.916 156 160.316C156.5 160.816 155.5 169.316 154.5 170.816C154.276 171.152 153.952 171.513 153.5 171.865M154.5 158.81C154.619 158.109 154.746 157.377 154.877 156.628M134.417 169.816C135.774 171.505 138.494 173.516 143 173.816C148.821 174.205 151.932 173.086 153.5 171.865M134.417 169.816C133.611 172.65 132.3 179.916 133.5 186.316C135 194.316 144 191.316 147 190.316C150 189.316 158 182.816 160 177.816M153.5 171.865C153 175.349 151.6 182.516 150 183.316M163.5 146.816C162 151.983 159 163.816 159 169.816C159 177.316 161 183.316 160 189.816C159 196.316 158 201.816 159 203.816C159.272 204.36 159.95 204.867 161.055 205.316M201.5 206.816C198.5 206.983 189.9 207.316 179.5 207.316C175.348 207.316 171.859 207.163 169 206.89M201.5 206.816C200.833 208.816 199.5 213.016 199.5 213.816M201.5 206.816L203 205.316M171.141 132.591C169.261 133.999 164.6 138.316 161 144.316C157.4 150.316 155.418 155.024 154.877 156.628M169 206.89C165.342 206.54 162.716 205.993 161.055 205.316M212 139.316C208.167 140.8 200.7 146.578 201.5 157.816C202.3 169.055 205.5 184.833 207 191.316M207 191.316C206.333 191.15 204.9 191.316 204.5 193.316C204 195.816 205.5 194.816 205.5 198.816C205.5 202.016 203.833 204.483 203 205.316M207 191.316C207 191.316 210.441 194.279 213 195.316C215.559 196.354 220 196.816 220 196.816M203 205.316C203.667 206.65 209.065 210.243 213 211.316C218.5 212.816 223.5 210.816 224 212.816M224 212.816C224.738 215.767 223.5 217 223 218M224 212.816C225.667 208.816 229.2 199.316 230 193.316C231 185.816 227 156.628 224 144.316C221.6 134.467 208 128.213 201.5 126.316M199.5 213.816C195.5 213.983 185.7 214.316 178.5 214.316C170.948 214.316 163.787 212.908 161.055 212.16C160.531 212.016 160.17 211.897 160 211.816C159.156 211.416 160.352 207.316 161.055 205.316M199.5 213.816C199.5 214.422 199.5 214.838 201.5 216.5M192.5 94.8164C193.167 93.8164 194.9 92.0164 196.5 92.8164C198.5 93.8164 198 96.3164 197 98.3164C196.2 99.9164 195 100.65 194.5 100.816M169.5 75.3164C170.333 75.1497 172.4 75.1164 174 76.3164C175.6 77.5164 176.333 78.8164 176.5 79.3164" stroke="#3E3E3E" stroke-linecap="round" stroke-linejoin="round"/>
<path d="M178.5 56.8162C168.9 60.8162 165.5 72.4833 166 76.8167L169 71.8169L174 65.3169L177.5 62.3169V68.8169L179 73.8169L184.5 85.3169L190 92.8169L191 90.8169L194.5 88.3169H198L201 91.3169L201.5 96.3169L199.5 101.317L196 104.317H193C191.667 108.484 189 117.417 189 119.817C189 122.817 189 125.817 192.5 130.817C196 135.817 200 139.317 199.5 138.317C199.1 137.517 198.667 131.317 198.5 128.317C198.833 128.483 199.7 129.517 200.5 132.317C201.3 135.117 201.5 139.817 201.5 141.817C201.833 140.483 202.461 137.117 202.307 134.317C202.152 131.517 201.705 127.817 201.5 126.317L208.5 128.817L217.5 134.317L223.5 141.817L225.5 152.317C225.833 150.817 226.5 146.817 226.5 142.817C226.5 138.817 224.5 130.483 223.5 126.817C223.667 127.15 224.7 129.117 227.5 134.317C230.3 139.517 230.333 150.483 230 155.317C231.333 152.817 234 145.917 234 138.317C234 128.817 230 122.816 227.5 111.316C225 99.8164 227 96.3164 225.5 82.8164C224 69.3164 217.5 61.3164 210.5 57.8164C203.5 54.3164 190.5 51.8162 178.5 56.8162Z" fill="#3E3E3E"/>
<path d="M101 90.8164H113M101 94.6346H113M101 97.8164H105.941" stroke="#3E3E3E" stroke-linecap="round"/>
<path d="M81 177.816H92M81 181.635H92M81 184.816H85.5294" stroke="#3E3E3E" stroke-linecap="round"/>
<path d="M43 99.8164H56M43 105.816H56" stroke="#3E3E3E" stroke-linecap="round"/>
<path d="M61 69.8164H78M61 77.1497H78M61 83.8164H73.92" stroke="#3E3E3E" stroke-linecap="round"/>
<path d="M96 144.816H112M96 152.15H112M96 158.816H108.16" stroke="#3E3E3E" stroke-linecap="round"/>
<path d="M58 150.816H64M58 153.435H64M58 155.816H62.56" stroke="#3E3E3E" stroke-linecap="round"/>
<rect x="26.5" y="60.3164" width="60" height="63" rx="1.5" stroke="#3E3E3E"/>
<path d="M55.5 69.3164V88.3164H34.5V69.3164H55.5Z" stroke="#3E3E3E"/>
<path d="M74.5 171.316V190.316H54.5V171.316H74.5Z" stroke="#3E3E3E"/>
<path d="M84.5 149.316V158.316H75.5V149.316H84.5Z" stroke="#3E3E3E"/>
<path d="M38 94.3164H78.5V112.316H38C37.7239 112.316 37.5 112.093 37.5 111.816V94.8164C37.5 94.5403 37.7239 94.3164 38 94.3164Z" stroke="#3E3E3E"/>
<rect x="104.5" y="78.3164" width="6" height="7" rx="0.5" stroke="#3E3E3E"/>
<rect x="55.5" y="129.316" width="6" height="7" rx="0.5" stroke="#3E3E3E"/>
<rect x="102.5" y="129.316" width="6" height="7" rx="0.5" stroke="#3E3E3E"/>
<path d="M110.559 81.8164H117C117.552 81.8164 118 82.2641 118 82.8164V103.816C118 104.369 117.552 104.816 117 104.816H96C95.4477 104.816 95 104.369 95 103.816V82.8164C95 82.2641 95.4477 81.8164 96 81.8164H105.147" stroke="#3E3E3E"/>
<path d="M62.1455 132.816H103.182M56.0909 132.816H47C46.4477 132.816 46 133.264 46 133.816V197.816C46 198.369 46.4477 198.816 47 198.816H119C119.552 198.816 120 198.369 120 197.816V133.816C120 133.264 119.552 132.816 119 132.816H108.564" stroke="#3E3E3E"/>
<rect x="54.5" y="141.316" width="13" height="25" rx="1.5" stroke="#3E3E3E"/>
<rect x="73.5" y="141.316" width="13" height="25" rx="1.5" stroke="#3E3E3E"/>
<path d="M55 144.816H67M55 162.816H67" stroke="#3E3E3E" stroke-linecap="round"/>
<path d="M74 144.816H86M74 162.816H86" stroke="#3E3E3E" stroke-linecap="round"/>
<ellipse cx="170.5" cy="84.8164" rx="1.5" ry="2" fill="#3E3E3E"/>
<ellipse cx="173.5" cy="156.816" rx="1.5" ry="2" fill="#3E3E3E"/>
<ellipse cx="172.5" cy="182.816" rx="1.5" ry="2" fill="#3E3E3E"/>
<ellipse cx="172.5" cy="169.816" rx="1.5" ry="2" fill="#3E3E3E"/>
</svg>
