<svg width="24" height="24" viewBox="0 0 24 24" fill="none" xmlns="http://www.w3.org/2000/svg">
<path opacity="0.4" d="M18.9652 5.15143C19.024 5.08529 19.1543 5.10334 19.1807 5.18128L19.2741 5.45675C19.2849 5.48844 19.3157 5.51351 19.3556 5.52305L19.7028 5.60595C19.801 5.62941 19.8195 5.73238 19.7333 5.77621L19.4287 5.93111C19.3936 5.94893 19.3728 5.97971 19.3736 6.01249L19.3805 6.29752C19.3825 6.37815 19.2635 6.42375 19.1838 6.3729L18.9022 6.19316C18.8698 6.17249 18.8261 6.16644 18.7866 6.17716L18.4437 6.27041C18.3467 6.29679 18.2548 6.22199 18.2917 6.14674L18.4222 5.88075C18.4373 5.85016 18.4311 5.81564 18.4059 5.78949L18.1871 5.56209C18.1251 5.49776 18.1873 5.40594 18.2898 5.41028L18.6521 5.42563C18.6938 5.42739 18.7337 5.41211 18.7576 5.38522L18.9652 5.15143Z" fill="url(#paint0_linear_405_56)"/>
<path d="M13.4791 8.6977C13.5569 8.39896 14.0067 8.32937 14.2229 8.58264L14.9868 9.4779C15.0747 9.58087 15.216 9.6393 15.3605 9.6324L16.6172 9.57244C16.9727 9.55547 17.2052 9.90715 17.0016 10.1539L16.282 11.026C16.1993 11.1263 16.184 11.2586 16.2417 11.3758L16.7435 12.3947C16.8855 12.6829 16.5794 12.9699 16.2374 12.8691L15.0287 12.5128C14.8897 12.4718 14.739 12.4952 14.6301 12.5745L13.6836 13.2642C13.4158 13.4593 12.9941 13.285 12.9863 12.9759L12.9589 11.8836C12.9558 11.758 12.8778 11.6401 12.7528 11.572L11.6661 10.9793C11.3586 10.8117 11.4041 10.417 11.7413 10.3268L12.933 10.008C13.0701 9.9713 13.1727 9.87512 13.2043 9.75366L13.4791 8.6977Z" fill="url(#paint1_linear_405_56)"/>
<path opacity="0.4" d="M4.99484 17.2721C5.02887 17.163 5.20975 17.135 5.29389 17.2258L5.59131 17.5469C5.62552 17.5838 5.68159 17.6042 5.73956 17.6008L6.24357 17.5715C6.38616 17.5633 6.47593 17.6898 6.39199 17.7807L6.09529 18.1021C6.06117 18.1391 6.05379 18.1873 6.07578 18.2296L6.26698 18.5971C6.32107 18.7011 6.19567 18.8072 6.05965 18.7726L5.57886 18.6503C5.52356 18.6362 5.46293 18.6456 5.41855 18.6751L5.03271 18.9315C4.92355 19.0041 4.75628 18.9432 4.75615 18.8308L4.75571 18.4338C4.75565 18.3881 4.72556 18.3457 4.67615 18.3217L4.24648 18.1126C4.12493 18.0535 4.14694 17.9097 4.28288 17.8749L4.7634 17.7518C4.81867 17.7377 4.8607 17.7021 4.87454 17.6578L4.99484 17.2721Z" fill="url(#paint2_linear_405_56)"/>
<defs>
<linearGradient id="paint0_linear_405_56" x1="19.1139" y1="4.98406" x2="18.8916" y2="6.58942" gradientUnits="userSpaceOnUse">
<stop stop-color="#ADDDFF"/>
<stop offset="1" stop-color="#EDF6FF" stop-opacity="0"/>
</linearGradient>
<linearGradient id="paint1_linear_405_56" x1="13.6759" y1="7.94172" x2="14.6302" y2="14.1098" gradientUnits="userSpaceOnUse">
<stop stop-color="#ADDDFF"/>
<stop offset="1" stop-color="#EDF6FF" stop-opacity="0"/>
</linearGradient>
<linearGradient id="paint2_linear_405_56" x1="5.08096" y1="16.996" x2="5.42655" y2="19.2298" gradientUnits="userSpaceOnUse">
<stop stop-color="#ADDDFF"/>
<stop offset="1" stop-color="#EDF6FF" stop-opacity="0"/>
</linearGradient>
</defs>
</svg>
