<svg width="32" height="32" viewBox="0 0 32 32" fill="none" xmlns="http://www.w3.org/2000/svg">
<path d="M16.1025 6C18.8216 6 21.2357 7.26525 22.7578 9.22168C23.1721 9.13309 23.6023 9.08594 24.0439 9.08594C27.3332 9.08594 30 11.6759 30 14.8711C30 18.0663 27.3332 20.6562 24.0439 20.6562C23.1847 20.6562 22.3687 20.4783 21.6309 20.1602C20.1592 21.4278 18.2241 22.1992 16.1025 22.1992C13.5994 22.1991 11.3554 21.1263 9.82715 19.4297C9.20302 19.7213 8.50355 19.8857 7.76465 19.8857C5.13336 19.8856 3 17.8129 3 15.2568C3.00017 12.7009 5.13347 10.629 7.76465 10.6289C8.02824 10.6289 8.28711 10.6495 8.53906 10.6895C9.86428 7.92047 12.7521 6.00013 16.1025 6Z" fill="url(#paint0_linear_404_19)"/>
<defs>
<linearGradient id="paint0_linear_404_19" x1="16.5" y1="6" x2="16.5" y2="22.1992" gradientUnits="userSpaceOnUse">
<stop stop-color="white"/>
<stop offset="1" stop-color="#FFFEEA" stop-opacity="0"/>
</linearGradient>
</defs>
</svg>
