<svg width="24" height="24" viewBox="0 0 24 24" fill="none" xmlns="http://www.w3.org/2000/svg">
<path d="M9.40039 8C10.5928 8.00001 11.6688 8.49416 12.4375 9.28809C12.8053 9.13889 13.2076 9.05665 13.6289 9.05664C15.3804 9.05664 16.8008 10.477 16.8008 12.2285C16.8007 13.98 15.3804 15.3994 13.6289 15.3994C13.2073 15.3994 12.8055 15.3163 12.4375 15.167C11.6687 15.9613 10.5931 16.457 9.40039 16.457C8.0918 16.457 6.92214 15.8623 6.14648 14.9287C5.71959 15.2248 5.2024 15.4003 4.64355 15.4004C3.18394 15.4004 2 14.2165 2 12.7568C2.00014 11.2973 3.18402 10.1143 4.64355 10.1143C4.9936 10.1143 5.32707 10.184 5.63281 10.3076C6.3325 8.93778 7.75663 8 9.40039 8Z" fill="url(#paint0_linear_404_18)"/>
<path d="M17.7031 4C18.6786 4.00003 19.5425 4.42577 20.0889 5.08203C20.2385 5.05191 20.3942 5.03613 20.5537 5.03613C21.7343 5.03627 22.6914 5.90579 22.6914 6.97852C22.6912 8.0511 21.7342 8.92076 20.5537 8.9209C20.2445 8.9209 19.9509 8.8593 19.6855 8.75195C19.1573 9.17744 18.4645 9.43846 17.7031 9.43848C16.8038 9.43848 15.9988 9.07638 15.4502 8.50586C15.2259 8.604 14.9755 8.66113 14.71 8.66113C13.7654 8.66108 13 7.96564 13 7.10742C13.0001 6.24927 13.7655 5.55376 14.71 5.55371C14.8051 5.55371 14.8984 5.56163 14.9893 5.5752C15.4649 4.64529 16.5002 4 17.7031 4Z" fill="url(#paint1_linear_404_18)"/>
<defs>
<linearGradient id="paint0_linear_404_18" x1="9.40091" y1="8.00103" x2="9.40091" y2="15.11" gradientUnits="userSpaceOnUse">
<stop stop-color="white"/>
<stop offset="1" stop-color="#FFFEEA" stop-opacity="0"/>
</linearGradient>
<linearGradient id="paint1_linear_404_18" x1="17.8457" y1="4" x2="17.8457" y2="9.43848" gradientUnits="userSpaceOnUse">
<stop stop-color="white"/>
<stop offset="1" stop-color="#FFFEEA" stop-opacity="0"/>
</linearGradient>
</defs>
</svg>
