<svg width="32" height="32" viewBox="0 0 32 32" fill="none" xmlns="http://www.w3.org/2000/svg">
<path d="M15.2207 7C17.9641 7.00011 20.3999 8.32762 21.9355 10.3809C22.3533 10.288 22.7871 10.2383 23.2324 10.2383C26.5511 10.2383 29.2411 12.9564 29.2412 16.3096C29.2412 19.6628 26.5512 22.3818 23.2324 22.3818C22.3655 22.3818 21.5423 22.1942 20.7979 21.8604C19.3131 23.1907 17.3612 24.0009 15.2207 24.001C12.695 24.001 10.4307 22.8744 8.88867 21.0938C8.25889 21.3999 7.55322 21.5723 6.80762 21.5723C4.15269 21.5722 2 19.3974 2 16.7148C2.00004 14.0323 4.15271 11.8575 6.80762 11.8574C7.07361 11.8574 7.33462 11.8799 7.58887 11.9219C8.92593 9.01563 11.8399 7 15.2207 7Z" fill="url(#paint0_linear_405_32)"/>
<defs>
<linearGradient id="paint0_linear_405_32" x1="15.6206" y1="7" x2="15.6206" y2="24.001" gradientUnits="userSpaceOnUse">
<stop stop-color="#E599B2"/>
<stop offset="1" stop-color="#FFFEEA" stop-opacity="0"/>
</linearGradient>
</defs>
</svg>
