<svg width="260" height="260" viewBox="0 0 260 260" fill="none" xmlns="http://www.w3.org/2000/svg">
<path d="M182.13 50.5449C185.338 50.0294 192 49.1354 200 52.0449C208 54.9545 216.13 62.0455 219.63 73.5449C223.13 85.0447 223.63 96.545 226.63 106.045C229.63 115.545 231.63 119.045 236.13 125.545C239.73 130.744 239 140.211 238 143.045C237.983 142.973 236.327 136.009 230.5 131.044C224.642 126.053 219.951 121.535 210 119.544C208.577 119.259 205.876 117.549 204.5 115.044C203.232 112.734 203.24 111.703 203 109.544C200.092 114.303 195 117.544 193 118.544C191.946 119.071 186 121.044 184 121.044C184.5 122.044 184.499 122.544 183 123.044C174.836 124.839 173.163 126.646 170.5 129.044C165.369 133.665 165.995 140.487 166 140.544C163.5 140.044 158.93 137.045 156.13 133.045C153.33 129.045 154.297 123.378 155.13 121.045C154.463 122.045 153.13 125.545 153.13 131.545C153.13 137.544 155.13 141.711 156.13 143.045C153.796 141.211 148.93 135.445 148.13 127.045C147.13 116.546 150.13 118.544 153.13 101.545C156.13 84.5451 156.13 71.6154 162.014 63.5449C168.72 54.3456 178.922 51.0605 182.13 50.5449ZM185.014 61.5449C183.68 63.2115 179.913 67.445 175.514 71.0449C171.114 74.6445 165.348 77.8779 163.014 79.0449C162.814 79.9948 162.59 81.4191 162.418 83.1738C161.965 83.5667 161.568 84.016 161.226 84.5088C160.025 86.2379 159.5 88.47 159.5 90.5439C159.5 92.6407 160.161 94.8768 161.49 96.5996C161.877 97.1011 162.322 97.557 162.821 97.9541C162.881 98.3174 162.944 98.6813 163.014 99.0449C165.014 109.545 169.5 114.544 173 117.044C178.5 120.972 183.014 120.045 184.514 120.045C186.015 120.044 194.514 118.544 199.514 112.545C203.513 107.745 205.847 103.878 206.514 102.545C208.014 102.712 211.514 102.645 213.514 101.045C216.013 99.0443 218.513 92.5447 215.514 89.5449C212.514 86.5455 210.514 88.5447 209.514 89.5449C208.714 90.3447 207.181 91.5446 206.514 92.0449C205.847 91.5449 204.414 90.0449 204.014 88.0449C203.614 86.0451 203.847 84.3822 204.014 83.8008C201.847 83.0489 196.514 80.4449 192.514 76.0449C187.514 70.5449 185.514 63.0449 185.014 61.5449ZM162.285 84.7578C162.054 88.0243 162.032 92.1191 162.584 96.3516C162.48 96.2335 162.379 96.1131 162.282 95.9883C161.104 94.4611 160.5 92.4472 160.5 90.5439C160.5 88.6179 160.991 86.6 162.047 85.0791C162.123 84.9693 162.203 84.8624 162.285 84.7578Z" fill="#3E3E3E"/>
<path d="M76.5856 166.826L129.612 180.262C130.322 180.442 130.876 180.994 131.058 181.703L143.119 228.616C143.506 230.123 142.1 231.476 140.609 231.03L84.3768 214.214C83.6701 214.003 83.137 213.42 82.99 212.697L74.1345 169.163C73.8407 167.719 75.1569 166.464 76.5856 166.826Z" stroke="#3E3E3E" stroke-linecap="round"/>
<path d="M132 182.078L137.607 180.755C138.189 180.617 138.799 180.657 139.358 180.869L171.5 193.044M143.327 228.688V228.797M195 203.92V203.92C195 203.196 194.536 202.553 193.849 202.324L188.5 200.544M195 203.92L194.367 207.825C194.209 208.799 193.582 209.633 192.69 210.056L145.336 232.496C144.748 232.774 144.055 232.427 143.927 231.789L143.327 228.797M195 203.92L143.327 228.797" stroke="#3E3E3E" stroke-linecap="round"/>
<path d="M182.151 123.521C182.414 123.438 182.56 123.157 182.477 122.893C182.394 122.63 182.113 122.484 181.849 122.567L182.151 123.521ZM146.76 164.576C146.616 164.811 146.69 165.119 146.926 165.263C147.161 165.407 147.469 165.333 147.613 165.098L146.76 164.576ZM184.5 121.044C184.5 120.768 184.276 120.544 184 120.544C183.724 120.544 183.5 120.768 183.5 121.044H184.5ZM185.526 127.702C185.613 127.964 185.896 128.106 186.158 128.018C186.42 127.931 186.562 127.648 186.474 127.386L185.526 127.702ZM203.5 109.044C203.5 108.768 203.276 108.544 203 108.544C202.724 108.544 202.5 108.768 202.5 109.044H203.5ZM204 114.544L203.526 114.702L204 114.544ZM209.5 119.044L209.342 119.518L209.5 119.044ZM201 183.044L200.829 182.574C200.752 182.602 200.682 182.649 200.627 182.711L201 183.044ZM208.5 180.654L208.349 180.178L208.5 180.654ZM234.314 174.508C234.571 174.611 234.862 174.486 234.964 174.23C235.067 173.973 234.942 173.682 234.686 173.58L234.314 174.508ZM222.805 133.94C223.024 133.772 223.065 133.458 222.896 133.239C222.728 133.02 222.414 132.979 222.195 133.148L222.805 133.94ZM221.548 175.692C221.63 175.956 221.91 176.103 222.174 176.022C222.438 175.94 222.585 175.66 222.504 175.396L221.548 175.692ZM207.498 117.989C207.475 117.713 207.234 117.509 206.959 117.532C206.683 117.555 206.479 117.796 206.502 118.072L207.498 117.989ZM187.5 132.544L187.676 132.076L187.5 132.544ZM182 124.044L181.647 123.69L181.567 123.77L181.529 123.876L182 124.044ZM183.854 122.897C184.049 122.702 184.049 122.386 183.854 122.19C183.658 121.995 183.342 121.995 183.147 122.19L183.854 122.897ZM171.464 141.23C171.567 140.973 171.442 140.682 171.186 140.58C170.929 140.477 170.638 140.602 170.536 140.858L171.464 141.23ZM171 165.044L171.481 164.907L171 165.044ZM172.03 175.873C171.936 176.133 172.07 176.419 172.329 176.514C172.589 176.608 172.876 176.474 172.97 176.215L172.03 175.873ZM208.5 196.044C208.776 196.044 209 195.82 209 195.544C209 195.268 208.776 195.044 208.5 195.044V196.044ZM183.5 198.544L183.11 198.232L183.5 198.544ZM191.186 194.008C191.442 193.906 191.567 193.615 191.464 193.358C191.362 193.102 191.071 192.977 190.814 193.08L191.186 194.008ZM187.277 189.96C187.507 189.807 187.569 189.496 187.416 189.267C187.263 189.037 186.952 188.975 186.723 189.128L187.277 189.96ZM178 198.044L177.54 197.847L178 198.044ZM180.5 201.044L180.342 200.57L180.5 201.044ZM184.248 186.978C184.488 186.841 184.571 186.536 184.434 186.296C184.297 186.056 183.992 185.973 183.752 186.11L184.248 186.978ZM204.098 185.435C204.369 185.381 204.545 185.118 204.49 184.847C204.436 184.576 204.173 184.401 203.902 184.455L204.098 185.435ZM194 184.544L194.098 184.054L194 184.544ZM171 194.044L171.46 194.241L171 194.044ZM215.5 190.044L215.982 189.912L215.5 190.044ZM214.223 198.241C214.075 198.474 214.144 198.783 214.377 198.931C214.61 199.078 214.919 199.009 215.067 198.776L214.223 198.241ZM200.018 185.241C200.09 185.507 200.365 185.664 200.631 185.592C200.898 185.519 201.055 185.244 200.982 184.978L200.018 185.241ZM205 186.044L205.384 185.724L205 186.044ZM156.223 168.46C156.452 168.613 156.763 168.551 156.916 168.321C157.069 168.092 157.007 167.781 156.777 167.628L156.223 168.46ZM149.5 165.044L149.402 165.534L149.5 165.044ZM139.627 163.002C139.352 163.025 139.147 163.266 139.17 163.542C139.193 163.817 139.435 164.021 139.71 163.998L139.627 163.002ZM171.426 166.544L171.907 166.409L171.426 166.544ZM155.314 181.58C155.058 181.682 154.933 181.973 155.036 182.23C155.138 182.486 155.429 182.611 155.686 182.508L155.314 181.58ZM142.003 169.599C142.034 169.874 142.281 170.071 142.555 170.041C142.83 170.01 143.027 169.763 142.997 169.489L142.003 169.599ZM137.5 161.544L137.235 161.968L137.5 161.544ZM125.5 163.544L125.974 163.702L125.5 163.544ZM127.5 170.544L127.053 170.32L127.5 170.544ZM130.985 163.165C131.052 162.897 130.889 162.626 130.621 162.559C130.353 162.492 130.082 162.655 130.015 162.923L130.985 163.165ZM133.777 169.96C134.007 169.807 134.069 169.496 133.916 169.267C133.763 169.037 133.452 168.975 133.223 169.128L133.777 169.96ZM129.722 172.044L129.327 171.737L129.722 172.044ZM139.658 173.018C139.92 172.931 140.062 172.648 139.974 172.386C139.887 172.124 139.604 171.982 139.342 172.07L139.658 173.018ZM130.309 163.559C130.041 163.492 129.77 163.655 129.703 163.923C129.636 164.191 129.799 164.462 130.067 164.529L130.309 163.559ZM132.276 165.271C132.523 165.394 132.824 165.294 132.947 165.047C133.071 164.8 132.971 164.5 132.724 164.376L132.276 165.271ZM127.682 158.859C127.938 158.962 128.229 158.837 128.331 158.581C128.434 158.324 128.309 158.033 128.053 157.931L127.682 158.859ZM123.5 158.544L123.9 158.844L123.5 158.544ZM121.5 165.044L121.985 165.165L121.5 165.044ZM120.5 160.044L120.947 160.268L120.5 160.044ZM121 169.544L121.499 169.506L121 169.544ZM120 161.544L120.484 161.671L120 161.544ZM118 163.044L117.51 162.946L118 163.044ZM117.5 168.544L117.147 168.898H117.147L117.5 168.544ZM140.399 174.922C140.671 174.877 140.855 174.619 140.81 174.347C140.765 174.074 140.507 173.89 140.235 173.936L140.399 174.922ZM135 173.544L134.842 173.07L134.83 173.074L134.818 173.078L135 173.544ZM138.646 175.69C138.451 175.886 138.451 176.202 138.646 176.397C138.842 176.593 139.158 176.593 139.354 176.398L138.646 175.69ZM143.146 177.19C142.951 177.386 142.951 177.702 143.146 177.897C143.342 178.093 143.658 178.093 143.854 177.897L143.146 177.19ZM182 123.044L181.849 122.567C180.239 123.076 177.636 124.087 175.027 125.478C172.428 126.863 169.773 128.652 168.11 130.732L168.5 131.044L168.89 131.356C170.427 129.436 172.938 127.725 175.498 126.36C178.048 125.001 180.594 124.012 182.151 123.521L182 123.044ZM168.5 131.044L168.11 130.732C166.486 132.761 162.388 139.201 158.094 146.114C153.789 153.043 149.259 160.494 146.76 164.576L147.187 164.837L147.613 165.098C150.114 161.013 154.641 153.567 158.943 146.642C163.256 139.7 167.314 133.327 168.89 131.356L168.5 131.044ZM184 121.044H183.5C183.5 122.143 183.729 123.121 184.553 124.768L185 124.544L185.447 124.32C184.671 122.767 184.5 121.944 184.5 121.044H184ZM185 124.544L184.553 124.768C185.34 126.342 185.312 127.06 185.526 127.702L186 127.544L186.474 127.386C186.355 127.028 186.26 125.946 185.447 124.32L185 124.544ZM203 109.044H202.5C202.5 110.951 203.016 113.174 203.526 114.702L204 114.544L204.474 114.386C203.984 112.914 203.5 110.804 203.5 109.044H203ZM204 114.544L203.526 114.702C203.897 115.816 204.381 116.721 205.292 117.503C206.187 118.271 207.458 118.89 209.342 119.518L209.5 119.044L209.658 118.57C207.815 117.955 206.691 117.385 205.944 116.744C205.213 116.118 204.81 115.393 204.474 114.386L204 114.544ZM209.5 119.044L209.342 119.518C213.868 121.027 218.279 122.003 224.2 126.444L224.5 126.044L224.8 125.644C218.721 121.085 214.132 120.061 209.658 118.57L209.5 119.044ZM224.5 126.044L224.2 126.444C230.154 130.91 232.611 133.865 235.076 137.809L235.5 137.544L235.924 137.279C233.389 133.223 230.846 130.178 224.8 125.644L224.5 126.044ZM235.5 137.544L235.076 137.809C237.532 141.739 240.514 150.171 241.506 156.62L242 156.544L242.494 156.468C241.486 149.917 238.468 141.349 235.924 137.279L235.5 137.544ZM242 156.544L241.506 156.62C241.757 158.254 242.134 160.264 242.532 162.446C242.93 164.633 243.35 167 243.693 169.366C244.381 174.12 244.739 178.784 244.013 181.932L244.5 182.044L244.987 182.156C245.761 178.804 245.369 173.968 244.682 169.222C244.337 166.838 243.914 164.455 243.515 162.267C243.116 160.074 242.743 158.084 242.494 156.468L242 156.544ZM244.5 182.044L244.013 181.932C243.276 185.126 242.178 187.424 240.74 189.163C239.302 190.9 237.498 192.109 235.297 193.087L235.5 193.544L235.703 194.001C238.002 192.979 239.948 191.688 241.51 189.8C243.072 187.913 244.225 185.462 244.987 182.156L244.5 182.044ZM235.5 193.544L235.297 193.087C233.105 194.061 228.77 195.087 224.496 195.983C220.266 196.87 216.104 197.628 214.379 198.059L214.5 198.544L214.621 199.029C216.326 198.603 220.414 197.861 224.701 196.962C228.945 196.072 233.395 195.027 235.703 194.001L235.5 193.544ZM214.5 198.544L214.379 198.059C213.38 198.308 211.818 198.826 210.303 199.25C208.74 199.688 207.174 200.044 206 200.044V200.544V201.044C207.326 201.044 209.01 200.65 210.572 200.213C212.182 199.762 213.62 199.279 214.621 199.029L214.5 198.544ZM206 200.544L206.3 200.944C207.351 200.156 208.193 199.22 208.685 197.991C209.176 196.763 209.298 195.29 208.993 193.462L208.5 193.544L208.007 193.626C208.29 195.327 208.162 196.604 207.756 197.619C207.351 198.632 206.65 199.432 205.7 200.144L206 200.544ZM201 183.044L201.171 183.514C202.992 182.852 206.687 181.754 208.651 181.131L208.5 180.654L208.349 180.178C206.425 180.788 202.675 181.903 200.829 182.574L201 183.044ZM208.5 180.654L208.651 181.131C212.142 180.023 218.182 178.012 221.224 176.491L221 176.044L220.776 175.597C217.818 177.076 211.858 179.064 208.349 180.178L208.5 180.654ZM221 176.044L221.224 176.491C222.717 175.745 224.799 174.767 227.115 174.218C229.431 173.67 231.943 173.56 234.314 174.508L234.5 174.044L234.686 173.58C232.057 172.528 229.319 172.668 226.885 173.245C224.451 173.821 222.284 174.843 220.776 175.597L221 176.044ZM222.5 133.544L222.195 133.148C219.951 134.874 215.5 140.04 215.5 147.044H216H216.5C216.5 140.448 220.716 135.547 222.805 133.94L222.5 133.544ZM216 147.044H215.5C215.5 150.507 216.478 155.932 217.713 161.33C218.952 166.743 220.461 172.181 221.548 175.692L222.026 175.544L222.504 175.396C221.424 171.907 219.921 166.494 218.688 161.107C217.452 155.706 216.5 150.381 216.5 147.044H216ZM207 118.03L206.502 118.072C206.578 118.988 206.344 121.177 205.705 123.531C205.065 125.887 204.051 128.286 202.647 129.69L203 130.044L203.354 130.397C204.949 128.802 206.018 126.194 206.67 123.793C207.323 121.39 207.589 119.072 207.498 117.989L207 118.03ZM203 130.044L202.647 129.69C200.759 131.578 197.945 132.527 195.097 132.821C192.251 133.114 189.456 132.743 187.676 132.076L187.5 132.544L187.325 133.012C189.273 133.743 192.227 134.122 195.2 133.816C198.169 133.51 201.241 132.51 203.354 130.397L203 130.044ZM187.5 132.544L187.676 132.076C185.802 131.373 184.3 129.919 183.367 128.351C182.419 126.757 182.128 125.172 182.471 124.212L182 124.044L181.529 123.876C181.039 125.249 181.498 127.164 182.508 128.862C183.533 130.585 185.198 132.215 187.325 133.012L187.5 132.544ZM182 124.044L182.354 124.397L183.854 122.897L183.5 122.544L183.147 122.19L181.647 123.69L182 124.044ZM171 141.044L170.536 140.858C169.163 144.291 167.288 153.872 170.519 165.181L171 165.044L171.481 164.907C168.312 153.816 170.171 144.463 171.464 141.23L171 141.044ZM208.5 195.544V195.044C206.851 195.044 204.847 195.908 203.2 197.144L203.5 197.544L203.8 197.944C205.353 196.779 207.149 196.044 208.5 196.044V195.544ZM203.5 197.544L203.2 197.144C201.351 198.531 199.018 198.544 197.5 198.544V199.044V199.544C198.982 199.544 201.649 199.557 203.8 197.944L203.5 197.544ZM197.5 199.044V198.544C197.193 198.544 196.811 198.466 196.311 198.347C195.83 198.232 195.259 198.085 194.641 197.988C193.388 197.79 191.899 197.786 190.276 198.597L190.5 199.044L190.724 199.491C192.101 198.802 193.362 198.798 194.485 198.975C195.054 199.065 195.576 199.2 196.08 199.319C196.564 199.435 197.057 199.544 197.5 199.544V199.044ZM190.5 199.044L190.276 198.597C188.715 199.377 187.54 200.422 186.56 201.218C185.54 202.047 184.797 202.544 184 202.544V203.044V203.544C185.203 203.544 186.21 202.791 187.19 201.994C188.211 201.166 189.285 200.211 190.724 199.491L190.5 199.044ZM184 203.044V202.544C183.581 202.544 183.29 202.44 183.1 202.295C182.916 202.154 182.789 201.947 182.744 201.655C182.65 201.044 182.928 200.06 183.89 198.856L183.5 198.544L183.11 198.232C182.072 199.528 181.6 200.793 181.756 201.807C181.836 202.328 182.084 202.777 182.494 203.09C182.898 203.398 183.419 203.544 184 203.544V203.044ZM183.5 198.544L183.89 198.856C185.576 196.749 188.712 194.998 191.186 194.008L191 193.544L190.814 193.08C188.288 194.09 184.958 195.921 183.11 198.232L183.5 198.544ZM187 189.544L186.723 189.128C185.458 189.971 183.49 191.409 181.683 192.993C180.779 193.785 179.91 194.619 179.186 195.438C178.468 196.252 177.871 197.075 177.54 197.847L178 198.044L178.46 198.241C178.729 197.613 179.245 196.882 179.936 196.1C180.622 195.323 181.458 194.52 182.342 193.745C184.11 192.195 186.042 190.783 187.277 189.96L187 189.544ZM178 198.044L177.54 197.847C177.246 198.535 177.149 199.162 177.233 199.713C177.319 200.271 177.585 200.72 177.957 201.045C178.683 201.681 179.769 201.815 180.658 201.518L180.5 201.044L180.342 200.57C179.731 200.773 179.031 200.657 178.615 200.293C178.415 200.118 178.271 199.88 178.222 199.562C178.172 199.239 178.219 198.803 178.46 198.241L178 198.044ZM180.5 201.044L180.658 201.518C181.354 201.286 181.998 200.817 182.537 200.326C183.081 199.83 183.55 199.283 183.89 198.856L183.5 198.544L183.11 198.232C182.784 198.639 182.352 199.141 181.863 199.587C181.369 200.038 180.846 200.402 180.342 200.57L180.5 201.044ZM184 186.544L183.752 186.11C182.596 186.77 179.202 188.635 176.647 191.19L177 191.544L177.354 191.897C179.798 189.453 183.07 187.651 184.248 186.978L184 186.544ZM177 191.544L176.647 191.19C173.983 193.854 173.5 196.444 173.5 198.544H174H174.5C174.5 196.644 174.918 194.333 177.354 191.897L177 191.544ZM174 198.544H173.5C173.5 199.487 173.986 200.158 174.651 200.491C175.292 200.812 176.083 200.812 176.724 200.491L176.5 200.044L176.276 199.597C175.917 199.776 175.458 199.776 175.099 199.597C174.765 199.43 174.5 199.101 174.5 198.544H174ZM176.5 200.044L176.724 200.491C177.23 200.238 177.591 199.834 177.857 199.427C178.122 199.023 178.312 198.585 178.46 198.241L178 198.044L177.54 197.847C177.391 198.195 177.231 198.557 177.02 198.88C176.811 199.2 176.57 199.45 176.276 199.597L176.5 200.044ZM204 184.945L203.902 184.455C203.542 184.527 202.09 184.628 200.193 184.607C198.312 184.586 196.055 184.445 194.098 184.054L194 184.544L193.902 185.034C195.945 185.443 198.271 185.586 200.182 185.607C202.077 185.628 203.625 185.53 204.098 185.435L204 184.945ZM194 184.544L194.098 184.054C192.872 183.808 191.796 183.501 190.793 183.198C189.798 182.897 188.854 182.594 187.93 182.37C186.051 181.917 184.202 181.783 181.842 182.57L182 183.044L182.158 183.518C184.298 182.805 185.949 182.921 187.695 183.342C188.583 183.557 189.484 183.847 190.504 184.155C191.517 184.462 192.628 184.78 193.902 185.034L194 184.544ZM182 183.044L181.842 182.57C179.473 183.359 177.001 185.37 174.969 187.547C172.932 189.728 171.267 192.151 170.54 193.847L171 194.044L171.46 194.241C172.126 192.687 173.71 190.36 175.7 188.229C177.695 186.093 180.027 184.229 182.158 183.518L182 183.044ZM171 194.044L170.54 193.847C169.775 195.633 169.796 196.891 170.436 197.623C171.072 198.349 172.093 198.306 172.724 197.991L172.5 197.544L172.276 197.097C171.907 197.282 171.429 197.239 171.189 196.965C170.955 196.697 170.725 195.955 171.46 194.241L171 194.044ZM172.5 197.544L172.724 197.991C172.932 197.887 173.108 197.723 173.256 197.552C173.407 197.378 173.553 197.169 173.695 196.945C173.976 196.504 174.287 195.932 174.62 195.357C175.304 194.175 176.141 192.872 177.312 191.934L177 191.544L176.688 191.154C175.359 192.216 174.446 193.663 173.755 194.856C173.4 195.468 173.118 195.99 172.852 196.408C172.721 196.614 172.605 196.776 172.5 196.897C172.393 197.021 172.318 197.076 172.276 197.097L172.5 197.544ZM208.5 180.654L208.321 181.121C210.311 181.886 213.551 184.798 215.018 190.176L215.5 190.044L215.982 189.912C214.449 184.29 211.023 181.089 208.68 180.188L208.5 180.654ZM215.5 190.044L215.018 190.176C216.033 193.897 215.148 196.78 214.223 198.241L214.645 198.508L215.067 198.776C216.141 197.082 217.072 193.909 215.982 189.912L215.5 190.044ZM203.5 197.544H203C203 197.946 203.143 198.36 203.333 198.73C203.527 199.108 203.789 199.48 204.072 199.807C204.356 200.134 204.673 200.429 204.985 200.648C205.276 200.852 205.64 201.044 206 201.044V200.544V200.044C205.96 200.044 205.811 200.006 205.559 199.829C205.327 199.666 205.069 199.43 204.828 199.152C204.587 198.874 204.374 198.568 204.223 198.275C204.069 197.974 204 197.723 204 197.544H203.5ZM201 183.044C200.627 182.711 200.627 182.711 200.627 182.711C200.627 182.711 200.627 182.711 200.627 182.711C200.627 182.711 200.627 182.711 200.627 182.711C200.626 182.712 200.626 182.712 200.626 182.712C200.625 182.713 200.624 182.714 200.624 182.715C200.622 182.717 200.62 182.719 200.618 182.722C200.613 182.727 200.607 182.734 200.6 182.743C200.585 182.76 200.566 182.784 200.543 182.814C200.498 182.873 200.438 182.957 200.373 183.062C200.246 183.269 200.093 183.572 200.012 183.935L200.5 184.044L200.988 184.152C201.038 183.93 201.135 183.732 201.225 183.586C201.269 183.514 201.309 183.458 201.337 183.422C201.351 183.403 201.362 183.39 201.368 183.383C201.371 183.379 201.373 183.377 201.374 183.376C201.375 183.375 201.375 183.375 201.374 183.375C201.374 183.375 201.374 183.376 201.374 183.376C201.374 183.376 201.374 183.376 201.373 183.377C201.373 183.377 201.373 183.377 201.373 183.377C201.373 183.377 201.373 183.377 201.373 183.377C201.373 183.377 201.373 183.377 201 183.044ZM200.5 184.044L200.012 183.935C199.933 184.29 199.934 184.609 199.953 184.839C199.963 184.954 199.977 185.049 199.99 185.118C199.997 185.152 200.003 185.18 200.008 185.201C200.01 185.211 200.012 185.22 200.014 185.227C200.015 185.23 200.015 185.233 200.016 185.235C200.016 185.236 200.017 185.237 200.017 185.238C200.017 185.239 200.017 185.239 200.017 185.24C200.017 185.24 200.017 185.24 200.017 185.24C200.018 185.24 200.018 185.24 200.018 185.241C200.018 185.241 200.018 185.241 200.5 185.109C200.982 184.978 200.983 184.978 200.983 184.978C200.983 184.978 200.983 184.978 200.983 184.979C200.983 184.979 200.983 184.979 200.983 184.979C200.983 184.979 200.983 184.98 200.983 184.98C200.983 184.98 200.983 184.981 200.983 184.981C200.983 184.981 200.983 184.982 200.983 184.981C200.983 184.981 200.983 184.978 200.982 184.974C200.98 184.967 200.977 184.953 200.973 184.933C200.966 184.893 200.956 184.832 200.949 184.755C200.936 184.598 200.937 184.385 200.988 184.152L200.5 184.044ZM208.5 193.544L208.993 193.462C208.475 190.35 206.526 187.092 205.384 185.724L205 186.044L204.616 186.364C205.68 187.639 207.525 190.738 208.007 193.626L208.5 193.544ZM205 186.044L205.384 185.724C204.684 184.884 203.908 184.107 203.169 183.534C202.799 183.248 202.429 183.005 202.073 182.833C201.724 182.663 201.356 182.544 201 182.544V183.044V183.544C201.144 183.544 201.356 183.596 201.636 183.732C201.911 183.866 202.222 184.066 202.556 184.325C203.225 184.843 203.949 185.565 204.616 186.364L205 186.044ZM156.5 168.044L156.777 167.628C155.993 167.105 154.713 166.442 153.388 165.861C152.065 165.281 150.651 164.764 149.598 164.554L149.5 165.044L149.402 165.534C150.349 165.724 151.685 166.206 152.987 166.777C154.287 167.346 155.507 167.983 156.223 168.46L156.5 168.044ZM171 165.044L170.519 165.181C170.67 165.71 170.812 166.208 170.944 166.679L171.426 166.544L171.907 166.409C171.774 165.936 171.632 165.436 171.481 164.907L171 165.044ZM171.426 166.544L170.944 166.679C171.613 169.057 172.052 170.721 172.325 171.909C172.6 173.106 172.699 173.788 172.705 174.215C172.711 174.604 172.639 174.753 172.549 174.903C172.44 175.082 172.211 175.375 172.03 175.873L172.5 176.044L172.97 176.215C173.107 175.839 173.237 175.698 173.405 175.419C173.591 175.111 173.713 174.779 173.705 174.201C173.698 173.66 173.577 172.89 173.3 171.685C173.021 170.473 172.577 168.789 171.907 166.409L171.426 166.544ZM171.426 166.544L171.015 166.258C170.03 167.671 168.427 169.916 166.822 172.056C165.209 174.207 163.617 176.22 162.647 177.19L163 177.544L163.354 177.897C164.383 176.868 166.016 174.798 167.622 172.656C169.236 170.505 170.846 168.25 171.836 166.83L171.426 166.544ZM163 177.544L162.647 177.19C161.695 178.142 160.284 179.073 158.881 179.857C157.484 180.638 156.129 181.254 155.314 181.58L155.5 182.044L155.686 182.508C156.538 182.167 157.933 181.533 159.369 180.73C160.799 179.931 162.305 178.946 163.354 177.897L163 177.544ZM142.5 169.544L142.997 169.489C142.905 168.658 142.428 167.096 141.579 165.497C140.728 163.894 139.468 162.185 137.765 161.12L137.5 161.544L137.235 161.968C138.732 162.903 139.888 164.444 140.696 165.966C141.506 167.492 141.929 168.93 142.003 169.599L142.5 169.544ZM137.5 161.544L137.765 161.12C133.734 158.601 131.198 157.583 129.658 157.07L129.5 157.544L129.342 158.018C130.802 158.505 133.266 159.487 137.235 161.968L137.5 161.544ZM129.5 157.544L129.658 157.07C129.057 156.869 128.503 157.099 128.064 157.464C127.629 157.824 127.235 158.368 126.88 158.981C126.166 160.214 125.528 161.879 125.026 163.386L125.5 163.544L125.974 163.702C126.472 162.209 127.084 160.624 127.745 159.482C128.078 158.907 128.402 158.482 128.702 158.233C128.997 157.989 129.194 157.969 129.342 158.018L129.5 157.544ZM125.5 172.044V172.544C126.093 172.544 126.584 172.392 127 172.059C127.398 171.741 127.687 171.288 127.947 170.768L127.5 170.544L127.053 170.32C126.813 170.8 126.602 171.097 126.375 171.279C126.166 171.446 125.907 171.544 125.5 171.544V172.044ZM127.5 170.544L127.947 170.768C128.404 169.855 129.076 168.298 129.674 166.81C130.269 165.33 130.809 163.871 130.985 163.165L130.5 163.044L130.015 162.923C129.858 163.55 129.345 164.947 128.747 166.437C128.152 167.918 127.491 169.444 127.053 170.32L127.5 170.544ZM133.5 169.544L133.223 169.128C132.492 169.615 131.783 169.967 131.093 170.359C130.428 170.737 129.782 171.153 129.327 171.737L129.722 172.044L130.117 172.351C130.44 171.935 130.933 171.601 131.587 171.229C132.217 170.871 133.008 170.473 133.777 169.96L133.5 169.544ZM129.722 172.044L129.327 171.737C128.708 172.533 128.527 173.352 128.818 174.026C129.106 174.694 129.787 175.044 130.5 175.044V174.544V174.044C130.095 174.044 129.833 173.855 129.736 173.629C129.64 173.409 129.629 172.978 130.117 172.351L129.722 172.044ZM130.188 164.044L130.067 164.529C130.749 164.7 131.336 164.8 132.276 165.271L132.5 164.823L132.724 164.376C131.664 163.847 130.96 163.722 130.309 163.559L130.188 164.044ZM127.867 158.395L128.053 157.931C127.86 157.854 127.639 157.726 127.259 157.545C126.915 157.381 126.495 157.203 126.038 157.106C125.579 157.007 125.065 156.986 124.545 157.154C124.019 157.324 123.529 157.673 123.1 158.244L123.5 158.544L123.9 158.844C124.222 158.415 124.548 158.204 124.852 158.106C125.16 158.006 125.488 158.011 125.829 158.083C126.173 158.157 126.511 158.296 126.829 158.448C127.112 158.583 127.457 158.77 127.682 158.859L127.867 158.395ZM125.5 163.544L125.026 163.386C124.257 165.693 123.5 167.946 123.5 170.044H124H124.5C124.5 168.142 125.19 166.055 125.974 163.702L125.5 163.544ZM124 170.044H123.5C123.5 171.82 124.724 172.544 125.5 172.544V172.044V171.544C125.276 171.544 124.5 171.268 124.5 170.044H124ZM122.5 171.544V172.044C123.762 172.044 124.647 171.09 124.496 169.977L124 170.044L123.505 170.111C123.564 170.546 123.238 171.044 122.5 171.044V171.544ZM123.5 158.544L123.1 158.244C123.015 158.358 122.957 158.479 122.916 158.571C122.867 158.68 122.843 158.741 122.803 158.822L123.251 159.044L123.699 159.266C123.749 159.165 123.8 159.043 123.828 158.981C123.863 158.902 123.884 158.865 123.9 158.844L123.5 158.544ZM123.251 159.044L122.803 158.822C121.661 161.127 121.496 163 121.015 164.923L121.5 165.044L121.985 165.165C122.505 163.088 122.621 161.442 123.699 159.266L123.251 159.044ZM123.251 159.044L123.388 158.563C123.113 158.485 122.524 158.299 121.888 158.386C121.205 158.48 120.524 158.878 120.053 159.82L120.5 160.044L120.947 160.268C121.276 159.61 121.679 159.424 122.025 159.377C122.418 159.323 122.805 159.437 123.114 159.525L123.251 159.044ZM121.5 165.044L121.015 164.923C120.901 165.379 120.764 166.413 120.661 167.363C120.608 167.846 120.564 168.32 120.534 168.707C120.506 169.077 120.489 169.41 120.502 169.581L121 169.544L121.499 169.506C121.493 169.426 121.502 169.174 121.531 168.783C121.56 168.409 121.603 167.946 121.655 167.471C121.759 166.506 121.891 165.543 121.985 165.165L121.5 165.044ZM121 169.544L120.502 169.581C120.555 170.287 120.75 170.891 121.09 171.331C121.44 171.783 121.932 172.044 122.5 172.044V171.544V171.044C122.266 171.044 122.057 170.946 121.881 170.719C121.696 170.48 121.542 170.084 121.499 169.506L121 169.544ZM119 168.044H118.5C118.5 168.918 118.86 169.703 119.41 170.127C119.689 170.343 120.04 170.479 120.42 170.44C120.806 170.399 121.142 170.184 121.398 169.846L121 169.544L120.602 169.242C120.478 169.404 120.375 169.439 120.315 169.445C120.248 169.452 120.147 169.433 120.021 169.336C119.761 169.135 119.5 168.669 119.5 168.044H119ZM120.5 160.044L120.053 159.82C119.833 160.261 119.671 160.827 119.516 161.417L120 161.544L120.484 161.671C120.641 161.071 120.78 160.601 120.947 160.268L120.5 160.044ZM120 161.544L119.516 161.417C118.858 163.927 118.5 166.782 118.5 168.044H119H119.5C119.5 166.887 119.841 164.119 120.484 161.671L120 161.544ZM120 161.544L120.356 161.193C119.986 160.816 119.36 160.611 118.748 160.906C118.154 161.193 117.723 161.88 117.51 162.946L118 163.044L118.49 163.142C118.677 162.208 119.001 161.895 119.183 161.807C119.348 161.727 119.523 161.772 119.644 161.895L120 161.544ZM118 163.044L117.51 162.946C117.261 164.19 117.007 165.46 116.879 166.482C116.815 166.992 116.78 167.462 116.798 167.848C116.806 168.041 116.829 168.229 116.875 168.399C116.921 168.564 116.999 168.75 117.147 168.898L117.5 168.544L117.854 168.19C117.876 168.213 117.861 168.212 117.84 168.134C117.82 168.062 117.803 167.953 117.796 167.802C117.783 167.501 117.81 167.096 117.871 166.606C117.994 165.628 118.239 164.398 118.49 163.142L118 163.044ZM117.5 168.544L117.147 168.898C117.4 169.151 117.683 169.313 117.987 169.363C118.293 169.413 118.573 169.341 118.799 169.21C119.217 168.965 119.5 168.485 119.5 168.044L119 168.044L118.5 168.044C118.5 168.059 118.491 168.114 118.448 168.188C118.406 168.258 118.35 168.314 118.294 168.346C118.244 168.375 118.198 168.384 118.149 168.376C118.097 168.368 117.996 168.332 117.854 168.19L117.5 168.544ZM140.317 174.429L140.235 173.936C139.288 174.093 138.533 174.044 137.5 174.044V174.544V175.044C138.467 175.044 139.346 175.097 140.399 174.922L140.317 174.429ZM130.5 174.544V175.044C131.062 175.044 131.98 174.882 132.852 174.682C133.734 174.48 134.636 174.223 135.182 174.01L135 173.544L134.818 173.078C134.338 173.266 133.491 173.509 132.629 173.707C131.757 173.907 130.938 174.044 130.5 174.044V174.544ZM135 173.544L135.158 174.018C135.865 173.783 136.577 173.663 137.332 173.537C138.077 173.413 138.865 173.283 139.658 173.018L139.5 172.544L139.342 172.07C138.635 172.305 137.923 172.425 137.168 172.551C136.423 172.675 135.635 172.805 134.842 173.07L135 173.544ZM137.5 174.544V174.044C136.456 174.044 135.778 173.615 135.354 173.19L135 173.544L134.646 173.897C135.222 174.473 136.144 175.044 137.5 175.044V174.544ZM142 164L142.158 163.526C140.857 163.092 140.021 162.969 139.627 163.002L139.668 163.5L139.71 163.998C139.89 163.983 140.562 164.048 141.842 164.474L142 164ZM142 164L141.64 164.347C141.741 164.452 141.902 164.704 142.064 165.107C142.222 165.498 142.366 165.996 142.456 166.56C142.637 167.691 142.594 169.055 142.04 170.347L142.5 170.544L142.96 170.741C143.606 169.233 143.646 167.67 143.444 166.402C143.342 165.767 143.178 165.197 142.992 164.734C142.811 164.283 142.592 163.893 142.36 163.653L142 164ZM142.5 170.544L142.04 170.347C140.866 173.087 139.27 175.067 138.646 175.69L139 176.044L139.354 176.398C140.064 175.687 141.734 173.601 142.96 170.741L142.5 170.544ZM149.5 165.044L149.598 164.554C148.721 164.378 148.395 164.319 146.998 164.323L147 164.823L147.002 165.323C148.329 165.319 148.588 165.371 149.402 165.534L149.5 165.044ZM147 164.823L147.105 164.335C146.333 164.168 145.688 164.085 144.943 163.983C144.198 163.88 143.334 163.757 142.098 163.51L142 164L141.902 164.49C143.166 164.743 144.052 164.87 144.807 164.973C145.562 165.077 146.167 165.155 146.895 165.312L147 164.823ZM147 164.823L146.634 165.164C146.815 165.358 147.023 165.727 147.202 166.262C147.377 166.787 147.512 167.436 147.57 168.154C147.686 169.595 147.49 171.276 146.74 172.776L147.187 173L147.634 173.224C148.484 171.524 148.694 169.653 148.567 168.074C148.503 167.283 148.354 166.554 148.15 165.945C147.95 165.346 147.685 164.825 147.366 164.483L147 164.823ZM147.187 173L146.74 172.776C145.962 174.331 145.196 175.299 144.574 175.935C144.262 176.254 143.982 176.493 143.746 176.686C143.527 176.864 143.295 177.042 143.146 177.19L143.5 177.544L143.854 177.897C143.955 177.796 144.109 177.68 144.378 177.46C144.631 177.254 144.941 176.989 145.288 176.634C145.984 175.923 146.811 174.869 147.634 173.224L147.187 173Z" fill="#3E3E3E"/>
<path d="M214.622 199.029C214.889 198.962 215.052 198.691 214.985 198.423C214.918 198.155 214.647 197.992 214.379 198.059L214.622 199.029ZM201 183.044L200.829 182.574C200.752 182.602 200.683 182.649 200.628 182.711L201 183.044ZM208.5 180.654L208.68 180.188L208.516 180.125L208.349 180.178L208.5 180.654ZM208.5 196.044C208.776 196.044 209 195.82 209 195.544C209 195.268 208.776 195.044 208.5 195.044V196.044ZM183.5 198.544L183.11 198.232L183.5 198.544ZM191.186 194.008C191.442 193.906 191.567 193.615 191.465 193.358C191.362 193.102 191.071 192.977 190.815 193.08L191.186 194.008ZM187.278 189.96C187.507 189.807 187.57 189.496 187.416 189.267C187.263 189.037 186.953 188.975 186.723 189.128L187.278 189.96ZM178 198.044L177.541 197.847L178 198.044ZM180.5 201.044L180.342 200.57L180.5 201.044ZM184.248 186.978C184.488 186.841 184.571 186.536 184.434 186.296C184.297 186.056 183.992 185.973 183.752 186.11L184.248 186.978ZM204.098 185.435C204.369 185.381 204.545 185.118 204.491 184.847C204.436 184.576 204.173 184.401 203.902 184.455L204.098 185.435ZM194 184.544L194.098 184.054L194 184.544ZM171 194.044L171.46 194.241L171 194.044ZM215.5 190.044L215.983 189.912L215.5 190.044ZM214.223 198.241C214.075 198.474 214.144 198.783 214.377 198.931C214.611 199.079 214.92 199.009 215.067 198.776L214.223 198.241ZM200.018 185.241C200.09 185.507 200.365 185.664 200.632 185.592C200.898 185.519 201.055 185.244 200.983 184.978L200.018 185.241ZM205 186.044L205.384 185.724L205 186.044ZM214.5 198.544L214.379 198.059C213.381 198.308 211.818 198.826 210.303 199.25C208.74 199.688 207.174 200.044 206 200.044V200.544V201.044C207.326 201.044 209.011 200.65 210.573 200.213C212.182 199.762 213.62 199.279 214.622 199.029L214.5 198.544ZM206 200.544L206.3 200.944C207.351 200.156 208.193 199.22 208.685 197.991C209.176 196.763 209.298 195.29 208.994 193.462L208.5 193.544L208.007 193.626C208.291 195.327 208.163 196.604 207.757 197.619C207.351 198.632 206.65 199.432 205.7 200.144L206 200.544ZM201 183.044L201.171 183.514C202.992 182.852 206.687 181.754 208.652 181.131L208.5 180.654L208.349 180.178C206.425 180.788 202.675 181.903 200.829 182.574L201 183.044ZM208.5 195.544V195.044C206.852 195.044 204.848 195.908 203.2 197.144L203.5 197.544L203.8 197.944C205.353 196.779 207.149 196.044 208.5 196.044V195.544ZM203.5 197.544L203.2 197.144C201.351 198.531 199.018 198.544 197.5 198.544V199.044V199.544C198.983 199.544 201.65 199.557 203.8 197.944L203.5 197.544ZM197.5 199.044V198.544C197.193 198.544 196.811 198.466 196.311 198.347C195.83 198.232 195.259 198.085 194.641 197.988C193.388 197.79 191.899 197.786 190.277 198.597L190.5 199.044L190.724 199.491C192.102 198.802 193.363 198.798 194.485 198.975C195.054 199.065 195.577 199.2 196.08 199.319C196.564 199.435 197.058 199.544 197.5 199.544V199.044ZM190.5 199.044L190.277 198.597C188.715 199.377 187.54 200.422 186.56 201.218C185.541 202.047 184.798 202.544 184 202.544V203.044V203.544C185.203 203.544 186.21 202.791 187.191 201.995C188.211 201.166 189.285 200.211 190.724 199.491L190.5 199.044ZM184 203.044V202.544C183.582 202.544 183.29 202.44 183.101 202.295C182.916 202.154 182.789 201.947 182.744 201.655C182.651 201.044 182.928 200.06 183.891 198.856L183.5 198.544L183.11 198.232C182.073 199.528 181.6 200.793 181.756 201.808C181.836 202.329 182.084 202.777 182.494 203.09C182.898 203.398 183.419 203.544 184 203.544V203.044ZM183.5 198.544L183.891 198.856C185.576 196.749 188.712 194.998 191.186 194.008L191 193.544L190.815 193.08C188.288 194.09 184.958 195.921 183.11 198.232L183.5 198.544ZM187 189.544L186.723 189.128C185.458 189.971 183.49 191.409 181.683 192.993C180.78 193.785 179.91 194.619 179.186 195.438C178.468 196.252 177.871 197.075 177.541 197.847L178 198.044L178.46 198.241C178.729 197.613 179.245 196.882 179.936 196.1C180.622 195.323 181.458 194.52 182.342 193.745C184.11 192.195 186.042 190.783 187.278 189.96L187 189.544ZM178 198.044L177.541 197.847C177.246 198.535 177.149 199.162 177.234 199.713C177.319 200.271 177.585 200.72 177.957 201.045C178.684 201.681 179.769 201.815 180.658 201.518L180.5 201.044L180.342 200.57C179.731 200.773 179.031 200.657 178.615 200.293C178.416 200.118 178.271 199.88 178.222 199.562C178.173 199.239 178.219 198.803 178.46 198.241L178 198.044ZM180.5 201.044L180.658 201.518C181.354 201.286 181.998 200.817 182.537 200.326C183.081 199.83 183.55 199.283 183.891 198.856L183.5 198.544L183.11 198.232C182.784 198.639 182.353 199.141 181.864 199.587C181.369 200.038 180.846 200.402 180.342 200.57L180.5 201.044ZM184 186.544L183.752 186.11C182.597 186.77 179.202 188.635 176.647 191.19L177 191.544L177.354 191.898C179.798 189.453 183.071 187.651 184.248 186.978L184 186.544ZM177 191.544L176.647 191.19C173.983 193.854 173.5 196.444 173.5 198.544H174H174.5C174.5 196.644 174.919 194.333 177.354 191.898L177 191.544ZM174 198.544H173.5C173.5 199.487 173.986 200.158 174.652 200.491C175.292 200.812 176.083 200.812 176.724 200.491L176.5 200.044L176.277 199.597C175.917 199.776 175.458 199.776 175.099 199.597C174.765 199.43 174.5 199.101 174.5 198.544H174ZM176.5 200.044L176.724 200.491C177.231 200.238 177.591 199.834 177.857 199.427C178.122 199.023 178.312 198.585 178.46 198.241L178 198.044L177.541 197.847C177.392 198.195 177.232 198.557 177.021 198.88C176.811 199.2 176.57 199.45 176.277 199.597L176.5 200.044ZM204 184.945L203.902 184.455C203.542 184.527 202.09 184.628 200.193 184.607C198.313 184.586 196.056 184.445 194.098 184.054L194 184.544L193.902 185.034C195.945 185.443 198.271 185.586 200.182 185.607C202.077 185.628 203.625 185.53 204.098 185.435L204 184.945ZM194 184.544L194.098 184.054C192.872 183.808 191.796 183.501 190.793 183.198C189.798 182.897 188.855 182.594 187.93 182.37C186.051 181.917 184.202 181.783 181.842 182.57L182 183.044L182.158 183.518C184.298 182.805 185.95 182.921 187.695 183.343C188.584 183.557 189.484 183.847 190.504 184.155C191.517 184.462 192.629 184.78 193.902 185.034L194 184.544ZM182 183.044L181.842 182.57C179.473 183.359 177.002 185.37 174.97 187.547C172.933 189.728 171.268 192.151 170.541 193.847L171 194.044L171.46 194.241C172.126 192.687 173.711 190.36 175.701 188.229C177.695 186.093 180.028 184.229 182.158 183.518L182 183.044ZM171 194.044L170.541 193.847C169.775 195.633 169.796 196.891 170.437 197.623C171.072 198.349 172.094 198.306 172.724 197.991L172.5 197.544L172.277 197.097C171.907 197.282 171.429 197.239 171.189 196.965C170.955 196.697 170.725 195.955 171.46 194.241L171 194.044ZM172.5 197.544L172.724 197.991C172.932 197.887 173.108 197.723 173.256 197.552C173.407 197.378 173.553 197.169 173.696 196.945C173.976 196.504 174.288 195.932 174.621 195.357C175.305 194.175 176.141 192.872 177.313 191.934L177 191.544L176.688 191.154C175.36 192.216 174.446 193.663 173.755 194.856C173.401 195.468 173.118 195.99 172.852 196.408C172.721 196.614 172.605 196.776 172.501 196.897C172.393 197.021 172.318 197.076 172.277 197.097L172.5 197.544ZM208.5 180.654L208.321 181.121C210.311 181.886 213.551 184.798 215.018 190.176L215.5 190.044L215.983 189.912C214.449 184.29 211.023 181.089 208.68 180.188L208.5 180.654ZM215.5 190.044L215.018 190.176C216.033 193.897 215.149 196.781 214.223 198.241L214.645 198.508L215.067 198.776C216.142 197.082 217.073 193.909 215.983 189.912L215.5 190.044ZM203.5 197.544H203C203 197.946 203.144 198.36 203.333 198.73C203.527 199.108 203.789 199.48 204.073 199.807C204.356 200.134 204.673 200.429 204.985 200.648C205.276 200.852 205.64 201.044 206 201.044V200.544V200.044C205.961 200.044 205.812 200.006 205.559 199.829C205.327 199.666 205.069 199.43 204.828 199.152C204.587 198.874 204.374 198.568 204.223 198.275C204.069 197.974 204 197.723 204 197.544H203.5ZM201 183.044C200.628 182.711 200.628 182.711 200.627 182.711C200.627 182.711 200.627 182.711 200.627 182.711C200.627 182.711 200.627 182.711 200.627 182.711C200.627 182.712 200.626 182.712 200.626 182.713C200.625 182.713 200.625 182.714 200.624 182.715C200.622 182.717 200.62 182.719 200.618 182.722C200.613 182.727 200.607 182.734 200.6 182.743C200.586 182.76 200.566 182.784 200.544 182.814C200.498 182.873 200.438 182.957 200.373 183.062C200.246 183.269 200.093 183.572 200.012 183.936L200.5 184.044L200.988 184.152C201.038 183.93 201.135 183.732 201.225 183.586C201.269 183.514 201.31 183.458 201.337 183.422C201.351 183.404 201.362 183.39 201.368 183.383C201.372 183.379 201.374 183.377 201.374 183.376C201.375 183.375 201.375 183.375 201.375 183.375C201.375 183.375 201.374 183.376 201.374 183.376C201.374 183.376 201.374 183.376 201.374 183.377C201.374 183.377 201.373 183.377 201.373 183.377C201.373 183.377 201.373 183.377 201.373 183.377C201.373 183.377 201.373 183.377 201 183.044ZM200.5 184.044L200.012 183.936C199.933 184.29 199.934 184.609 199.953 184.839C199.963 184.954 199.978 185.05 199.991 185.118C199.997 185.152 200.003 185.18 200.008 185.201C200.01 185.211 200.012 185.22 200.014 185.227C200.015 185.23 200.016 185.233 200.016 185.235C200.017 185.236 200.017 185.237 200.017 185.238C200.017 185.239 200.017 185.239 200.018 185.24C200.018 185.24 200.018 185.24 200.018 185.24C200.018 185.24 200.018 185.241 200.018 185.241C200.018 185.241 200.018 185.241 200.5 185.109C200.983 184.978 200.983 184.978 200.983 184.978C200.983 184.978 200.983 184.978 200.983 184.979C200.983 184.979 200.983 184.979 200.983 184.979C200.983 184.979 200.983 184.98 200.983 184.98C200.983 184.98 200.983 184.981 200.984 184.981C200.984 184.981 200.984 184.982 200.984 184.981C200.983 184.981 200.983 184.978 200.982 184.974C200.98 184.967 200.977 184.953 200.973 184.933C200.966 184.893 200.956 184.832 200.95 184.755C200.936 184.598 200.937 184.385 200.988 184.152L200.5 184.044ZM208.5 193.544L208.994 193.462C208.475 190.35 206.526 187.092 205.384 185.724L205 186.044L204.616 186.364C205.68 187.639 207.526 190.738 208.007 193.626L208.5 193.544ZM205 186.044L205.384 185.724C204.684 184.884 203.908 184.107 203.169 183.534C202.799 183.248 202.429 183.005 202.074 182.833C201.724 182.663 201.356 182.544 201 182.544V183.044V183.544C201.145 183.544 201.356 183.596 201.636 183.732C201.911 183.866 202.222 184.066 202.557 184.325C203.225 184.843 203.949 185.565 204.616 186.364L205 186.044Z" fill="#3E3E3E"/>
<path d="M173.5 78.0454C173 77.7118 171.4 77.1445 169 77.5449C166.6 77.9453 165.666 79.3781 165.5 80.0444M185.5 78.5444C186 78.2118 187.7 77.6462 190.5 78.0454C193.3 78.4446 196 80.5444 197 81.5444M175.5 90.5439C175.667 89.8773 176.5 89.0439 178 89.0439C179.5 89.0439 180.833 89.8773 181.5 90.5439M175.5 90.5439C175.5 95.7907 171.471 99.5439 166.5 99.5439C161.529 99.5439 159 94.5439 159 90.5439C159 86.5439 161.529 81.5444 166.5 81.5444C171.471 81.5444 175.5 85.2972 175.5 90.5439ZM199 90.0439H206.5M176 93.5439C175.333 94.2106 173.8 96.3439 173 97.5439C172 99.0439 172.5 100.544 174 101.544C175.2 102.344 177.167 102.211 178 102.044M173.5 107.544C174.333 108.044 176.8 108.944 180 108.544C183.2 108.144 186.333 106.711 187.5 106.044M214 93.0439C213.333 92.7106 211.7 92.2439 210.5 93.0439C209.3 93.8439 209 95.3773 209 96.0439M199 91.5439C199 96.7907 194.971 100.544 190 100.544C185.029 100.544 181.5 96.7907 181.5 91.5439C181.5 86.2972 185.029 82.5439 190 82.5439C194.971 82.5439 199 86.2972 199 91.5439Z" stroke="#3E3E3E" stroke-linecap="round"/>
<path d="M191 91.0439C191.5 93.0439 190.867 94.5439 189.5 94.5439C187.5 94.5439 187 92.9247 187 91.5439C187 90.1632 187.619 89.0439 189 89.0439C190 89.0439 190.606 89.466 191 91.0439Z" fill="#3E3E3E"/>
<path d="M171 90.0439C171 92.0439 170.498 94.0394 168.651 94.0394C167.27 94.0394 166.651 92.4201 166.651 91.0394C166.651 89.6587 167.619 88.0439 169 88.0439C170.381 88.0439 171 89.4274 171 90.0439Z" fill="#3E3E3E"/>
<path d="M106.218 199.028C105.918 198.463 105.96 198.005 106.149 197.655C106.416 197.158 107.053 196.994 107.604 197.116C108.06 197.216 108.546 197.458 108.852 198.036C109.093 198.489 109.004 198.942 108.836 199.301C108.591 199.825 108.007 200.115 107.445 199.978C107.019 199.874 106.532 199.62 106.218 199.028Z" fill="#3E3E3E"/>
<path d="M112.868 187.315C113.405 187.539 113.852 188.02 114.173 188.781C114.495 189.546 114.674 190.561 114.688 191.771C114.716 194.188 114.081 197.287 112.756 200.479C111.431 203.67 109.685 206.308 107.954 207.995C107.087 208.839 106.242 209.428 105.473 209.74C104.707 210.051 104.051 210.075 103.513 209.851C102.975 209.628 102.53 209.146 102.209 208.385C101.887 207.62 101.707 206.606 101.693 205.396C101.666 202.979 102.301 199.88 103.626 196.689C104.95 193.497 106.696 190.86 108.428 189.172C109.294 188.328 110.14 187.738 110.909 187.426C111.674 187.116 112.33 187.092 112.868 187.315Z" stroke="#3E3E3E"/>
<path d="M114.763 211.953C114.277 212.208 113.612 212.21 112.752 211.863C111.895 211.517 110.91 210.848 109.862 209.885C107.767 207.961 105.499 204.939 103.573 201.269C101.648 197.6 100.449 194.016 100.056 191.2C99.8592 189.789 99.8684 188.599 100.071 187.697C100.273 186.792 100.653 186.246 101.138 185.991C101.624 185.736 102.289 185.735 103.148 186.082C104.005 186.428 104.99 187.097 106.039 188.06C108.133 189.983 110.401 193.006 112.327 196.676C114.253 200.345 115.452 203.929 115.845 206.745C116.041 208.155 116.032 209.346 115.83 210.248C115.627 211.152 115.248 211.699 114.763 211.953Z" stroke="#3E3E3E"/>
<path d="M120.652 201.608C120.395 202.894 118.958 203.984 116.477 204.56C114.044 205.124 110.802 205.139 107.335 204.444C103.868 203.75 100.88 202.487 98.8532 201.029C96.7855 199.541 95.8791 197.982 96.1367 196.696C96.3945 195.41 97.8316 194.32 100.313 193.744C102.745 193.179 105.989 193.165 109.455 193.86C112.922 194.554 115.909 195.817 117.936 197.275C120.004 198.762 120.91 200.322 120.652 201.608Z" stroke="#3E3E3E"/>
<path d="M254 221.044L196.5 199.044M6 157.544L40 153.794M173.5 189.544L134 174.044M117.099 167.044L74 150.044L43 153.463M127.5 171.044L129.5 172.044" stroke="#3E3E3E" stroke-linecap="round"/>
<path d="M147.182 222.919C147.586 223.085 147.598 223.653 147.201 223.835L143.043 225.75C142.76 225.88 142.428 225.722 142.35 225.421L141.303 221.363C141.2 220.965 141.597 220.619 141.978 220.776L147.182 222.919ZM153.657 219.938C154.061 220.105 154.073 220.672 153.676 220.855L149.68 222.694C149.554 222.752 149.409 222.755 149.281 222.702L144.742 220.834C144.353 220.674 144.323 220.135 144.692 219.933L148.32 217.942C148.453 217.87 148.611 217.861 148.751 217.918L153.657 219.938ZM146.376 216.94C146.764 217.1 146.794 217.639 146.426 217.841L142.797 219.831C142.665 219.904 142.506 219.913 142.366 219.855L140.972 219.281C140.827 219.221 140.718 219.096 140.678 218.944L139.735 215.285C139.677 215.064 139.778 214.831 139.979 214.722L140.202 214.599C140.335 214.527 140.493 214.518 140.633 214.575L146.376 216.94ZM159.334 217.325C159.738 217.491 159.75 218.059 159.353 218.242L156.155 219.714C156.028 219.772 155.884 219.775 155.755 219.722L144.067 214.909C143.684 214.751 143.648 214.222 144.007 214.014L146.824 212.384C146.958 212.306 147.121 212.296 147.264 212.355L159.334 217.325ZM165.001 214.717C165.404 214.883 165.416 215.451 165.019 215.633L161.832 217.1C161.706 217.159 161.561 217.161 161.433 217.109L150.07 212.43C149.686 212.271 149.651 211.741 150.011 211.534L152.824 209.913C152.958 209.836 153.121 209.825 153.264 209.884L165.001 214.717ZM172.948 211.061C173.35 211.229 173.36 211.795 172.965 211.977L167.293 214.586C167.289 214.589 167.283 214.588 167.279 214.585L167.19 214.538L161.603 212.238C161.216 212.079 161.184 211.543 161.549 211.339L166.497 208.573C166.631 208.498 166.792 208.489 166.934 208.548L172.948 211.061ZM144.931 211.395C145.314 211.553 145.35 212.082 144.991 212.29L142.174 213.919C142.039 213.997 141.877 214.008 141.733 213.948L139.341 212.964C139.196 212.904 139.087 212.779 139.048 212.626L138.243 209.505C138.14 209.106 138.536 208.761 138.917 208.918L144.931 211.395ZM150.927 208.922C151.311 209.08 151.346 209.61 150.986 209.818L148.175 211.439C148.04 211.516 147.878 211.527 147.734 211.468L144.071 209.959C143.687 209.801 143.652 209.271 144.011 209.063L146.824 207.443C146.958 207.366 147.121 207.355 147.264 207.414L150.927 208.922ZM164.588 207.569C164.973 207.729 165.003 208.263 164.639 208.467L159.676 211.24C159.543 211.314 159.383 211.324 159.242 211.266L155.595 209.764C155.209 209.605 155.176 209.07 155.54 208.866L160.504 206.071C160.638 205.996 160.8 205.986 160.942 206.045L164.588 207.569ZM144.928 206.452C145.312 206.61 145.347 207.14 144.987 207.347L142.174 208.968C142.04 209.046 141.878 209.056 141.734 208.997L137.912 207.424C137.766 207.364 137.657 207.239 137.618 207.086L136.816 203.977C136.713 203.578 137.109 203.233 137.49 203.389L144.928 206.452ZM158.602 205.067C158.986 205.228 159.017 205.76 158.654 205.964L153.677 208.768C153.543 208.843 153.383 208.853 153.241 208.795L136.485 201.895C136.339 201.835 136.23 201.71 136.191 201.558L134.751 195.974C134.648 195.574 135.047 195.229 135.428 195.388L158.602 205.067Z" fill="#3E3E3E"/>
<path d="M71.5789 86.2962C70.9123 86.4629 69.4789 87.1962 69.0789 88.7962C68.5789 90.7962 70.5789 92.2962 71.5789 92.7962C72.3789 93.1962 73.2455 93.2388 73.5789 93.4055M101.079 97.7962C99.2455 94.1295 93.3789 86.8962 84.5789 87.2962M101.079 97.7962C101.412 98.6295 101.479 99.5963 101.079 100.796C100.579 102.296 95.5789 108.296 88.5789 111.296C81.5789 114.296 75.0789 113.796 73.0789 112.296C72.5527 111.902 72.4484 111.696 72.0789 110.796M101.079 97.7962C98.9519 97.3708 94.0789 97.2963 90.0789 98.2963M84.5789 87.2962C83.4122 84.1295 81.5789 78.4627 78.0789 77.2961C75.0788 76.2961 70.0789 77.7963 70.5789 82.2963C70.9789 85.8963 73.3706 89.7963 74.7665 91.7963M84.5789 87.2962C82.3944 87.3955 80.5845 87.83 79.0789 88.494M72.0789 110.796C71.0438 108.278 70.342 102.244 71.0789 99.2963C71.6356 97.0696 72.3472 94.7931 74.7665 91.7963M72.0789 110.796C72.5789 108.796 75.5789 105.413 79.5789 102.796M74.7665 91.7963C75.83 90.479 77.2235 89.3123 79.0789 88.494M76.5789 82.2963L79.0789 88.494M90.0789 98.2963C90.5789 99.9011 91.5789 104.296 87.5789 106.296C83.5789 108.296 80.5789 104.796 79.5789 102.796M90.0789 98.2963C87.0789 99.0463 82.559 100.847 79.5789 102.796" stroke="#3E3E3E" stroke-linecap="round"/>
<path d="M40 158.021C32.1434 158.24 26 160.161 26 162.5C26 164.985 32.9396 167 41.5 167C50.0604 167 57 164.985 57 162.5C57 160.161 50.8566 158.24 43 158.021" stroke="#3E3E3E"/>
<path d="M57 162.5V164.5C57 166.985 50.0604 169 41.5 169C32.9396 169 26 166.985 26 164.5V162.5" stroke="#3E3E3E"/>
<circle cx="41.5" cy="120.5" r="3" stroke="#3E3E3E"/>
<path d="M40 123V161.506C40 161.506 40.375 162 41.5 162C42.625 162 43 161.506 43 161.506V123" stroke="#3E3E3E"/>
<path d="M44.1211 119.698L71.3492 92.4702M41.9998 117.577L69.2279 90.3488" stroke="#3E3E3E"/>
</svg>
