<svg width="32" height="32" viewBox="0 0 32 32" fill="none" xmlns="http://www.w3.org/2000/svg">
<path d="M14.0827 12.3981C14.3912 11.8673 15.2004 11.8673 15.4205 12.3981L16.1985 14.2745C16.288 14.4903 16.495 14.639 16.7459 14.6676L18.9273 14.9166C19.5445 14.987 19.7347 15.7047 19.2419 16.1032L17.4999 17.5118C17.2995 17.6738 17.1957 17.9144 17.2253 18.1479L17.4829 20.1781C17.5557 20.7525 16.8642 21.1961 16.3395 20.9115L14.4848 19.9057C14.2715 19.79 14.0003 19.79 13.7677 19.9057L11.7455 20.9115C11.1734 21.1961 10.5557 20.7525 10.7242 20.1781L11.32 18.1479C11.3885 17.9144 11.3248 17.6738 11.1514 17.5118L9.64402 16.1032C9.21758 15.7047 9.5274 14.987 10.1563 14.9166L12.3791 14.6676C12.6348 14.639 12.8666 14.4903 12.992 14.2745L14.0827 12.3981Z" fill="url(#paint0_linear_405_51)"/>
<path opacity="0.4" d="M21.4315 6.72415C21.596 6.66881 21.7676 6.78982 21.7154 6.92422L21.5306 7.3993C21.5094 7.45394 21.5256 7.51333 21.5735 7.55633L21.9899 7.93015C22.1077 8.03591 22.0143 8.20158 21.8354 8.20406L21.2032 8.21282C21.1305 8.21383 21.0636 8.24429 21.0264 8.29337L20.7025 8.72002C20.6109 8.84072 20.3814 8.8221 20.3232 8.68923L20.1172 8.21956C20.0935 8.16555 20.036 8.12498 19.9651 8.11231L19.3485 8.00218C19.1741 7.97102 19.1257 7.79384 19.2685 7.70924L19.7735 7.41021C19.8315 7.37581 19.8628 7.32028 19.8563 7.26338L19.7991 6.76866C19.7829 6.6287 19.9824 6.53783 20.129 6.61841L20.647 6.90326C20.7066 6.93602 20.7835 6.94226 20.8503 6.91976L21.4315 6.72415Z" fill="url(#paint1_linear_405_51)"/>
<defs>
<linearGradient id="paint0_linear_405_51" x1="14.8634" y1="11.0548" x2="14.8634" y2="22.7482" gradientUnits="userSpaceOnUse">
<stop stop-color="#ADDDFF"/>
<stop offset="1" stop-color="#EDF6FF" stop-opacity="0"/>
</linearGradient>
<linearGradient id="paint1_linear_405_51" x1="21.8476" y1="6.5841" x2="20.0713" y2="9.10417" gradientUnits="userSpaceOnUse">
<stop stop-color="#ADDDFF"/>
<stop offset="1" stop-color="#EDF6FF" stop-opacity="0"/>
</linearGradient>
</defs>
</svg>
